<mxfile host="app.diagrams.net" agent="Mozilla/5.0 (Windows NT 10.0; Win64; x64) AppleWebKit/537.36 (KHTML, like Gecko) Chrome/132.0.0.0 Safari/537.36" version="26.0.11">
  <diagram name="Page-1" id="qgcRPCHYhogGODcxFNp2">
    <mxGraphModel dx="2402" dy="2014" grid="1" gridSize="10" guides="1" tooltips="1" connect="1" arrows="1" fold="1" page="1" pageScale="1" pageWidth="850" pageHeight="1100" math="0" shadow="0">
      <root>
        <mxCell id="0" />
        <mxCell id="1" parent="0" />
        <mxCell id="pHtEFcCU99gmoeRJndIN-1" value="&lt;div&gt;&lt;font style=&quot;font-size: 14px;&quot;&gt;&amp;nbsp; &amp;nbsp; &amp;nbsp; &amp;nbsp; &amp;nbsp; &amp;nbsp; &amp;nbsp; +------------------------------------+&lt;/font&gt;&lt;/div&gt;&lt;div&gt;&lt;font size=&quot;3&quot;&gt;&amp;nbsp; &amp;nbsp; &amp;nbsp; &amp;nbsp; &amp;nbsp; &amp;nbsp; &amp;nbsp; |&amp;nbsp; &amp;nbsp; &amp;nbsp; &amp;nbsp; &amp;nbsp; &amp;nbsp; &amp;nbsp;Người dùng&amp;nbsp; &amp;nbsp; &amp;nbsp; &amp;nbsp; &amp;nbsp; &amp;nbsp; &amp;nbsp;|&lt;/font&gt;&lt;/div&gt;&lt;div&gt;&lt;font size=&quot;3&quot;&gt;&amp;nbsp; &amp;nbsp; &amp;nbsp; &amp;nbsp; &amp;nbsp; &amp;nbsp; &amp;nbsp; |&amp;nbsp; &amp;nbsp; &amp;nbsp; &amp;nbsp; &amp;nbsp; &amp;nbsp; (AWS IAM)&amp;nbsp; &amp;nbsp; &amp;nbsp; &amp;nbsp; &amp;nbsp; &amp;nbsp; &amp;nbsp; &amp;nbsp;|&lt;/font&gt;&lt;/div&gt;&lt;div&gt;&lt;font size=&quot;3&quot;&gt;&amp;nbsp; &amp;nbsp; &amp;nbsp; &amp;nbsp; &amp;nbsp; &amp;nbsp; &amp;nbsp; +----------------+-------------------+&lt;/font&gt;&lt;/div&gt;&lt;div&gt;&lt;font size=&quot;3&quot;&gt;&amp;nbsp; &amp;nbsp; &amp;nbsp; &amp;nbsp; &amp;nbsp; &amp;nbsp; &amp;nbsp; &amp;nbsp; &amp;nbsp; &amp;nbsp; &amp;nbsp; &amp;nbsp; &amp;nbsp; &amp;nbsp; &amp;nbsp; &amp;nbsp;│&lt;/font&gt;&lt;/div&gt;&lt;div&gt;&lt;font size=&quot;3&quot;&gt;&amp;nbsp; &amp;nbsp; &amp;nbsp; &amp;nbsp; &amp;nbsp; &amp;nbsp; &amp;nbsp; &amp;nbsp; &amp;nbsp; &amp;nbsp; &amp;nbsp; &amp;nbsp; &amp;nbsp; &amp;nbsp; &amp;nbsp; &amp;nbsp;▼&lt;/font&gt;&lt;/div&gt;&lt;div&gt;&lt;font size=&quot;3&quot;&gt;&amp;nbsp; &amp;nbsp; &amp;nbsp; &amp;nbsp; &amp;nbsp; &amp;nbsp; &amp;nbsp; +-----------------------------+&lt;/font&gt;&lt;/div&gt;&lt;div&gt;&lt;font size=&quot;3&quot;&gt;&amp;nbsp; &amp;nbsp; &amp;nbsp; &amp;nbsp; &amp;nbsp; &amp;nbsp; &amp;nbsp; |&amp;nbsp; &amp;nbsp;Web Frontend (AWS Amplify)|&lt;/font&gt;&lt;/div&gt;&lt;div&gt;&lt;font size=&quot;3&quot;&gt;&amp;nbsp; &amp;nbsp; &amp;nbsp; &amp;nbsp; &amp;nbsp; &amp;nbsp; &amp;nbsp; +-------------+---------------+&lt;/font&gt;&lt;/div&gt;&lt;div&gt;&lt;font size=&quot;3&quot;&gt;&amp;nbsp; &amp;nbsp; &amp;nbsp; &amp;nbsp; &amp;nbsp; &amp;nbsp; &amp;nbsp; &amp;nbsp; &amp;nbsp; &amp;nbsp; &amp;nbsp; &amp;nbsp; &amp;nbsp; &amp;nbsp; │&lt;/font&gt;&lt;/div&gt;&lt;div&gt;&lt;font size=&quot;3&quot;&gt;&amp;nbsp; &amp;nbsp; &amp;nbsp; &amp;nbsp; &amp;nbsp; &amp;nbsp; &amp;nbsp; &amp;nbsp; &amp;nbsp; &amp;nbsp; &amp;nbsp; &amp;nbsp; &amp;nbsp; &amp;nbsp; ▼&lt;/font&gt;&lt;/div&gt;&lt;div&gt;&lt;font size=&quot;3&quot;&gt;&amp;nbsp; &amp;nbsp; &amp;nbsp; &amp;nbsp; &amp;nbsp; &amp;nbsp; &amp;nbsp; +-----------------------------+&lt;/font&gt;&lt;/div&gt;&lt;div&gt;&lt;font size=&quot;3&quot;&gt;&amp;nbsp; &amp;nbsp; &amp;nbsp; &amp;nbsp; &amp;nbsp; &amp;nbsp; &amp;nbsp; | API Gateway (FastAPI on EC2)|&lt;/font&gt;&lt;/div&gt;&lt;div&gt;&lt;font size=&quot;3&quot;&gt;&amp;nbsp; &amp;nbsp; &amp;nbsp; &amp;nbsp; &amp;nbsp; &amp;nbsp; &amp;nbsp; +-------------+---------------+&lt;/font&gt;&lt;/div&gt;&lt;div&gt;&lt;font size=&quot;3&quot;&gt;&amp;nbsp; &amp;nbsp; &amp;nbsp; &amp;nbsp; &amp;nbsp; &amp;nbsp; &amp;nbsp; &amp;nbsp; &amp;nbsp; &amp;nbsp; &amp;nbsp; &amp;nbsp; &amp;nbsp; &amp;nbsp; │&lt;/font&gt;&lt;/div&gt;&lt;div&gt;&lt;font size=&quot;3&quot;&gt;&amp;nbsp; &amp;nbsp; &amp;nbsp; &amp;nbsp; &amp;nbsp; &amp;nbsp; &amp;nbsp; &amp;nbsp; &amp;nbsp; &amp;nbsp; &amp;nbsp; &amp;nbsp; &amp;nbsp; &amp;nbsp; ▼&lt;/font&gt;&lt;/div&gt;&lt;div&gt;&lt;font size=&quot;3&quot;&gt;&amp;nbsp; &amp;nbsp; &amp;nbsp; &amp;nbsp; &amp;nbsp; &amp;nbsp; &amp;nbsp; +-----------------------------+&lt;/font&gt;&lt;/div&gt;&lt;div&gt;&lt;font size=&quot;3&quot;&gt;&amp;nbsp; &amp;nbsp; &amp;nbsp; &amp;nbsp; &amp;nbsp; &amp;nbsp; &amp;nbsp; |&amp;nbsp; &amp;nbsp; &amp;nbsp; Message Broker&amp;nbsp; &amp;nbsp; &amp;nbsp; &amp;nbsp; &amp;nbsp;|&lt;/font&gt;&lt;/div&gt;&lt;div&gt;&lt;font size=&quot;3&quot;&gt;&amp;nbsp; &amp;nbsp; &amp;nbsp; &amp;nbsp; &amp;nbsp; &amp;nbsp; &amp;nbsp; |&amp;nbsp; &amp;nbsp; &amp;nbsp; (AWS MSK - Kafka)&amp;nbsp; &amp;nbsp; &amp;nbsp; |&lt;/font&gt;&lt;/div&gt;&lt;div&gt;&lt;font size=&quot;3&quot;&gt;&amp;nbsp; &amp;nbsp; &amp;nbsp; &amp;nbsp; &amp;nbsp; &amp;nbsp; &amp;nbsp; +------+-----------+----------+&lt;/font&gt;&lt;/div&gt;&lt;div&gt;&lt;font size=&quot;3&quot;&gt;&amp;nbsp; &amp;nbsp; &amp;nbsp; &amp;nbsp; &amp;nbsp; &amp;nbsp; &amp;nbsp; &amp;nbsp; &amp;nbsp; &amp;nbsp; &amp;nbsp;│&amp;nbsp; &amp;nbsp; &amp;nbsp; &amp;nbsp; &amp;nbsp; &amp;nbsp;│&lt;/font&gt;&lt;/div&gt;&lt;div&gt;&lt;font size=&quot;3&quot;&gt;&amp;nbsp; &amp;nbsp; &amp;nbsp; &amp;nbsp; &amp;nbsp; &amp;nbsp; &amp;nbsp; &amp;nbsp; &amp;nbsp; &amp;nbsp; &amp;nbsp;│&amp;nbsp; &amp;nbsp; &amp;nbsp; &amp;nbsp; &amp;nbsp; &amp;nbsp;│&lt;/font&gt;&lt;/div&gt;&lt;div&gt;&lt;font size=&quot;3&quot;&gt;&amp;nbsp; &amp;nbsp; &amp;nbsp;+---------------+&amp;nbsp; &amp;nbsp; &amp;nbsp; &amp;nbsp; &amp;nbsp; &amp;nbsp;+-----------------+&lt;/font&gt;&lt;/div&gt;&lt;div&gt;&lt;font size=&quot;3&quot;&gt;&amp;nbsp; &amp;nbsp; &amp;nbsp;│&amp;nbsp; &amp;nbsp; &amp;nbsp; &amp;nbsp; &amp;nbsp; &amp;nbsp; &amp;nbsp; &amp;nbsp; &amp;nbsp; &amp;nbsp; &amp;nbsp; &amp;nbsp; &amp;nbsp; &amp;nbsp; &amp;nbsp; &amp;nbsp; &amp;nbsp; &amp;nbsp; &amp;nbsp; &amp;nbsp; &amp;nbsp; &amp;nbsp; &amp;nbsp;│&lt;/font&gt;&lt;/div&gt;&lt;div&gt;&lt;font size=&quot;3&quot;&gt;&amp;nbsp; &amp;nbsp; &amp;nbsp;▼&amp;nbsp; &amp;nbsp; &amp;nbsp; &amp;nbsp; &amp;nbsp; &amp;nbsp; &amp;nbsp; &amp;nbsp; &amp;nbsp; &amp;nbsp; &amp;nbsp; &amp;nbsp; &amp;nbsp; &amp;nbsp; &amp;nbsp; &amp;nbsp; &amp;nbsp; &amp;nbsp; &amp;nbsp; &amp;nbsp; &amp;nbsp; &amp;nbsp; &amp;nbsp;▼&lt;/font&gt;&lt;/div&gt;&lt;div&gt;&lt;font size=&quot;3&quot;&gt;+-------------+&amp;nbsp; &amp;nbsp; &amp;nbsp; &amp;nbsp; &amp;nbsp; &amp;nbsp; &amp;nbsp; &amp;nbsp; &amp;nbsp; &amp;nbsp; &amp;nbsp; &amp;nbsp; &amp;nbsp; &amp;nbsp; &amp;nbsp;+--------------+&lt;/font&gt;&lt;/div&gt;&lt;div&gt;&lt;font size=&quot;3&quot;&gt;| File Ingestion|&amp;nbsp; &amp;nbsp; &amp;nbsp; &amp;nbsp; &amp;nbsp; &amp;nbsp; &amp;nbsp; &amp;nbsp; &amp;nbsp; &amp;nbsp; &amp;nbsp; &amp;nbsp; &amp;nbsp; &amp;nbsp; &amp;nbsp;|&amp;nbsp; Other Core&amp;nbsp; |&lt;/font&gt;&lt;/div&gt;&lt;div&gt;&lt;font size=&quot;3&quot;&gt;| Service&amp;nbsp; &amp;nbsp; &amp;nbsp;|&amp;nbsp; &amp;nbsp; &amp;nbsp; &amp;nbsp; &amp;nbsp; &amp;nbsp; &amp;nbsp; &amp;nbsp; &amp;nbsp; &amp;nbsp; &amp;nbsp; &amp;nbsp; &amp;nbsp; &amp;nbsp; &amp;nbsp;|&amp;nbsp; Services&amp;nbsp; &amp;nbsp; |&lt;/font&gt;&lt;/div&gt;&lt;div&gt;&lt;font size=&quot;3&quot;&gt;| (NiFi, OCR) |&amp;nbsp; &amp;nbsp; &amp;nbsp; &amp;nbsp; &amp;nbsp; &amp;nbsp; &amp;nbsp; &amp;nbsp; &amp;nbsp; &amp;nbsp; &amp;nbsp; &amp;nbsp; &amp;nbsp; &amp;nbsp; &amp;nbsp;| (AI Core,&amp;nbsp; &amp;nbsp; |&lt;/font&gt;&lt;/div&gt;&lt;div&gt;&lt;font size=&quot;3&quot;&gt;+------+------|&amp;nbsp; &amp;nbsp; &amp;nbsp; &amp;nbsp; &amp;nbsp; &amp;nbsp; &amp;nbsp; &amp;nbsp; &amp;nbsp; &amp;nbsp; &amp;nbsp; &amp;nbsp; &amp;nbsp; &amp;nbsp; &amp;nbsp;| Orchestration|&lt;/font&gt;&lt;/div&gt;&lt;div&gt;&lt;font size=&quot;3&quot;&gt;&amp;nbsp; &amp;nbsp; &amp;nbsp; &amp;nbsp;│&amp;nbsp; &amp;nbsp; &amp;nbsp; &amp;nbsp; &amp;nbsp; &amp;nbsp; &amp;nbsp; &amp;nbsp; &amp;nbsp; &amp;nbsp; &amp;nbsp; &amp;nbsp; &amp;nbsp; &amp;nbsp; &amp;nbsp; &amp;nbsp; &amp;nbsp; &amp;nbsp; | Visualization|&lt;/font&gt;&lt;/div&gt;&lt;div&gt;&lt;font size=&quot;3&quot;&gt;&amp;nbsp; &amp;nbsp; &amp;nbsp; &amp;nbsp;▼&amp;nbsp; &amp;nbsp; &amp;nbsp; &amp;nbsp; &amp;nbsp; &amp;nbsp; &amp;nbsp; &amp;nbsp; &amp;nbsp; &amp;nbsp; &amp;nbsp; &amp;nbsp; &amp;nbsp; &amp;nbsp; &amp;nbsp; &amp;nbsp; &amp;nbsp; &amp;nbsp; +-------+------+&lt;/font&gt;&lt;/div&gt;&lt;div&gt;&lt;font size=&quot;3&quot;&gt;+-------------+&amp;nbsp; &amp;nbsp; &amp;nbsp; &amp;nbsp; &amp;nbsp; &amp;nbsp; &amp;nbsp; &amp;nbsp; &amp;nbsp; &amp;nbsp; &amp;nbsp; &amp;nbsp; &amp;nbsp; &amp;nbsp; &amp;nbsp; &amp;nbsp; &amp;nbsp; &amp;nbsp; &amp;nbsp; &amp;nbsp; │&lt;/font&gt;&lt;/div&gt;&lt;div&gt;&lt;font size=&quot;3&quot;&gt;| Document&amp;nbsp; &amp;nbsp; |&amp;nbsp; &amp;nbsp; &amp;nbsp; &amp;nbsp; &amp;nbsp; &amp;nbsp; &amp;nbsp; &amp;nbsp; &amp;nbsp; &amp;nbsp; &amp;nbsp; &amp;nbsp; &amp;nbsp; &amp;nbsp; &amp;nbsp; &amp;nbsp; &amp;nbsp; &amp;nbsp; &amp;nbsp; &amp;nbsp; ▼&lt;/font&gt;&lt;/div&gt;&lt;div&gt;&lt;font size=&quot;3&quot;&gt;| Processing&amp;nbsp; |&amp;nbsp; &amp;nbsp; &amp;nbsp; &amp;nbsp; &amp;nbsp; &amp;nbsp; &amp;nbsp; &amp;nbsp; &amp;nbsp; &amp;nbsp; &amp;nbsp; &amp;nbsp; &amp;nbsp; &amp;nbsp; &amp;nbsp; +--------------------+&lt;/font&gt;&lt;/div&gt;&lt;div&gt;&lt;font size=&quot;3&quot;&gt;| Service&amp;nbsp; &amp;nbsp; &amp;nbsp;|&amp;nbsp; &amp;nbsp; &amp;nbsp; &amp;nbsp; &amp;nbsp; &amp;nbsp; &amp;nbsp; &amp;nbsp; &amp;nbsp; &amp;nbsp; &amp;nbsp; &amp;nbsp; &amp;nbsp; &amp;nbsp; &amp;nbsp; |&amp;nbsp; Backend &amp;amp; Async&amp;nbsp; &amp;nbsp;|&lt;/font&gt;&lt;/div&gt;&lt;div&gt;&lt;font size=&quot;3&quot;&gt;+------+------|&amp;nbsp; &amp;nbsp; &amp;nbsp; &amp;nbsp; &amp;nbsp; &amp;nbsp; &amp;nbsp; &amp;nbsp; &amp;nbsp; &amp;nbsp; &amp;nbsp; &amp;nbsp; &amp;nbsp; &amp;nbsp; &amp;nbsp; |&amp;nbsp; &amp;nbsp;Processing&amp;nbsp; &amp;nbsp; &amp;nbsp; &amp;nbsp;|&lt;/font&gt;&lt;/div&gt;&lt;div&gt;&lt;font size=&quot;3&quot;&gt;&amp;nbsp; &amp;nbsp; &amp;nbsp; &amp;nbsp;│&amp;nbsp; &amp;nbsp; &amp;nbsp; &amp;nbsp; &amp;nbsp; &amp;nbsp; &amp;nbsp; &amp;nbsp; &amp;nbsp; &amp;nbsp; &amp;nbsp; &amp;nbsp; &amp;nbsp; &amp;nbsp; &amp;nbsp; &amp;nbsp; &amp;nbsp; &amp;nbsp; +---------+----------+&lt;/font&gt;&lt;/div&gt;&lt;div&gt;&lt;font size=&quot;3&quot;&gt;&amp;nbsp; &amp;nbsp; &amp;nbsp; &amp;nbsp;▼&amp;nbsp; &amp;nbsp; &amp;nbsp; &amp;nbsp; &amp;nbsp; &amp;nbsp; &amp;nbsp; &amp;nbsp; &amp;nbsp; &amp;nbsp; &amp;nbsp; &amp;nbsp; &amp;nbsp; &amp;nbsp; &amp;nbsp; &amp;nbsp; &amp;nbsp; &amp;nbsp; &amp;nbsp; &amp;nbsp; &amp;nbsp; &amp;nbsp; &amp;nbsp; │&lt;/font&gt;&lt;/div&gt;&lt;div&gt;&lt;font size=&quot;3&quot;&gt;+--------------+&amp;nbsp; &amp;nbsp; &amp;nbsp; &amp;nbsp; &amp;nbsp; &amp;nbsp; &amp;nbsp; &amp;nbsp; &amp;nbsp; &amp;nbsp; &amp;nbsp; &amp;nbsp; &amp;nbsp; &amp;nbsp; &amp;nbsp; &amp;nbsp; &amp;nbsp; &amp;nbsp; &amp;nbsp; ▼&lt;/font&gt;&lt;/div&gt;&lt;div&gt;&lt;font size=&quot;3&quot;&gt;| AI Core&amp;nbsp; &amp;nbsp; &amp;nbsp; |&amp;nbsp; &amp;nbsp; &amp;nbsp; &amp;nbsp; &amp;nbsp; &amp;nbsp; &amp;nbsp; &amp;nbsp; &amp;nbsp; &amp;nbsp; &amp;nbsp; &amp;nbsp; &amp;nbsp; &amp;nbsp; &amp;nbsp; +--------------------+&lt;/font&gt;&lt;/div&gt;&lt;div&gt;&lt;font size=&quot;3&quot;&gt;| Service&amp;nbsp; &amp;nbsp; &amp;nbsp; |&amp;nbsp; &amp;nbsp; &amp;nbsp; &amp;nbsp; &amp;nbsp; &amp;nbsp; &amp;nbsp; &amp;nbsp; &amp;nbsp; &amp;nbsp; &amp;nbsp; &amp;nbsp; &amp;nbsp; &amp;nbsp; &amp;nbsp; |&amp;nbsp; External Systems&amp;nbsp; |&lt;/font&gt;&lt;/div&gt;&lt;div&gt;&lt;font size=&quot;3&quot;&gt;| (GPT-4, etc) |&amp;nbsp; &amp;nbsp; &amp;nbsp; &amp;nbsp; &amp;nbsp; &amp;nbsp; &amp;nbsp; &amp;nbsp; &amp;nbsp; &amp;nbsp; &amp;nbsp; &amp;nbsp; &amp;nbsp; &amp;nbsp; &amp;nbsp; | (Jira, Agile Tools)|&lt;/font&gt;&lt;/div&gt;&lt;div&gt;&lt;font size=&quot;3&quot;&gt;+------+-------+&amp;nbsp; &amp;nbsp; &amp;nbsp; &amp;nbsp; &amp;nbsp; &amp;nbsp; &amp;nbsp; &amp;nbsp; &amp;nbsp; &amp;nbsp; &amp;nbsp; &amp;nbsp; &amp;nbsp; &amp;nbsp; &amp;nbsp; +--------------------+&lt;/font&gt;&lt;/div&gt;&lt;div&gt;&lt;font size=&quot;3&quot;&gt;&amp;nbsp; &amp;nbsp; &amp;nbsp; &amp;nbsp;│&lt;/font&gt;&lt;/div&gt;&lt;div&gt;&lt;font size=&quot;3&quot;&gt;&amp;nbsp; &amp;nbsp; &amp;nbsp; &amp;nbsp;▼&lt;/font&gt;&lt;/div&gt;&lt;div&gt;&lt;font size=&quot;3&quot;&gt;+--------------+&lt;/font&gt;&lt;/div&gt;&lt;div&gt;&lt;font size=&quot;3&quot;&gt;| Vector DB&amp;nbsp; &amp;nbsp; |&lt;/font&gt;&lt;/div&gt;&lt;div&gt;&lt;font size=&quot;3&quot;&gt;| (Pinecone,&amp;nbsp; &amp;nbsp;|&lt;/font&gt;&lt;/div&gt;&lt;div&gt;&lt;font size=&quot;3&quot;&gt;| Weaviate)&amp;nbsp; &amp;nbsp; |&lt;/font&gt;&lt;/div&gt;&lt;div&gt;&lt;font size=&quot;3&quot;&gt;+--------------+&lt;/font&gt;&lt;/div&gt;&lt;div&gt;&lt;br&gt;&lt;/div&gt;" style="text;html=1;align=center;verticalAlign=middle;resizable=0;points=[];autosize=1;strokeColor=none;fillColor=none;" vertex="1" parent="1">
          <mxGeometry x="-150" y="-397" width="400" height="1000" as="geometry" />
        </mxCell>
        <mxCell id="pHtEFcCU99gmoeRJndIN-2" value="4. Quy trình xử lý (Workflow)" style="text;html=1;align=center;verticalAlign=middle;resizable=0;points=[];autosize=1;strokeColor=none;fillColor=none;" vertex="1" parent="1">
          <mxGeometry x="-380" y="718" width="180" height="30" as="geometry" />
        </mxCell>
        <mxCell id="pHtEFcCU99gmoeRJndIN-4" value="&lt;div&gt;1. File Upload:&lt;/div&gt;&lt;div&gt;&amp;nbsp;- Người dùng upload file thông qua giao diện web.&lt;/div&gt;&lt;div&gt;&amp;nbsp;- API Gateway (FastAPI) nhận và xác thực file, gửi thông điệp qua Kafka.&lt;/div&gt;&lt;div&gt;&lt;br&gt;&lt;/div&gt;&lt;div&gt;2. File Ingestion &amp;amp; Processing:&lt;/div&gt;&lt;div&gt;&amp;nbsp;- File Ingestion Service (Apache NiFi) nhận thông điệp, lấy file từ storage.&lt;/div&gt;&lt;div&gt;&amp;nbsp;- Nếu file cần xử lý hình ảnh (jpg, png, mp4), sử dụng Tesseract để chuyển đổi sang văn bản.&lt;/div&gt;&lt;div&gt;&amp;nbsp;- Document Processing Service trích xuất nội dung và metadata.&lt;/div&gt;&lt;div&gt;&lt;br&gt;&lt;/div&gt;&lt;div&gt;3. AI Analysis &amp;amp; Embedding:&lt;/div&gt;&lt;div&gt;&amp;nbsp;- Nội dung được gửi đến AI Core Service:&lt;/div&gt;&lt;div&gt;&amp;nbsp;- Sử dụng GPT-4, Claude 3, Gemini để phân tích semantic, trích xuất ý chính.&lt;/div&gt;&lt;div&gt;&amp;nbsp;- Sinh embedding từ nội dung và lưu vào Vector Database.&lt;/div&gt;&lt;div&gt;&lt;br&gt;&lt;/div&gt;&lt;div&gt;4. Orchestration &amp;amp; Q&amp;amp;A:&lt;/div&gt;&lt;div&gt;&amp;nbsp;- Orchestration Service (LangChain, LlamaIndex) kết hợp kết quả từ nhiều mô hình AI.&lt;/div&gt;&lt;div&gt;&amp;nbsp;- Xây dựng hệ thống Q&amp;amp;A dựa trên embedding và truy vấn semantic.&lt;/div&gt;&lt;div&gt;&lt;br&gt;&lt;/div&gt;&lt;div&gt;5.Visualization &amp;amp; Reporting:&lt;/div&gt;&lt;div&gt;&amp;nbsp;- Visualization Service tạo tự động các sơ đồ (sequence, flow, kiến trúc) dựa trên dữ liệu xử lý.&lt;/div&gt;&lt;div&gt;&amp;nbsp;- Hệ thống gợi ý chuyển đổi tài liệu thành báo cáo tiến độ (Gantt chart), cập nhật bug qua Jira, …&lt;/div&gt;&lt;div&gt;&lt;br&gt;&lt;/div&gt;&lt;div&gt;6.Response &amp;amp; Integration:&lt;/div&gt;&lt;div&gt;&amp;nbsp;- Kết quả cuối cùng được tổng hợp và trả về cho người dùng qua API.&lt;/div&gt;&lt;div&gt;&amp;nbsp;- Tích hợp với các công cụ bên ngoài nếu cần.&lt;/div&gt;" style="text;html=1;align=left;verticalAlign=middle;resizable=0;points=[];autosize=1;strokeColor=none;fillColor=none;" vertex="1" parent="1">
          <mxGeometry x="-350" y="760" width="540" height="370" as="geometry" />
        </mxCell>
        <mxCell id="pHtEFcCU99gmoeRJndIN-5" value="&lt;b&gt;Sequence Diagram 1: Flow Upload File từ Người Dùng&lt;/b&gt;" style="text;html=1;align=center;verticalAlign=middle;resizable=0;points=[];autosize=1;strokeColor=none;fillColor=none;" vertex="1" parent="1">
          <mxGeometry x="-395" y="1260" width="330" height="30" as="geometry" />
        </mxCell>
        <mxCell id="pHtEFcCU99gmoeRJndIN-6" value="&lt;h2&gt;6. Sequence Diagrams – Top 20 luồng quan trọng&lt;/h2&gt;&lt;p&gt;Dưới đây là 20 sequence diagram mẫu (được mô phỏng theo cú pháp của StartUML/PlantUML) cho các flow quan trọng trong hệ thống. Bạn có thể dùng các sơ đồ này làm tài liệu tham khảo để mở rộng và chỉnh sửa chi tiết.&lt;/p&gt;" style="text;html=1;align=left;verticalAlign=middle;resizable=0;points=[];autosize=1;strokeColor=none;fillColor=none;" vertex="1" parent="1">
          <mxGeometry x="-390" y="1150" width="1220" height="90" as="geometry" />
        </mxCell>
        <UserObject label="" plantUmlData="{&#xa;  &quot;data&quot;: &quot;@startuml\nactor User\nparticipant \&quot;Web Frontend\\n(AWS Amplify)\&quot; as WF\nparticipant \&quot;API Gateway\\n(FastAPI)\&quot; as API\nparticipant \&quot;Kafka Broker\\n(AWS MSK)\&quot; as Kafka\nparticipant \&quot;File Ingestion Service\\n(Apache NiFi)\&quot; as FIS\n\nUser -&gt; WF: Chọn &amp; upload file\nWF -&gt; API: Gửi file và metadata\nAPI -&gt; Kafka: Đẩy thông điệp file upload\nKafka -&gt; FIS: Đẩy thông điệp tới xử lý file\nFIS -&gt; FIS: Xác thực file, lưu tạm\n@enduml\n&quot;,&#xa;  &quot;format&quot;: &quot;svg&quot;&#xa;}" id="pHtEFcCU99gmoeRJndIN-7">
          <mxCell style="shape=image;noLabel=1;verticalAlign=top;aspect=fixed;imageAspect=0;image=data:image/svg+xml,PD94bWwgdmVyc2lvbj0iMS4wIiBlbmNvZGluZz0idXMtYXNjaWkiIHN0YW5kYWxvbmU9Im5vIj8+PHN2ZyB4bWxucz0iaHR0cDovL3d3dy53My5vcmcvMjAwMC9zdmciIHhtbG5zOnhsaW5rPSJodHRwOi8vd3d3LnczLm9yZy8xOTk5L3hsaW5rIiBjb250ZW50U3R5bGVUeXBlPSJ0ZXh0L2NzcyIgaGVpZ2h0PSIzMzJweCIgcHJlc2VydmVBc3BlY3RSYXRpbz0ibm9uZSIgc3R5bGU9IndpZHRoOjkwNHB4O2hlaWdodDozMzJweDtiYWNrZ3JvdW5kOiNGRkZGRkY7IiB2ZXJzaW9uPSIxLjEiIHZpZXdCb3g9IjAgMCA5MDQgMzMyIiB3aWR0aD0iOTA0cHgiIHpvb21BbmRQYW49Im1hZ25pZnkiPjxkZWZzLz48Zz48bGluZSBzdHlsZT0ic3Ryb2tlOiMxODE4MTg7c3Ryb2tlLXdpZHRoOjAuNTtzdHJva2UtZGFzaGFycmF5OjUuMCw1LjA7IiB4MT0iMjIiIHgyPSIyMiIgeTE9Ijc5Ljk4NDQiIHkyPSIyNTIuNTU0NyIvPjxsaW5lIHN0eWxlPSJzdHJva2U6IzE4MTgxODtzdHJva2Utd2lkdGg6MC41O3N0cm9rZS1kYXNoYXJyYXk6NS4wLDUuMDsiIHgxPSIxNjgiIHgyPSIxNjgiIHkxPSI3OS45ODQ0IiB5Mj0iMjUyLjU1NDciLz48bGluZSBzdHlsZT0ic3Ryb2tlOiMxODE4MTg7c3Ryb2tlLXdpZHRoOjAuNTtzdHJva2UtZGFzaGFycmF5OjUuMCw1LjA7IiB4MT0iMzI1IiB4Mj0iMzI1IiB5MT0iNzkuOTg0NCIgeTI9IjI1Mi41NTQ3Ii8+PGxpbmUgc3R5bGU9InN0cm9rZTojMTgxODE4O3N0cm9rZS13aWR0aDowLjU7c3Ryb2tlLWRhc2hhcnJheTo1LjAsNS4wOyIgeDE9IjUyNSIgeDI9IjUyNSIgeTE9Ijc5Ljk4NDQiIHkyPSIyNTIuNTU0NyIvPjxsaW5lIHN0eWxlPSJzdHJva2U6IzE4MTgxODtzdHJva2Utd2lkdGg6MC41O3N0cm9rZS1kYXNoYXJyYXk6NS4wLDUuMDsiIHgxPSI3NDQiIHgyPSI3NDQiIHkxPSI3OS45ODQ0IiB5Mj0iMjUyLjU1NDciLz48dGV4dCBmaWxsPSIjMDAwMDAwIiBmb250LWZhbWlseT0ic2Fucy1zZXJpZiIgZm9udC1zaXplPSIxNCIgbGVuZ3RoQWRqdXN0PSJzcGFjaW5nIiB0ZXh0TGVuZ3RoPSIyOCIgeD0iNSIgeT0iNzguMjM0NCI+VXNlcjwvdGV4dD48ZWxsaXBzZSBjeD0iMjIiIGN5PSIxMy41IiBmaWxsPSIjRTJFMkYwIiByeD0iOCIgcnk9IjgiIHN0eWxlPSJzdHJva2U6IzE4MTgxODtzdHJva2Utd2lkdGg6MC41OyIvPjxwYXRoIGQ9Ik0yMiwyMS41IEwyMiw0OC41IE05LDI5LjUgTDM1LDI5LjUgTTIyLDQ4LjUgTDksNjMuNSBNMjIsNDguNSBMMzUsNjMuNSAiIGZpbGw9Im5vbmUiIHN0eWxlPSJzdHJva2U6IzE4MTgxODtzdHJva2Utd2lkdGg6MC41OyIvPjx0ZXh0IGZpbGw9IiMwMDAwMDAiIGZvbnQtZmFtaWx5PSJzYW5zLXNlcmlmIiBmb250LXNpemU9IjE0IiBsZW5ndGhBZGp1c3Q9InNwYWNpbmciIHRleHRMZW5ndGg9IjI4IiB4PSI1IiB5PSIyNjQuNzg5MSI+VXNlcjwvdGV4dD48ZWxsaXBzZSBjeD0iMjIiIGN5PSIyNzUuMDM5MSIgZmlsbD0iI0UyRTJGMCIgcng9IjgiIHJ5PSI4IiBzdHlsZT0ic3Ryb2tlOiMxODE4MTg7c3Ryb2tlLXdpZHRoOjAuNTsiLz48cGF0aCBkPSJNMjIsMjgzLjAzOTEgTDIyLDMxMC4wMzkxIE05LDI5MS4wMzkxIEwzNSwyOTEuMDM5MSBNMjIsMzEwLjAzOTEgTDksMzI1LjAzOTEgTTIyLDMxMC4wMzkxIEwzNSwzMjUuMDM5MSAiIGZpbGw9Im5vbmUiIHN0eWxlPSJzdHJva2U6IzE4MTgxODtzdHJva2Utd2lkdGg6MC41OyIvPjxyZWN0IGZpbGw9IiNFMkUyRjAiIGhlaWdodD0iNDMuOTY4OCIgcng9IjIuNSIgcnk9IjIuNSIgc3R5bGU9InN0cm9rZTojMTgxODE4O3N0cm9rZS13aWR0aDowLjU7IiB3aWR0aD0iMTA4IiB4PSIxMTQiIHk9IjM1LjAxNTYiLz48dGV4dCBmaWxsPSIjMDAwMDAwIiBmb250LWZhbWlseT0ic2Fucy1zZXJpZiIgZm9udC1zaXplPSIxNCIgbGVuZ3RoQWRqdXN0PSJzcGFjaW5nIiB0ZXh0TGVuZ3RoPSI4NCIgeD0iMTI2IiB5PSI1NS4yNSI+V2ViIEZyb250ZW5kPC90ZXh0Pjx0ZXh0IGZpbGw9IiMwMDAwMDAiIGZvbnQtZmFtaWx5PSJzYW5zLXNlcmlmIiBmb250LXNpemU9IjE0IiBsZW5ndGhBZGp1c3Q9InNwYWNpbmciIHRleHRMZW5ndGg9Ijk0IiB4PSIxMjEiIHk9IjcwLjIzNDQiPihBV1MgQW1wbGlmeSk8L3RleHQ+PHJlY3QgZmlsbD0iI0UyRTJGMCIgaGVpZ2h0PSI0My45Njg4IiByeD0iMi41IiByeT0iMi41IiBzdHlsZT0ic3Ryb2tlOiMxODE4MTg7c3Ryb2tlLXdpZHRoOjAuNTsiIHdpZHRoPSIxMDgiIHg9IjExNCIgeT0iMjUxLjU1NDciLz48dGV4dCBmaWxsPSIjMDAwMDAwIiBmb250LWZhbWlseT0ic2Fucy1zZXJpZiIgZm9udC1zaXplPSIxNCIgbGVuZ3RoQWRqdXN0PSJzcGFjaW5nIiB0ZXh0TGVuZ3RoPSI4NCIgeD0iMTI2IiB5PSIyNzEuNzg5MSI+V2ViIEZyb250ZW5kPC90ZXh0Pjx0ZXh0IGZpbGw9IiMwMDAwMDAiIGZvbnQtZmFtaWx5PSJzYW5zLXNlcmlmIiBmb250LXNpemU9IjE0IiBsZW5ndGhBZGp1c3Q9InNwYWNpbmciIHRleHRMZW5ndGg9Ijk0IiB4PSIxMjEiIHk9IjI4Ni43NzM0Ij4oQVdTIEFtcGxpZnkpPC90ZXh0PjxyZWN0IGZpbGw9IiNFMkUyRjAiIGhlaWdodD0iNDMuOTY4OCIgcng9IjIuNSIgcnk9IjIuNSIgc3R5bGU9InN0cm9rZTojMTgxODE4O3N0cm9rZS13aWR0aDowLjU7IiB3aWR0aD0iOTIiIHg9IjI3OSIgeT0iMzUuMDE1NiIvPjx0ZXh0IGZpbGw9IiMwMDAwMDAiIGZvbnQtZmFtaWx5PSJzYW5zLXNlcmlmIiBmb250LXNpemU9IjE0IiBsZW5ndGhBZGp1c3Q9InNwYWNpbmciIHRleHRMZW5ndGg9Ijc4IiB4PSIyODYiIHk9IjU1LjI1Ij5BUEkgR2F0ZXdheTwvdGV4dD48dGV4dCBmaWxsPSIjMDAwMDAwIiBmb250LWZhbWlseT0ic2Fucy1zZXJpZiIgZm9udC1zaXplPSIxNCIgbGVuZ3RoQWRqdXN0PSJzcGFjaW5nIiB0ZXh0TGVuZ3RoPSI2NSIgeD0iMjkyLjUiIHk9IjcwLjIzNDQiPihGYXN0QVBJKTwvdGV4dD48cmVjdCBmaWxsPSIjRTJFMkYwIiBoZWlnaHQ9IjQzLjk2ODgiIHJ4PSIyLjUiIHJ5PSIyLjUiIHN0eWxlPSJzdHJva2U6IzE4MTgxODtzdHJva2Utd2lkdGg6MC41OyIgd2lkdGg9IjkyIiB4PSIyNzkiIHk9IjI1MS41NTQ3Ii8+PHRleHQgZmlsbD0iIzAwMDAwMCIgZm9udC1mYW1pbHk9InNhbnMtc2VyaWYiIGZvbnQtc2l6ZT0iMTQiIGxlbmd0aEFkanVzdD0ic3BhY2luZyIgdGV4dExlbmd0aD0iNzgiIHg9IjI4NiIgeT0iMjcxLjc4OTEiPkFQSSBHYXRld2F5PC90ZXh0Pjx0ZXh0IGZpbGw9IiMwMDAwMDAiIGZvbnQtZmFtaWx5PSJzYW5zLXNlcmlmIiBmb250LXNpemU9IjE0IiBsZW5ndGhBZGp1c3Q9InNwYWNpbmciIHRleHRMZW5ndGg9IjY1IiB4PSIyOTIuNSIgeT0iMjg2Ljc3MzQiPihGYXN0QVBJKTwvdGV4dD48cmVjdCBmaWxsPSIjRTJFMkYwIiBoZWlnaHQ9IjQzLjk2ODgiIHJ4PSIyLjUiIHJ5PSIyLjUiIHN0eWxlPSJzdHJva2U6IzE4MTgxODtzdHJva2Utd2lkdGg6MC41OyIgd2lkdGg9Ijk4IiB4PSI0NzYiIHk9IjM1LjAxNTYiLz48dGV4dCBmaWxsPSIjMDAwMDAwIiBmb250LWZhbWlseT0ic2Fucy1zZXJpZiIgZm9udC1zaXplPSIxNCIgbGVuZ3RoQWRqdXN0PSJzcGFjaW5nIiB0ZXh0TGVuZ3RoPSI4NCIgeD0iNDgzIiB5PSI1NS4yNSI+S2Fma2EgQnJva2VyPC90ZXh0Pjx0ZXh0IGZpbGw9IiMwMDAwMDAiIGZvbnQtZmFtaWx5PSJzYW5zLXNlcmlmIiBmb250LXNpemU9IjE0IiBsZW5ndGhBZGp1c3Q9InNwYWNpbmciIHRleHRMZW5ndGg9IjY1IiB4PSI0OTIuNSIgeT0iNzAuMjM0NCI+KEFXUyBNU0spPC90ZXh0PjxyZWN0IGZpbGw9IiNFMkUyRjAiIGhlaWdodD0iNDMuOTY4OCIgcng9IjIuNSIgcnk9IjIuNSIgc3R5bGU9InN0cm9rZTojMTgxODE4O3N0cm9rZS13aWR0aDowLjU7IiB3aWR0aD0iOTgiIHg9IjQ3NiIgeT0iMjUxLjU1NDciLz48dGV4dCBmaWxsPSIjMDAwMDAwIiBmb250LWZhbWlseT0ic2Fucy1zZXJpZiIgZm9udC1zaXplPSIxNCIgbGVuZ3RoQWRqdXN0PSJzcGFjaW5nIiB0ZXh0TGVuZ3RoPSI4NCIgeD0iNDgzIiB5PSIyNzEuNzg5MSI+S2Fma2EgQnJva2VyPC90ZXh0Pjx0ZXh0IGZpbGw9IiMwMDAwMDAiIGZvbnQtZmFtaWx5PSJzYW5zLXNlcmlmIiBmb250LXNpemU9IjE0IiBsZW5ndGhBZGp1c3Q9InNwYWNpbmciIHRleHRMZW5ndGg9IjY1IiB4PSI0OTIuNSIgeT0iMjg2Ljc3MzQiPihBV1MgTVNLKTwvdGV4dD48cmVjdCBmaWxsPSIjRTJFMkYwIiBoZWlnaHQ9IjQzLjk2ODgiIHJ4PSIyLjUiIHJ5PSIyLjUiIHN0eWxlPSJzdHJva2U6IzE4MTgxODtzdHJva2Utd2lkdGg6MC41OyIgd2lkdGg9IjE2OCIgeD0iNjYwIiB5PSIzNS4wMTU2Ii8+PHRleHQgZmlsbD0iIzAwMDAwMCIgZm9udC1mYW1pbHk9InNhbnMtc2VyaWYiIGZvbnQtc2l6ZT0iMTQiIGxlbmd0aEFkanVzdD0ic3BhY2luZyIgdGV4dExlbmd0aD0iMTU0IiB4PSI2NjciIHk9IjU1LjI1Ij5GaWxlIEluZ2VzdGlvbiBTZXJ2aWNlPC90ZXh0Pjx0ZXh0IGZpbGw9IiMwMDAwMDAiIGZvbnQtZmFtaWx5PSJzYW5zLXNlcmlmIiBmb250LXNpemU9IjE0IiBsZW5ndGhBZGp1c3Q9InNwYWNpbmciIHRleHRMZW5ndGg9IjkzIiB4PSI2OTcuNSIgeT0iNzAuMjM0NCI+KEFwYWNoZSBOaUZpKTwvdGV4dD48cmVjdCBmaWxsPSIjRTJFMkYwIiBoZWlnaHQ9IjQzLjk2ODgiIHJ4PSIyLjUiIHJ5PSIyLjUiIHN0eWxlPSJzdHJva2U6IzE4MTgxODtzdHJva2Utd2lkdGg6MC41OyIgd2lkdGg9IjE2OCIgeD0iNjYwIiB5PSIyNTEuNTU0NyIvPjx0ZXh0IGZpbGw9IiMwMDAwMDAiIGZvbnQtZmFtaWx5PSJzYW5zLXNlcmlmIiBmb250LXNpemU9IjE0IiBsZW5ndGhBZGp1c3Q9InNwYWNpbmciIHRleHRMZW5ndGg9IjE1NCIgeD0iNjY3IiB5PSIyNzEuNzg5MSI+RmlsZSBJbmdlc3Rpb24gU2VydmljZTwvdGV4dD48dGV4dCBmaWxsPSIjMDAwMDAwIiBmb250LWZhbWlseT0ic2Fucy1zZXJpZiIgZm9udC1zaXplPSIxNCIgbGVuZ3RoQWRqdXN0PSJzcGFjaW5nIiB0ZXh0TGVuZ3RoPSI5MyIgeD0iNjk3LjUiIHk9IjI4Ni43NzM0Ij4oQXBhY2hlIE5pRmkpPC90ZXh0Pjxwb2x5Z29uIGZpbGw9IiMxODE4MTgiIHBvaW50cz0iMTU2LDEwNS44OTg0LDE2NiwxMDkuODk4NCwxNTYsMTEzLjg5ODQsMTYwLDEwOS44OTg0IiBzdHlsZT0ic3Ryb2tlOiMxODE4MTg7c3Ryb2tlLXdpZHRoOjEuMDsiLz48bGluZSBzdHlsZT0ic3Ryb2tlOiMxODE4MTg7c3Ryb2tlLXdpZHRoOjEuMDsiIHgxPSIyMiIgeDI9IjE2MiIgeTE9IjEwOS44OTg0IiB5Mj0iMTA5Ljg5ODQiLz48dGV4dCBmaWxsPSIjMDAwMDAwIiBmb250LWZhbWlseT0ic2Fucy1zZXJpZiIgZm9udC1zaXplPSIxMyIgbGVuZ3RoQWRqdXN0PSJzcGFjaW5nIiB0ZXh0TGVuZ3RoPSIxMjIiIHg9IjI5IiB5PSIxMDYuMjczNCI+Q2gmIzc4ODU7biAmYW1wOyB1cGxvYWQgZmlsZTwvdGV4dD48cG9seWdvbiBmaWxsPSIjMTgxODE4IiBwb2ludHM9IjMxMywxMzMuODEyNSwzMjMsMTM3LjgxMjUsMzEzLDE0MS44MTI1LDMxNywxMzcuODEyNSIgc3R5bGU9InN0cm9rZTojMTgxODE4O3N0cm9rZS13aWR0aDoxLjA7Ii8+PGxpbmUgc3R5bGU9InN0cm9rZTojMTgxODE4O3N0cm9rZS13aWR0aDoxLjA7IiB4MT0iMTY4IiB4Mj0iMzE5IiB5MT0iMTM3LjgxMjUiIHkyPSIxMzcuODEyNSIvPjx0ZXh0IGZpbGw9IiMwMDAwMDAiIGZvbnQtZmFtaWx5PSJzYW5zLXNlcmlmIiBmb250LXNpemU9IjEzIiBsZW5ndGhBZGp1c3Q9InNwYWNpbmciIHRleHRMZW5ndGg9IjEzMyIgeD0iMTc1IiB5PSIxMzQuMTg3NSI+RyYjNzkxNztpIGZpbGUgdiYjMjI0OyBtZXRhZGF0YTwvdGV4dD48cG9seWdvbiBmaWxsPSIjMTgxODE4IiBwb2ludHM9IjUxMywxNjEuNzI2Niw1MjMsMTY1LjcyNjYsNTEzLDE2OS43MjY2LDUxNywxNjUuNzI2NiIgc3R5bGU9InN0cm9rZTojMTgxODE4O3N0cm9rZS13aWR0aDoxLjA7Ii8+PGxpbmUgc3R5bGU9InN0cm9rZTojMTgxODE4O3N0cm9rZS13aWR0aDoxLjA7IiB4MT0iMzI1IiB4Mj0iNTE5IiB5MT0iMTY1LjcyNjYiIHkyPSIxNjUuNzI2NiIvPjx0ZXh0IGZpbGw9IiMwMDAwMDAiIGZvbnQtZmFtaWx5PSJzYW5zLXNlcmlmIiBmb250LXNpemU9IjEzIiBsZW5ndGhBZGp1c3Q9InNwYWNpbmciIHRleHRMZW5ndGg9IjE3NiIgeD0iMzMyIiB5PSIxNjIuMTAxNiI+JiMyNzI7JiM3ODQ5O3kgdGgmIzI0NDtuZyAmIzI3MztpJiM3ODc5O3AgZmlsZSB1cGxvYWQ8L3RleHQ+PHBvbHlnb24gZmlsbD0iIzE4MTgxOCIgcG9pbnRzPSI3MzIsMTg5LjY0MDYsNzQyLDE5My42NDA2LDczMiwxOTcuNjQwNiw3MzYsMTkzLjY0MDYiIHN0eWxlPSJzdHJva2U6IzE4MTgxODtzdHJva2Utd2lkdGg6MS4wOyIvPjxsaW5lIHN0eWxlPSJzdHJva2U6IzE4MTgxODtzdHJva2Utd2lkdGg6MS4wOyIgeDE9IjUyNSIgeDI9IjczOCIgeTE9IjE5My42NDA2IiB5Mj0iMTkzLjY0MDYiLz48dGV4dCBmaWxsPSIjMDAwMDAwIiBmb250LWZhbWlseT0ic2Fucy1zZXJpZiIgZm9udC1zaXplPSIxMyIgbGVuZ3RoQWRqdXN0PSJzcGFjaW5nIiB0ZXh0TGVuZ3RoPSIxOTUiIHg9IjUzMiIgeT0iMTkwLjAxNTYiPiYjMjcyOyYjNzg0OTt5IHRoJiMyNDQ7bmcgJiMyNzM7aSYjNzg3OTtwIHQmIzc4OTk7aSB4JiM3OTE3OyBsJiMyNTM7IGZpbGU8L3RleHQ+PGxpbmUgc3R5bGU9InN0cm9rZTojMTgxODE4O3N0cm9rZS13aWR0aDoxLjA7IiB4MT0iNzQ0IiB4Mj0iNzg2IiB5MT0iMjIxLjU1NDciIHkyPSIyMjEuNTU0NyIvPjxsaW5lIHN0eWxlPSJzdHJva2U6IzE4MTgxODtzdHJva2Utd2lkdGg6MS4wOyIgeDE9Ijc4NiIgeDI9Ijc4NiIgeTE9IjIyMS41NTQ3IiB5Mj0iMjM0LjU1NDciLz48bGluZSBzdHlsZT0ic3Ryb2tlOiMxODE4MTg7c3Ryb2tlLXdpZHRoOjEuMDsiIHgxPSI3NDUiIHgyPSI3ODYiIHkxPSIyMzQuNTU0NyIgeTI9IjIzNC41NTQ3Ii8+PHBvbHlnb24gZmlsbD0iIzE4MTgxOCIgcG9pbnRzPSI3NTUsMjMwLjU1NDcsNzQ1LDIzNC41NTQ3LDc1NSwyMzguNTU0Nyw3NTEsMjM0LjU1NDciIHN0eWxlPSJzdHJva2U6IzE4MTgxODtzdHJva2Utd2lkdGg6MS4wOyIvPjx0ZXh0IGZpbGw9IiMwMDAwMDAiIGZvbnQtZmFtaWx5PSJzYW5zLXNlcmlmIiBmb250LXNpemU9IjEzIiBsZW5ndGhBZGp1c3Q9InNwYWNpbmciIHRleHRMZW5ndGg9IjE0NiIgeD0iNzUxIiB5PSIyMTcuOTI5NyI+WCYjMjI1O2MgdGgmIzc5MjE7YyBmaWxlLCBsJiM0MzI7dSB0JiM3ODQxO208L3RleHQ+PCEtLVNSQz1bVE8tbklpSDA1NE54VkNMYjJyN0c3elgyWUM4aU9MNjQ4QjZtVUlRcGNzNkpJUFpDaGtPQmgwSWpSVHBJR2IybXNjMkxuVl84ZF9ZSTRNNEJrLTZ6U3p4U0l4NGozMnVoUVJvSVo1TW5BYWJSWjI5djBzNEFSUUxFaGxNLTd1Tm15cDlKaV9mVzFBZUdZTHRVbG1XbThJamxnTVBTSzZMdnViMS14QjlKY1lxODl3UE9JRkR4LW9vU0VkWk94VTkyUEhBMWRpbEFnYThaYjZRYk9qY0I5U01mbkJhSW9pYVkyM3NseHVBWk9xdXVuY2RRREd5UVVyWU1NSzQ5UGRwQVlxSV92YkhaSkJoY0pHckpoRGVOdkQ5SUdmUXlsV3FwR3ZXbmplX1R2aE02SlRqRkZTVnNJTk5EVlVhaVR6VHBaVFpXMUZfbmpja1U1VXh1SHNKamJ1bDItOXpyclF2WlRoaGM4bndNWHlZLXR2VWlSVFJ2M20wMF0tLT48L2c+PC9zdmc+;" vertex="1" parent="1">
            <mxGeometry x="-350" y="1320" width="904" height="332" as="geometry" />
          </mxCell>
        </UserObject>
        <mxCell id="pHtEFcCU99gmoeRJndIN-8" value="&lt;b&gt;Sequence Diagram 2: Phân loại và Định tuyến File&lt;/b&gt;" style="text;html=1;align=center;verticalAlign=middle;resizable=0;points=[];autosize=1;strokeColor=none;fillColor=none;" vertex="1" parent="1">
          <mxGeometry x="-400" y="1740" width="310" height="30" as="geometry" />
        </mxCell>
        <UserObject label="" plantUmlData="{&#xa;  &quot;data&quot;: &quot;@startuml\nparticipant \&quot;File Ingestion Service\\n(Apache NiFi)\&quot; as FIS\nparticipant \&quot;Document Processing Service\&quot; as DPS\n\nFIS -&gt; FIS: Phân tích định dạng file (doc, pdf, image,...)\nalt File dạng văn bản\n    FIS -&gt; DPS: Chuyển file văn bản để trích xuất nội dung\nelse File dạng hình ảnh/video\n    FIS -&gt; DPS: Gửi file cho module OCR (Tesseract)\nend\nDPS -&gt; DPS: Trích xuất nội dung và metadata\n@enduml\n&quot;,&#xa;  &quot;format&quot;: &quot;svg&quot;&#xa;}" id="pHtEFcCU99gmoeRJndIN-9">
          <mxCell style="shape=image;noLabel=1;verticalAlign=top;aspect=fixed;imageAspect=0;image=data:image/svg+xml,PD94bWwgdmVyc2lvbj0iMS4wIiBlbmNvZGluZz0idXMtYXNjaWkiIHN0YW5kYWxvbmU9Im5vIj8+PHN2ZyB4bWxucz0iaHR0cDovL3d3dy53My5vcmcvMjAwMC9zdmciIHhtbG5zOnhsaW5rPSJodHRwOi8vd3d3LnczLm9yZy8xOTk5L3hsaW5rIiBjb250ZW50U3R5bGVUeXBlPSJ0ZXh0L2NzcyIgaGVpZ2h0PSIzMDBweCIgcHJlc2VydmVBc3BlY3RSYXRpbz0ibm9uZSIgc3R5bGU9IndpZHRoOjY0N3B4O2hlaWdodDozMDBweDtiYWNrZ3JvdW5kOiNGRkZGRkY7IiB2ZXJzaW9uPSIxLjEiIHZpZXdCb3g9IjAgMCA2NDcgMzAwIiB3aWR0aD0iNjQ3cHgiIHpvb21BbmRQYW49Im1hZ25pZnkiPjxkZWZzLz48Zz48cmVjdCBmaWxsPSJub25lIiBoZWlnaHQ9Ijg1LjUxNTYiIHN0eWxlPSJzdHJva2U6IzAwMDAwMDtzdHJva2Utd2lkdGg6MS41OyIgd2lkdGg9IjUyNSIgeD0iMTAiIHk9IjEwNy44ODI4Ii8+PGxpbmUgc3R5bGU9InN0cm9rZTojMTgxODE4O3N0cm9rZS13aWR0aDowLjU7c3Ryb2tlLWRhc2hhcnJheTo1LjAsNS4wOyIgeDE9IjEwNCIgeDI9IjEwNCIgeTE9IjQ5Ljk2ODgiIHkyPSIyNTEuMzEyNSIvPjxsaW5lIHN0eWxlPSJzdHJva2U6IzE4MTgxODtzdHJva2Utd2lkdGg6MC41O3N0cm9rZS1kYXNoYXJyYXk6NS4wLDUuMDsiIHgxPSI0MjMiIHgyPSI0MjMiIHkxPSI0OS45Njg4IiB5Mj0iMjUxLjMxMjUiLz48cmVjdCBmaWxsPSIjRTJFMkYwIiBoZWlnaHQ9IjQzLjk2ODgiIHJ4PSIyLjUiIHJ5PSIyLjUiIHN0eWxlPSJzdHJva2U6IzE4MTgxODtzdHJva2Utd2lkdGg6MC41OyIgd2lkdGg9IjE2OCIgeD0iMjAiIHk9IjUiLz48dGV4dCBmaWxsPSIjMDAwMDAwIiBmb250LWZhbWlseT0ic2Fucy1zZXJpZiIgZm9udC1zaXplPSIxNCIgbGVuZ3RoQWRqdXN0PSJzcGFjaW5nIiB0ZXh0TGVuZ3RoPSIxNTQiIHg9IjI3IiB5PSIyNS4yMzQ0Ij5GaWxlIEluZ2VzdGlvbiBTZXJ2aWNlPC90ZXh0Pjx0ZXh0IGZpbGw9IiMwMDAwMDAiIGZvbnQtZmFtaWx5PSJzYW5zLXNlcmlmIiBmb250LXNpemU9IjE0IiBsZW5ndGhBZGp1c3Q9InNwYWNpbmciIHRleHRMZW5ndGg9IjkzIiB4PSI1Ny41IiB5PSI0MC4yMTg4Ij4oQXBhY2hlIE5pRmkpPC90ZXh0PjxyZWN0IGZpbGw9IiNFMkUyRjAiIGhlaWdodD0iNDMuOTY4OCIgcng9IjIuNSIgcnk9IjIuNSIgc3R5bGU9InN0cm9rZTojMTgxODE4O3N0cm9rZS13aWR0aDowLjU7IiB3aWR0aD0iMTY4IiB4PSIyMCIgeT0iMjUwLjMxMjUiLz48dGV4dCBmaWxsPSIjMDAwMDAwIiBmb250LWZhbWlseT0ic2Fucy1zZXJpZiIgZm9udC1zaXplPSIxNCIgbGVuZ3RoQWRqdXN0PSJzcGFjaW5nIiB0ZXh0TGVuZ3RoPSIxNTQiIHg9IjI3IiB5PSIyNzAuNTQ2OSI+RmlsZSBJbmdlc3Rpb24gU2VydmljZTwvdGV4dD48dGV4dCBmaWxsPSIjMDAwMDAwIiBmb250LWZhbWlseT0ic2Fucy1zZXJpZiIgZm9udC1zaXplPSIxNCIgbGVuZ3RoQWRqdXN0PSJzcGFjaW5nIiB0ZXh0TGVuZ3RoPSI5MyIgeD0iNTcuNSIgeT0iMjg1LjUzMTMiPihBcGFjaGUgTmlGaSk8L3RleHQ+PHJlY3QgZmlsbD0iI0UyRTJGMCIgaGVpZ2h0PSIyOC45ODQ0IiByeD0iMi41IiByeT0iMi41IiBzdHlsZT0ic3Ryb2tlOiMxODE4MTg7c3Ryb2tlLXdpZHRoOjAuNTsiIHdpZHRoPSIyMDQiIHg9IjMyMSIgeT0iMTkuOTg0NCIvPjx0ZXh0IGZpbGw9IiMwMDAwMDAiIGZvbnQtZmFtaWx5PSJzYW5zLXNlcmlmIiBmb250LXNpemU9IjE0IiBsZW5ndGhBZGp1c3Q9InNwYWNpbmciIHRleHRMZW5ndGg9IjE5MCIgeD0iMzI4IiB5PSI0MC4yMTg4Ij5Eb2N1bWVudCBQcm9jZXNzaW5nIFNlcnZpY2U8L3RleHQ+PHJlY3QgZmlsbD0iI0UyRTJGMCIgaGVpZ2h0PSIyOC45ODQ0IiByeD0iMi41IiByeT0iMi41IiBzdHlsZT0ic3Ryb2tlOiMxODE4MTg7c3Ryb2tlLXdpZHRoOjAuNTsiIHdpZHRoPSIyMDQiIHg9IjMyMSIgeT0iMjUwLjMxMjUiLz48dGV4dCBmaWxsPSIjMDAwMDAwIiBmb250LWZhbWlseT0ic2Fucy1zZXJpZiIgZm9udC1zaXplPSIxNCIgbGVuZ3RoQWRqdXN0PSJzcGFjaW5nIiB0ZXh0TGVuZ3RoPSIxOTAiIHg9IjMyOCIgeT0iMjcwLjU0NjkiPkRvY3VtZW50IFByb2Nlc3NpbmcgU2VydmljZTwvdGV4dD48bGluZSBzdHlsZT0ic3Ryb2tlOiMxODE4MTg7c3Ryb2tlLXdpZHRoOjEuMDsiIHgxPSIxMDQiIHgyPSIxNDYiIHkxPSI3OS44ODI4IiB5Mj0iNzkuODgyOCIvPjxsaW5lIHN0eWxlPSJzdHJva2U6IzE4MTgxODtzdHJva2Utd2lkdGg6MS4wOyIgeDE9IjE0NiIgeDI9IjE0NiIgeTE9Ijc5Ljg4MjgiIHkyPSI5Mi44ODI4Ii8+PGxpbmUgc3R5bGU9InN0cm9rZTojMTgxODE4O3N0cm9rZS13aWR0aDoxLjA7IiB4MT0iMTA1IiB4Mj0iMTQ2IiB5MT0iOTIuODgyOCIgeTI9IjkyLjg4MjgiLz48cG9seWdvbiBmaWxsPSIjMTgxODE4IiBwb2ludHM9IjExNSw4OC44ODI4LDEwNSw5Mi44ODI4LDExNSw5Ni44ODI4LDExMSw5Mi44ODI4IiBzdHlsZT0ic3Ryb2tlOiMxODE4MTg7c3Ryb2tlLXdpZHRoOjEuMDsiLz48dGV4dCBmaWxsPSIjMDAwMDAwIiBmb250LWZhbWlseT0ic2Fucy1zZXJpZiIgZm9udC1zaXplPSIxMyIgbGVuZ3RoQWRqdXN0PSJzcGFjaW5nIiB0ZXh0TGVuZ3RoPSIzMDUiIHg9IjExMSIgeT0iNzYuMjU3OCI+UGgmIzIyNjtuIHQmIzIzNztjaCAmIzI3MzsmIzc4ODM7bmggZCYjNzg0MTtuZyBmaWxlIChkb2MsIHBkZiwgaW1hZ2UsLi4uKTwvdGV4dD48cGF0aCBkPSJNMTAsMTA3Ljg4MjggTDc0LDEwNy44ODI4IEw3NCwxMTMuNzk2OSBMNjQsMTIzLjc5NjkgTDEwLDEyMy43OTY5IEwxMCwxMDcuODgyOCAiIGZpbGw9IiNFRUVFRUUiIHN0eWxlPSJzdHJva2U6IzAwMDAwMDtzdHJva2Utd2lkdGg6MS41OyIvPjxyZWN0IGZpbGw9Im5vbmUiIGhlaWdodD0iODUuNTE1NiIgc3R5bGU9InN0cm9rZTojMDAwMDAwO3N0cm9rZS13aWR0aDoxLjU7IiB3aWR0aD0iNTI1IiB4PSIxMCIgeT0iMTA3Ljg4MjgiLz48dGV4dCBmaWxsPSIjMDAwMDAwIiBmb250LWZhbWlseT0ic2Fucy1zZXJpZiIgZm9udC1zaXplPSIxMyIgZm9udC13ZWlnaHQ9ImJvbGQiIGxlbmd0aEFkanVzdD0ic3BhY2luZyIgdGV4dExlbmd0aD0iMTkiIHg9IjI1IiB5PSIxMjEuMTcxOSI+YWx0PC90ZXh0Pjx0ZXh0IGZpbGw9IiMwMDAwMDAiIGZvbnQtZmFtaWx5PSJzYW5zLXNlcmlmIiBmb250LXNpemU9IjExIiBmb250LXdlaWdodD0iYm9sZCIgbGVuZ3RoQWRqdXN0PSJzcGFjaW5nIiB0ZXh0TGVuZ3RoPSIxMTQiIHg9Ijg5IiB5PSIxMjAuMjgxMyI+W0ZpbGUgZCYjNzg0MTtuZyB2JiMyNTk7biBiJiM3ODQzO25dPC90ZXh0Pjxwb2x5Z29uIGZpbGw9IiMxODE4MTgiIHBvaW50cz0iNDExLDEzOS43MTA5LDQyMSwxNDMuNzEwOSw0MTEsMTQ3LjcxMDksNDE1LDE0My43MTA5IiBzdHlsZT0ic3Ryb2tlOiMxODE4MTg7c3Ryb2tlLXdpZHRoOjEuMDsiLz48bGluZSBzdHlsZT0ic3Ryb2tlOiMxODE4MTg7c3Ryb2tlLXdpZHRoOjEuMDsiIHgxPSIxMDQiIHgyPSI0MTciIHkxPSIxNDMuNzEwOSIgeTI9IjE0My43MTA5Ii8+PHRleHQgZmlsbD0iIzAwMDAwMCIgZm9udC1mYW1pbHk9InNhbnMtc2VyaWYiIGZvbnQtc2l6ZT0iMTMiIGxlbmd0aEFkanVzdD0ic3BhY2luZyIgdGV4dExlbmd0aD0iMjg3IiB4PSIxMTEiIHk9IjE0MC4wODU5Ij5DaHV5JiM3ODc1O24gZmlsZSB2JiMyNTk7biBiJiM3ODQzO24gJiMyNzM7JiM3ODc1OyB0ciYjMjM3O2NoIHh1JiM3ODQ1O3QgbiYjNzg5NztpIGR1bmc8L3RleHQ+PGxpbmUgc3R5bGU9InN0cm9rZTojMDAwMDAwO3N0cm9rZS13aWR0aDoxLjA7c3Ryb2tlLWRhc2hhcnJheToyLjAsMi4wOyIgeDE9IjEwIiB4Mj0iNTM1IiB5MT0iMTUyLjcxMDkiIHkyPSIxNTIuNzEwOSIvPjx0ZXh0IGZpbGw9IiMwMDAwMDAiIGZvbnQtZmFtaWx5PSJzYW5zLXNlcmlmIiBmb250LXNpemU9IjExIiBmb250LXdlaWdodD0iYm9sZCIgbGVuZ3RoQWRqdXN0PSJzcGFjaW5nIiB0ZXh0TGVuZ3RoPSIxNTYiIHg9IjE1IiB5PSIxNjMuMTA5NCI+W0ZpbGUgZCYjNzg0MTtuZyBoJiMyMzY7bmggJiM3ODQzO25oL3ZpZGVvXTwvdGV4dD48cG9seWdvbiBmaWxsPSIjMTgxODE4IiBwb2ludHM9IjQxMSwxODEuMzk4NCw0MjEsMTg1LjM5ODQsNDExLDE4OS4zOTg0LDQxNSwxODUuMzk4NCIgc3R5bGU9InN0cm9rZTojMTgxODE4O3N0cm9rZS13aWR0aDoxLjA7Ii8+PGxpbmUgc3R5bGU9InN0cm9rZTojMTgxODE4O3N0cm9rZS13aWR0aDoxLjA7IiB4MT0iMTA0IiB4Mj0iNDE3IiB5MT0iMTg1LjM5ODQiIHkyPSIxODUuMzk4NCIvPjx0ZXh0IGZpbGw9IiMwMDAwMDAiIGZvbnQtZmFtaWx5PSJzYW5zLXNlcmlmIiBmb250LXNpemU9IjEzIiBsZW5ndGhBZGp1c3Q9InNwYWNpbmciIHRleHRMZW5ndGg9IjIzNSIgeD0iMTExIiB5PSIxODEuNzczNCI+RyYjNzkxNztpIGZpbGUgY2hvIG1vZHVsZSBPQ1IgKFRlc3NlcmFjdCk8L3RleHQ+PGxpbmUgc3R5bGU9InN0cm9rZTojMTgxODE4O3N0cm9rZS13aWR0aDoxLjA7IiB4MT0iNDIzIiB4Mj0iNDY1IiB5MT0iMjIwLjMxMjUiIHkyPSIyMjAuMzEyNSIvPjxsaW5lIHN0eWxlPSJzdHJva2U6IzE4MTgxODtzdHJva2Utd2lkdGg6MS4wOyIgeDE9IjQ2NSIgeDI9IjQ2NSIgeTE9IjIyMC4zMTI1IiB5Mj0iMjMzLjMxMjUiLz48bGluZSBzdHlsZT0ic3Ryb2tlOiMxODE4MTg7c3Ryb2tlLXdpZHRoOjEuMDsiIHgxPSI0MjQiIHgyPSI0NjUiIHkxPSIyMzMuMzEyNSIgeTI9IjIzMy4zMTI1Ii8+PHBvbHlnb24gZmlsbD0iIzE4MTgxOCIgcG9pbnRzPSI0MzQsMjI5LjMxMjUsNDI0LDIzMy4zMTI1LDQzNCwyMzcuMzEyNSw0MzAsMjMzLjMxMjUiIHN0eWxlPSJzdHJva2U6IzE4MTgxODtzdHJva2Utd2lkdGg6MS4wOyIvPjx0ZXh0IGZpbGw9IiMwMDAwMDAiIGZvbnQtZmFtaWx5PSJzYW5zLXNlcmlmIiBmb250LXNpemU9IjEzIiBsZW5ndGhBZGp1c3Q9InNwYWNpbmciIHRleHRMZW5ndGg9IjIxMCIgeD0iNDMwIiB5PSIyMTYuNjg3NSI+VHImIzIzNztjaCB4dSYjNzg0NTt0IG4mIzc4OTc7aSBkdW5nIHYmIzIyNDsgbWV0YWRhdGE8L3RleHQ+PCEtLVNSQz1bVFAyeEppQ201OFB0RnlMSGZxT0FPVS0wWDVlNVRPNjhUNkduemNiaUFKY0U0WVUya0lDSjhuaU5pVDROSUNScUhWbWNrQTdTWEYxcTlGX1YtTndUYWJUTTJycm9pWjI5VE93bWYwbmhnbXIxWWJNaDFMeEh6QkphR1k2U3dyVzc0LTBybkNrS2JKX0hYSDVEV052QUFZRW1oWkxiZF9tOEI5QUtDS18xcVNhVWRhNllYY1MyRXNvNVdqc3p3LXo4V05KVGEtVk0tbmZKUUtHOGZMbzdlMGtVT0hYNUtTMXVSYzVpVU9Zc2ttdDFqVWpVWTg1XzF1Nk5wTTJrY2JsTi0gLXpudE5UbWo2dDBMZ0Z3ZmQ3VGdtTG9fT0M2c0wzNkNBX25icUNEUnh4UjdiTjdoUFBlX2daRU5CX0w3bndYMzFINkRkd3ljNV8yVEVMbFdIS05EYzE4YWxkdTV4TndmbTZxbW9DS1FCZGFiaHkzXS0tPjwvZz48L3N2Zz4=;" vertex="1" parent="1">
            <mxGeometry x="-360" y="1800" width="647" height="300" as="geometry" />
          </mxCell>
        </UserObject>
        <mxCell id="pHtEFcCU99gmoeRJndIN-10" value="https://chatgpt.com/share/67a621ba-2ddc-8001-a22b-0cbd38889990" style="text;html=1;align=center;verticalAlign=middle;resizable=0;points=[];autosize=1;strokeColor=none;fillColor=none;" vertex="1" parent="1">
          <mxGeometry x="410" y="-140" width="390" height="30" as="geometry" />
        </mxCell>
        <mxCell id="pHtEFcCU99gmoeRJndIN-11" value="&lt;b&gt;Sequence Diagram 4: Trích Xuất Nội Dung Từ File Văn Bản&lt;/b&gt;" style="text;html=1;align=center;verticalAlign=middle;resizable=0;points=[];autosize=1;strokeColor=none;fillColor=none;" vertex="1" parent="1">
          <mxGeometry x="-415" y="2170" width="360" height="30" as="geometry" />
        </mxCell>
        <UserObject label="" plantUmlData="{&#xa;  &quot;data&quot;: &quot;@startuml\nparticipant \&quot;Document Processing Service\&quot; as DPS\nactor \&quot;Parser Engine\&quot; as Parser\n\nDPS -&gt; Parser: Gửi file (doc, pdf, …)\nParser -&gt; Parser: Phân tích cú pháp, định dạng văn bản\nParser -&gt; DPS: Trả về nội dung văn bản sạch\n@enduml\n&quot;,&#xa;  &quot;format&quot;: &quot;svg&quot;&#xa;}" id="pHtEFcCU99gmoeRJndIN-12">
          <mxCell style="shape=image;noLabel=1;verticalAlign=top;aspect=fixed;imageAspect=0;image=data:image/svg+xml,PD94bWwgdmVyc2lvbj0iMS4wIiBlbmNvZGluZz0idXMtYXNjaWkiIHN0YW5kYWxvbmU9Im5vIj8+PHN2ZyB4bWxucz0iaHR0cDovL3d3dy53My5vcmcvMjAwMC9zdmciIHhtbG5zOnhsaW5rPSJodHRwOi8vd3d3LnczLm9yZy8xOTk5L3hsaW5rIiBjb250ZW50U3R5bGVUeXBlPSJ0ZXh0L2NzcyIgaGVpZ2h0PSIyNzZweCIgcHJlc2VydmVBc3BlY3RSYXRpbz0ibm9uZSIgc3R5bGU9IndpZHRoOjU4N3B4O2hlaWdodDoyNzZweDtiYWNrZ3JvdW5kOiNGRkZGRkY7IiB2ZXJzaW9uPSIxLjEiIHZpZXdCb3g9IjAgMCA1ODcgMjc2IiB3aWR0aD0iNTg3cHgiIHpvb21BbmRQYW49Im1hZ25pZnkiPjxkZWZzLz48Zz48bGluZSBzdHlsZT0ic3Ryb2tlOiMxODE4MTg7c3Ryb2tlLXdpZHRoOjAuNTtzdHJva2UtZGFzaGFycmF5OjUuMCw1LjA7IiB4MT0iMTA3IiB4Mj0iMTA3IiB5MT0iNzkuOTg0NCIgeTI9IjE5Ni43MjY2Ii8+PGxpbmUgc3R5bGU9InN0cm9rZTojMTgxODE4O3N0cm9rZS13aWR0aDowLjU7c3Ryb2tlLWRhc2hhcnJheTo1LjAsNS4wOyIgeDE9IjMyNC41IiB4Mj0iMzI0LjUiIHkxPSI3OS45ODQ0IiB5Mj0iMTk2LjcyNjYiLz48cmVjdCBmaWxsPSIjRTJFMkYwIiBoZWlnaHQ9IjI4Ljk4NDQiIHJ4PSIyLjUiIHJ5PSIyLjUiIHN0eWxlPSJzdHJva2U6IzE4MTgxODtzdHJva2Utd2lkdGg6MC41OyIgd2lkdGg9IjIwNCIgeD0iNSIgeT0iNTAiLz48dGV4dCBmaWxsPSIjMDAwMDAwIiBmb250LWZhbWlseT0ic2Fucy1zZXJpZiIgZm9udC1zaXplPSIxNCIgbGVuZ3RoQWRqdXN0PSJzcGFjaW5nIiB0ZXh0TGVuZ3RoPSIxOTAiIHg9IjEyIiB5PSI3MC4yMzQ0Ij5Eb2N1bWVudCBQcm9jZXNzaW5nIFNlcnZpY2U8L3RleHQ+PHJlY3QgZmlsbD0iI0UyRTJGMCIgaGVpZ2h0PSIyOC45ODQ0IiByeD0iMi41IiByeT0iMi41IiBzdHlsZT0ic3Ryb2tlOiMxODE4MTg7c3Ryb2tlLXdpZHRoOjAuNTsiIHdpZHRoPSIyMDQiIHg9IjUiIHk9IjE5NS43MjY2Ii8+PHRleHQgZmlsbD0iIzAwMDAwMCIgZm9udC1mYW1pbHk9InNhbnMtc2VyaWYiIGZvbnQtc2l6ZT0iMTQiIGxlbmd0aEFkanVzdD0ic3BhY2luZyIgdGV4dExlbmd0aD0iMTkwIiB4PSIxMiIgeT0iMjE1Ljk2MDkiPkRvY3VtZW50IFByb2Nlc3NpbmcgU2VydmljZTwvdGV4dD48dGV4dCBmaWxsPSIjMDAwMDAwIiBmb250LWZhbWlseT0ic2Fucy1zZXJpZiIgZm9udC1zaXplPSIxNCIgbGVuZ3RoQWRqdXN0PSJzcGFjaW5nIiB0ZXh0TGVuZ3RoPSI5MSIgeD0iMjc2LjUiIHk9Ijc4LjIzNDQiPlBhcnNlciBFbmdpbmU8L3RleHQ+PGVsbGlwc2UgY3g9IjMyNSIgY3k9IjEzLjUiIGZpbGw9IiNFMkUyRjAiIHJ4PSI4IiByeT0iOCIgc3R5bGU9InN0cm9rZTojMTgxODE4O3N0cm9rZS13aWR0aDowLjU7Ii8+PHBhdGggZD0iTTMyNSwyMS41IEwzMjUsNDguNSBNMzEyLDI5LjUgTDMzOCwyOS41IE0zMjUsNDguNSBMMzEyLDYzLjUgTTMyNSw0OC41IEwzMzgsNjMuNSAiIGZpbGw9Im5vbmUiIHN0eWxlPSJzdHJva2U6IzE4MTgxODtzdHJva2Utd2lkdGg6MC41OyIvPjx0ZXh0IGZpbGw9IiMwMDAwMDAiIGZvbnQtZmFtaWx5PSJzYW5zLXNlcmlmIiBmb250LXNpemU9IjE0IiBsZW5ndGhBZGp1c3Q9InNwYWNpbmciIHRleHRMZW5ndGg9IjkxIiB4PSIyNzYuNSIgeT0iMjA4Ljk2MDkiPlBhcnNlciBFbmdpbmU8L3RleHQ+PGVsbGlwc2UgY3g9IjMyNSIgY3k9IjIxOS4yMTA5IiBmaWxsPSIjRTJFMkYwIiByeD0iOCIgcnk9IjgiIHN0eWxlPSJzdHJva2U6IzE4MTgxODtzdHJva2Utd2lkdGg6MC41OyIvPjxwYXRoIGQ9Ik0zMjUsMjI3LjIxMDkgTDMyNSwyNTQuMjEwOSBNMzEyLDIzNS4yMTA5IEwzMzgsMjM1LjIxMDkgTTMyNSwyNTQuMjEwOSBMMzEyLDI2OS4yMTA5IE0zMjUsMjU0LjIxMDkgTDMzOCwyNjkuMjEwOSAiIGZpbGw9Im5vbmUiIHN0eWxlPSJzdHJva2U6IzE4MTgxODtzdHJva2Utd2lkdGg6MC41OyIvPjxwb2x5Z29uIGZpbGw9IiMxODE4MTgiIHBvaW50cz0iMzEzLDEwNS44OTg0LDMyMywxMDkuODk4NCwzMTMsMTEzLjg5ODQsMzE3LDEwOS44OTg0IiBzdHlsZT0ic3Ryb2tlOiMxODE4MTg7c3Ryb2tlLXdpZHRoOjEuMDsiLz48bGluZSBzdHlsZT0ic3Ryb2tlOiMxODE4MTg7c3Ryb2tlLXdpZHRoOjEuMDsiIHgxPSIxMDciIHgyPSIzMTkiIHkxPSIxMDkuODk4NCIgeTI9IjEwOS44OTg0Ii8+PHRleHQgZmlsbD0iIzAwMDAwMCIgZm9udC1mYW1pbHk9InNhbnMtc2VyaWYiIGZvbnQtc2l6ZT0iMTMiIGxlbmd0aEFkanVzdD0ic3BhY2luZyIgdGV4dExlbmd0aD0iMTQ0IiB4PSIxMTQiIHk9IjEwNi4yNzM0Ij5HJiM3OTE3O2kgZmlsZSAoZG9jLCBwZGYsICYjODIzMDspPC90ZXh0PjxsaW5lIHN0eWxlPSJzdHJva2U6IzE4MTgxODtzdHJva2Utd2lkdGg6MS4wOyIgeDE9IjMyNSIgeDI9IjM2NyIgeTE9IjEzNy44MTI1IiB5Mj0iMTM3LjgxMjUiLz48bGluZSBzdHlsZT0ic3Ryb2tlOiMxODE4MTg7c3Ryb2tlLXdpZHRoOjEuMDsiIHgxPSIzNjciIHgyPSIzNjciIHkxPSIxMzcuODEyNSIgeTI9IjE1MC44MTI1Ii8+PGxpbmUgc3R5bGU9InN0cm9rZTojMTgxODE4O3N0cm9rZS13aWR0aDoxLjA7IiB4MT0iMzI2IiB4Mj0iMzY3IiB5MT0iMTUwLjgxMjUiIHkyPSIxNTAuODEyNSIvPjxwb2x5Z29uIGZpbGw9IiMxODE4MTgiIHBvaW50cz0iMzM2LDE0Ni44MTI1LDMyNiwxNTAuODEyNSwzMzYsMTU0LjgxMjUsMzMyLDE1MC44MTI1IiBzdHlsZT0ic3Ryb2tlOiMxODE4MTg7c3Ryb2tlLXdpZHRoOjEuMDsiLz48dGV4dCBmaWxsPSIjMDAwMDAwIiBmb250LWZhbWlseT0ic2Fucy1zZXJpZiIgZm9udC1zaXplPSIxMyIgbGVuZ3RoQWRqdXN0PSJzcGFjaW5nIiB0ZXh0TGVuZ3RoPSIyNDgiIHg9IjMzMiIgeT0iMTM0LjE4NzUiPlBoJiMyMjY7biB0JiMyMzc7Y2ggYyYjMjUwOyBwaCYjMjI1O3AsICYjMjczOyYjNzg4MztuaCBkJiM3ODQxO25nIHYmIzI1OTtuIGImIzc4NDM7bjwvdGV4dD48cG9seWdvbiBmaWxsPSIjMTgxODE4IiBwb2ludHM9IjExOCwxNzQuNzI2NiwxMDgsMTc4LjcyNjYsMTE4LDE4Mi43MjY2LDExNCwxNzguNzI2NiIgc3R5bGU9InN0cm9rZTojMTgxODE4O3N0cm9rZS13aWR0aDoxLjA7Ii8+PGxpbmUgc3R5bGU9InN0cm9rZTojMTgxODE4O3N0cm9rZS13aWR0aDoxLjA7IiB4MT0iMTEyIiB4Mj0iMzI0IiB5MT0iMTc4LjcyNjYiIHkyPSIxNzguNzI2NiIvPjx0ZXh0IGZpbGw9IiMwMDAwMDAiIGZvbnQtZmFtaWx5PSJzYW5zLXNlcmlmIiBmb250LXNpemU9IjEzIiBsZW5ndGhBZGp1c3Q9InNwYWNpbmciIHRleHRMZW5ndGg9IjE5NCIgeD0iMTI0IiB5PSIxNzUuMTAxNiI+VHImIzc4NDM7IHYmIzc4NzM7IG4mIzc4OTc7aSBkdW5nIHYmIzI1OTtuIGImIzc4NDM7biBzJiM3ODQxO2NoPC90ZXh0PjwhLS1TUkM9W0xPd24zUzhtNDROeEpGNkwyZ0ltMDBLTFkzUElNQzFTZERXSU4ybXhmMFBIS2I1STBYOFQyb0hiTUNIQ1dZS2VHZFZ0X3pFeEN5Qk1jaEdITjJFVUx4SlJvWjJiallCZmRFT0ljUklEOVhiM0VDcEpCMTlLTG5QbkFnb0o1V2lrRE5fQlJuOTUwUzlhemJrZE1GaGtnTDdlWlNHZWhvWTFvT2k0eF9yWjdGcVMwcFhMX09ySHpxekllQnc1S1Z0TDk3WVRWTlRZWFRvdHJfMUl5cGVvcmh3enlxMEhwYXduaVk1NXV4aTNzN1NOWk5wdG55QzUwd2FGXS0tPjwvZz48L3N2Zz4=;" vertex="1" parent="1">
            <mxGeometry x="-360" y="2220" width="587" height="276" as="geometry" />
          </mxCell>
        </UserObject>
        <mxCell id="pHtEFcCU99gmoeRJndIN-13" value="&lt;b&gt;Sequence Diagram 5: Gửi Nội Dung Đến AI Core&lt;/b&gt;" style="text;html=1;align=center;verticalAlign=middle;resizable=0;points=[];autosize=1;strokeColor=none;fillColor=none;" vertex="1" parent="1">
          <mxGeometry x="-415" y="2540" width="300" height="30" as="geometry" />
        </mxCell>
        <UserObject label="" plantUmlData="{&#xa;  &quot;data&quot;: &quot;@startuml\nparticipant \&quot;Document Processing Service\&quot; as DPS\nparticipant \&quot;AI Core Service\\n(GPT-4, Claude3, Gemini)\&quot; as AI\n\nDPS -&gt; AI: Gửi nội dung đã trích xuất\nAI -&gt; AI: Phân tích semantic và trích xuất thông tin chính\nAI -&gt; DPS: Trả về kết quả phân tích\n@enduml\n&quot;,&#xa;  &quot;format&quot;: &quot;svg&quot;&#xa;}" id="pHtEFcCU99gmoeRJndIN-14">
          <mxCell style="shape=image;noLabel=1;verticalAlign=top;aspect=fixed;imageAspect=0;image=data:image/svg+xml,PD94bWwgdmVyc2lvbj0iMS4wIiBlbmNvZGluZz0idXMtYXNjaWkiIHN0YW5kYWxvbmU9Im5vIj8+PHN2ZyB4bWxucz0iaHR0cDovL3d3dy53My5vcmcvMjAwMC9zdmciIHhtbG5zOnhsaW5rPSJodHRwOi8vd3d3LnczLm9yZy8xOTk5L3hsaW5rIiBjb250ZW50U3R5bGVUeXBlPSJ0ZXh0L2NzcyIgaGVpZ2h0PSIyMTVweCIgcHJlc2VydmVBc3BlY3RSYXRpbz0ibm9uZSIgc3R5bGU9IndpZHRoOjY0OXB4O2hlaWdodDoyMTVweDtiYWNrZ3JvdW5kOiNGRkZGRkY7IiB2ZXJzaW9uPSIxLjEiIHZpZXdCb3g9IjAgMCA2NDkgMjE1IiB3aWR0aD0iNjQ5cHgiIHpvb21BbmRQYW49Im1hZ25pZnkiPjxkZWZzLz48Zz48bGluZSBzdHlsZT0ic3Ryb2tlOiMxODE4MTg7c3Ryb2tlLXdpZHRoOjAuNTtzdHJva2UtZGFzaGFycmF5OjUuMCw1LjA7IiB4MT0iMTA3IiB4Mj0iMTA3IiB5MT0iNDkuOTY4OCIgeTI9IjE2Ni43MTA5Ii8+PGxpbmUgc3R5bGU9InN0cm9rZTojMTgxODE4O3N0cm9rZS13aWR0aDowLjU7c3Ryb2tlLWRhc2hhcnJheTo1LjAsNS4wOyIgeDE9IjMxMSIgeDI9IjMxMSIgeTE9IjQ5Ljk2ODgiIHkyPSIxNjYuNzEwOSIvPjxyZWN0IGZpbGw9IiNFMkUyRjAiIGhlaWdodD0iMjguOTg0NCIgcng9IjIuNSIgcnk9IjIuNSIgc3R5bGU9InN0cm9rZTojMTgxODE4O3N0cm9rZS13aWR0aDowLjU7IiB3aWR0aD0iMjA0IiB4PSI1IiB5PSIxOS45ODQ0Ii8+PHRleHQgZmlsbD0iIzAwMDAwMCIgZm9udC1mYW1pbHk9InNhbnMtc2VyaWYiIGZvbnQtc2l6ZT0iMTQiIGxlbmd0aEFkanVzdD0ic3BhY2luZyIgdGV4dExlbmd0aD0iMTkwIiB4PSIxMiIgeT0iNDAuMjE4OCI+RG9jdW1lbnQgUHJvY2Vzc2luZyBTZXJ2aWNlPC90ZXh0PjxyZWN0IGZpbGw9IiNFMkUyRjAiIGhlaWdodD0iMjguOTg0NCIgcng9IjIuNSIgcnk9IjIuNSIgc3R5bGU9InN0cm9rZTojMTgxODE4O3N0cm9rZS13aWR0aDowLjU7IiB3aWR0aD0iMjA0IiB4PSI1IiB5PSIxNjUuNzEwOSIvPjx0ZXh0IGZpbGw9IiMwMDAwMDAiIGZvbnQtZmFtaWx5PSJzYW5zLXNlcmlmIiBmb250LXNpemU9IjE0IiBsZW5ndGhBZGp1c3Q9InNwYWNpbmciIHRleHRMZW5ndGg9IjE5MCIgeD0iMTIiIHk9IjE4NS45NDUzIj5Eb2N1bWVudCBQcm9jZXNzaW5nIFNlcnZpY2U8L3RleHQ+PHJlY3QgZmlsbD0iI0UyRTJGMCIgaGVpZ2h0PSI0My45Njg4IiByeD0iMi41IiByeT0iMi41IiBzdHlsZT0ic3Ryb2tlOiMxODE4MTg7c3Ryb2tlLXdpZHRoOjAuNTsiIHdpZHRoPSIxODUiIHg9IjIxOSIgeT0iNSIvPjx0ZXh0IGZpbGw9IiMwMDAwMDAiIGZvbnQtZmFtaWx5PSJzYW5zLXNlcmlmIiBmb250LXNpemU9IjE0IiBsZW5ndGhBZGp1c3Q9InNwYWNpbmciIHRleHRMZW5ndGg9IjEwNSIgeD0iMjU5IiB5PSIyNS4yMzQ0Ij5BSSBDb3JlIFNlcnZpY2U8L3RleHQ+PHRleHQgZmlsbD0iIzAwMDAwMCIgZm9udC1mYW1pbHk9InNhbnMtc2VyaWYiIGZvbnQtc2l6ZT0iMTQiIGxlbmd0aEFkanVzdD0ic3BhY2luZyIgdGV4dExlbmd0aD0iMTcxIiB4PSIyMjYiIHk9IjQwLjIxODgiPihHUFQtNCwgQ2xhdWRlMywgR2VtaW5pKTwvdGV4dD48cmVjdCBmaWxsPSIjRTJFMkYwIiBoZWlnaHQ9IjQzLjk2ODgiIHJ4PSIyLjUiIHJ5PSIyLjUiIHN0eWxlPSJzdHJva2U6IzE4MTgxODtzdHJva2Utd2lkdGg6MC41OyIgd2lkdGg9IjE4NSIgeD0iMjE5IiB5PSIxNjUuNzEwOSIvPjx0ZXh0IGZpbGw9IiMwMDAwMDAiIGZvbnQtZmFtaWx5PSJzYW5zLXNlcmlmIiBmb250LXNpemU9IjE0IiBsZW5ndGhBZGp1c3Q9InNwYWNpbmciIHRleHRMZW5ndGg9IjEwNSIgeD0iMjU5IiB5PSIxODUuOTQ1MyI+QUkgQ29yZSBTZXJ2aWNlPC90ZXh0Pjx0ZXh0IGZpbGw9IiMwMDAwMDAiIGZvbnQtZmFtaWx5PSJzYW5zLXNlcmlmIiBmb250LXNpemU9IjE0IiBsZW5ndGhBZGp1c3Q9InNwYWNpbmciIHRleHRMZW5ndGg9IjE3MSIgeD0iMjI2IiB5PSIyMDAuOTI5NyI+KEdQVC00LCBDbGF1ZGUzLCBHZW1pbmkpPC90ZXh0Pjxwb2x5Z29uIGZpbGw9IiMxODE4MTgiIHBvaW50cz0iMjk5LjUsNzUuODgyOCwzMDkuNSw3OS44ODI4LDI5OS41LDgzLjg4MjgsMzAzLjUsNzkuODgyOCIgc3R5bGU9InN0cm9rZTojMTgxODE4O3N0cm9rZS13aWR0aDoxLjA7Ii8+PGxpbmUgc3R5bGU9InN0cm9rZTojMTgxODE4O3N0cm9rZS13aWR0aDoxLjA7IiB4MT0iMTA3IiB4Mj0iMzA1LjUiIHkxPSI3OS44ODI4IiB5Mj0iNzkuODgyOCIvPjx0ZXh0IGZpbGw9IiMwMDAwMDAiIGZvbnQtZmFtaWx5PSJzYW5zLXNlcmlmIiBmb250LXNpemU9IjEzIiBsZW5ndGhBZGp1c3Q9InNwYWNpbmciIHRleHRMZW5ndGg9IjE3NyIgeD0iMTE0IiB5PSI3Ni4yNTc4Ij5HJiM3OTE3O2kgbiYjNzg5NztpIGR1bmcgJiMyNzM7JiMyMjc7IHRyJiMyMzc7Y2ggeHUmIzc4NDU7dDwvdGV4dD48bGluZSBzdHlsZT0ic3Ryb2tlOiMxODE4MTg7c3Ryb2tlLXdpZHRoOjEuMDsiIHgxPSIzMTEuNSIgeDI9IjM1My41IiB5MT0iMTA3Ljc5NjkiIHkyPSIxMDcuNzk2OSIvPjxsaW5lIHN0eWxlPSJzdHJva2U6IzE4MTgxODtzdHJva2Utd2lkdGg6MS4wOyIgeDE9IjM1My41IiB4Mj0iMzUzLjUiIHkxPSIxMDcuNzk2OSIgeTI9IjEyMC43OTY5Ii8+PGxpbmUgc3R5bGU9InN0cm9rZTojMTgxODE4O3N0cm9rZS13aWR0aDoxLjA7IiB4MT0iMzEyLjUiIHgyPSIzNTMuNSIgeTE9IjEyMC43OTY5IiB5Mj0iMTIwLjc5NjkiLz48cG9seWdvbiBmaWxsPSIjMTgxODE4IiBwb2ludHM9IjMyMi41LDExNi43OTY5LDMxMi41LDEyMC43OTY5LDMyMi41LDEyNC43OTY5LDMxOC41LDEyMC43OTY5IiBzdHlsZT0ic3Ryb2tlOiMxODE4MTg7c3Ryb2tlLXdpZHRoOjEuMDsiLz48dGV4dCBmaWxsPSIjMDAwMDAwIiBmb250LWZhbWlseT0ic2Fucy1zZXJpZiIgZm9udC1zaXplPSIxMyIgbGVuZ3RoQWRqdXN0PSJzcGFjaW5nIiB0ZXh0TGVuZ3RoPSIzMjQiIHg9IjMxOC41IiB5PSIxMDQuMTcxOSI+UGgmIzIyNjtuIHQmIzIzNztjaCBzZW1hbnRpYyB2JiMyMjQ7IHRyJiMyMzc7Y2ggeHUmIzc4NDU7dCB0aCYjMjQ0O25nIHRpbiBjaCYjMjM3O25oPC90ZXh0Pjxwb2x5Z29uIGZpbGw9IiMxODE4MTgiIHBvaW50cz0iMTE4LDE0NC43MTA5LDEwOCwxNDguNzEwOSwxMTgsMTUyLjcxMDksMTE0LDE0OC43MTA5IiBzdHlsZT0ic3Ryb2tlOiMxODE4MTg7c3Ryb2tlLXdpZHRoOjEuMDsiLz48bGluZSBzdHlsZT0ic3Ryb2tlOiMxODE4MTg7c3Ryb2tlLXdpZHRoOjEuMDsiIHgxPSIxMTIiIHgyPSIzMTAuNSIgeTE9IjE0OC43MTA5IiB5Mj0iMTQ4LjcxMDkiLz48dGV4dCBmaWxsPSIjMDAwMDAwIiBmb250LWZhbWlseT0ic2Fucy1zZXJpZiIgZm9udC1zaXplPSIxMyIgbGVuZ3RoQWRqdXN0PSJzcGFjaW5nIiB0ZXh0TGVuZ3RoPSIxNjQiIHg9IjEyNCIgeT0iMTQ1LjA4NTkiPlRyJiM3ODQzOyB2JiM3ODczOyBrJiM3ODcxO3QgcXUmIzc4NDM7IHBoJiMyMjY7biB0JiMyMzc7Y2g8L3RleHQ+PCEtLVNSQz1bTE9zbjJpOG01NE50VmlONUlLNGRkSG00S0lYazFIclRJV3BjZUtyaGNYSE5GeTdISkhKN1JheGp1MTFfOTd6WTU0TlRCa19UVXF1TUFxc0NpYlhnRENPZkNtZHRBTDhmdXRiRVNlYWZMbUtudGEyU09ubkRXLW50QzluV2IyaC1BU3JiQ3VuY2RMdVJldExpNWhwUkhpV0phakh3cE9VSjhGMDhUME8telg2d2tZSDhMbnk4Mi1ETHp4cXpHb2pSQ2U2alNUTDUxcnhtUmFWMmRZSnF3dmRwbkVrOWVSMzdfbTZxaTVVRnFZSjFYMnNiVTJFeWp1LVBTaktQWFFqdE1CZGdmaDRucHFGc0hKeTBdLS0+PC9nPjwvc3ZnPg==;" vertex="1" parent="1">
            <mxGeometry x="-360" y="2600" width="649" height="215" as="geometry" />
          </mxCell>
        </UserObject>
        <mxCell id="pHtEFcCU99gmoeRJndIN-15" value="&lt;b&gt;Sequence Diagram 6: Sinh Embedding Và Lưu Vào Vector DB&lt;/b&gt;" style="text;html=1;align=center;verticalAlign=middle;resizable=0;points=[];autosize=1;strokeColor=none;fillColor=none;" vertex="1" parent="1">
          <mxGeometry x="-425" y="2870" width="370" height="30" as="geometry" />
        </mxCell>
        <UserObject label="" plantUmlData="{&#xa;  &quot;data&quot;: &quot;@startuml\nparticipant \&quot;AI Core Service\&quot; as AI\nparticipant \&quot;Vector DB\\n(Pinecone/Weaviate)\&quot; as VDB\n\nAI -&gt; AI: Sinh embedding từ nội dung\nAI -&gt; VDB: Lưu embedding cùng metadata\nVDB --&gt; AI: Xác nhận lưu thành công\n@enduml\n&quot;,&#xa;  &quot;format&quot;: &quot;svg&quot;&#xa;}" id="pHtEFcCU99gmoeRJndIN-16">
          <mxCell style="shape=image;noLabel=1;verticalAlign=top;aspect=fixed;imageAspect=0;image=data:image/svg+xml,PD94bWwgdmVyc2lvbj0iMS4wIiBlbmNvZGluZz0idXMtYXNjaWkiIHN0YW5kYWxvbmU9Im5vIj8+PHN2ZyB4bWxucz0iaHR0cDovL3d3dy53My5vcmcvMjAwMC9zdmciIHhtbG5zOnhsaW5rPSJodHRwOi8vd3d3LnczLm9yZy8xOTk5L3hsaW5rIiBjb250ZW50U3R5bGVUeXBlPSJ0ZXh0L2NzcyIgaGVpZ2h0PSIyMTVweCIgcHJlc2VydmVBc3BlY3RSYXRpbz0ibm9uZSIgc3R5bGU9IndpZHRoOjM1M3B4O2hlaWdodDoyMTVweDtiYWNrZ3JvdW5kOiNGRkZGRkY7IiB2ZXJzaW9uPSIxLjEiIHZpZXdCb3g9IjAgMCAzNTMgMjE1IiB3aWR0aD0iMzUzcHgiIHpvb21BbmRQYW49Im1hZ25pZnkiPjxkZWZzLz48Zz48bGluZSBzdHlsZT0ic3Ryb2tlOiMxODE4MTg7c3Ryb2tlLXdpZHRoOjAuNTtzdHJva2UtZGFzaGFycmF5OjUuMCw1LjA7IiB4MT0iNjQiIHgyPSI2NCIgeTE9IjQ5Ljk2ODgiIHkyPSIxNjYuNzEwOSIvPjxsaW5lIHN0eWxlPSJzdHJva2U6IzE4MTgxODtzdHJva2Utd2lkdGg6MC41O3N0cm9rZS1kYXNoYXJyYXk6NS4wLDUuMDsiIHgxPSIyNzIiIHgyPSIyNzIiIHkxPSI0OS45Njg4IiB5Mj0iMTY2LjcxMDkiLz48cmVjdCBmaWxsPSIjRTJFMkYwIiBoZWlnaHQ9IjI4Ljk4NDQiIHJ4PSIyLjUiIHJ5PSIyLjUiIHN0eWxlPSJzdHJva2U6IzE4MTgxODtzdHJva2Utd2lkdGg6MC41OyIgd2lkdGg9IjExOSIgeD0iNSIgeT0iMTkuOTg0NCIvPjx0ZXh0IGZpbGw9IiMwMDAwMDAiIGZvbnQtZmFtaWx5PSJzYW5zLXNlcmlmIiBmb250LXNpemU9IjE0IiBsZW5ndGhBZGp1c3Q9InNwYWNpbmciIHRleHRMZW5ndGg9IjEwNSIgeD0iMTIiIHk9IjQwLjIxODgiPkFJIENvcmUgU2VydmljZTwvdGV4dD48cmVjdCBmaWxsPSIjRTJFMkYwIiBoZWlnaHQ9IjI4Ljk4NDQiIHJ4PSIyLjUiIHJ5PSIyLjUiIHN0eWxlPSJzdHJva2U6IzE4MTgxODtzdHJva2Utd2lkdGg6MC41OyIgd2lkdGg9IjExOSIgeD0iNSIgeT0iMTY1LjcxMDkiLz48dGV4dCBmaWxsPSIjMDAwMDAwIiBmb250LWZhbWlseT0ic2Fucy1zZXJpZiIgZm9udC1zaXplPSIxNCIgbGVuZ3RoQWRqdXN0PSJzcGFjaW5nIiB0ZXh0TGVuZ3RoPSIxMDUiIHg9IjEyIiB5PSIxODUuOTQ1MyI+QUkgQ29yZSBTZXJ2aWNlPC90ZXh0PjxyZWN0IGZpbGw9IiNFMkUyRjAiIGhlaWdodD0iNDMuOTY4OCIgcng9IjIuNSIgcnk9IjIuNSIgc3R5bGU9InN0cm9rZTojMTgxODE4O3N0cm9rZS13aWR0aDowLjU7IiB3aWR0aD0iMTQ5IiB4PSIxOTgiIHk9IjUiLz48dGV4dCBmaWxsPSIjMDAwMDAwIiBmb250LWZhbWlseT0ic2Fucy1zZXJpZiIgZm9udC1zaXplPSIxNCIgbGVuZ3RoQWRqdXN0PSJzcGFjaW5nIiB0ZXh0TGVuZ3RoPSI2MyIgeD0iMjQxIiB5PSIyNS4yMzQ0Ij5WZWN0b3IgREI8L3RleHQ+PHRleHQgZmlsbD0iIzAwMDAwMCIgZm9udC1mYW1pbHk9InNhbnMtc2VyaWYiIGZvbnQtc2l6ZT0iMTQiIGxlbmd0aEFkanVzdD0ic3BhY2luZyIgdGV4dExlbmd0aD0iMTM1IiB4PSIyMDUiIHk9IjQwLjIxODgiPihQaW5lY29uZS9XZWF2aWF0ZSk8L3RleHQ+PHJlY3QgZmlsbD0iI0UyRTJGMCIgaGVpZ2h0PSI0My45Njg4IiByeD0iMi41IiByeT0iMi41IiBzdHlsZT0ic3Ryb2tlOiMxODE4MTg7c3Ryb2tlLXdpZHRoOjAuNTsiIHdpZHRoPSIxNDkiIHg9IjE5OCIgeT0iMTY1LjcxMDkiLz48dGV4dCBmaWxsPSIjMDAwMDAwIiBmb250LWZhbWlseT0ic2Fucy1zZXJpZiIgZm9udC1zaXplPSIxNCIgbGVuZ3RoQWRqdXN0PSJzcGFjaW5nIiB0ZXh0TGVuZ3RoPSI2MyIgeD0iMjQxIiB5PSIxODUuOTQ1MyI+VmVjdG9yIERCPC90ZXh0Pjx0ZXh0IGZpbGw9IiMwMDAwMDAiIGZvbnQtZmFtaWx5PSJzYW5zLXNlcmlmIiBmb250LXNpemU9IjE0IiBsZW5ndGhBZGp1c3Q9InNwYWNpbmciIHRleHRMZW5ndGg9IjEzNSIgeD0iMjA1IiB5PSIyMDAuOTI5NyI+KFBpbmVjb25lL1dlYXZpYXRlKTwvdGV4dD48bGluZSBzdHlsZT0ic3Ryb2tlOiMxODE4MTg7c3Ryb2tlLXdpZHRoOjEuMDsiIHgxPSI2NC41IiB4Mj0iMTA2LjUiIHkxPSI3OS44ODI4IiB5Mj0iNzkuODgyOCIvPjxsaW5lIHN0eWxlPSJzdHJva2U6IzE4MTgxODtzdHJva2Utd2lkdGg6MS4wOyIgeDE9IjEwNi41IiB4Mj0iMTA2LjUiIHkxPSI3OS44ODI4IiB5Mj0iOTIuODgyOCIvPjxsaW5lIHN0eWxlPSJzdHJva2U6IzE4MTgxODtzdHJva2Utd2lkdGg6MS4wOyIgeDE9IjY1LjUiIHgyPSIxMDYuNSIgeTE9IjkyLjg4MjgiIHkyPSI5Mi44ODI4Ii8+PHBvbHlnb24gZmlsbD0iIzE4MTgxOCIgcG9pbnRzPSI3NS41LDg4Ljg4MjgsNjUuNSw5Mi44ODI4LDc1LjUsOTYuODgyOCw3MS41LDkyLjg4MjgiIHN0eWxlPSJzdHJva2U6IzE4MTgxODtzdHJva2Utd2lkdGg6MS4wOyIvPjx0ZXh0IGZpbGw9IiMwMDAwMDAiIGZvbnQtZmFtaWx5PSJzYW5zLXNlcmlmIiBmb250LXNpemU9IjEzIiBsZW5ndGhBZGp1c3Q9InNwYWNpbmciIHRleHRMZW5ndGg9IjE3NyIgeD0iNzEuNSIgeT0iNzYuMjU3OCI+U2luaCBlbWJlZGRpbmcgdCYjNzkxNTsgbiYjNzg5NztpIGR1bmc8L3RleHQ+PHBvbHlnb24gZmlsbD0iIzE4MTgxOCIgcG9pbnRzPSIyNjAuNSwxMTYuNzk2OSwyNzAuNSwxMjAuNzk2OSwyNjAuNSwxMjQuNzk2OSwyNjQuNSwxMjAuNzk2OSIgc3R5bGU9InN0cm9rZTojMTgxODE4O3N0cm9rZS13aWR0aDoxLjA7Ii8+PGxpbmUgc3R5bGU9InN0cm9rZTojMTgxODE4O3N0cm9rZS13aWR0aDoxLjA7IiB4MT0iNjQuNSIgeDI9IjI2Ni41IiB5MT0iMTIwLjc5NjkiIHkyPSIxMjAuNzk2OSIvPjx0ZXh0IGZpbGw9IiMwMDAwMDAiIGZvbnQtZmFtaWx5PSJzYW5zLXNlcmlmIiBmb250LXNpemU9IjEzIiBsZW5ndGhBZGp1c3Q9InNwYWNpbmciIHRleHRMZW5ndGg9IjE4NCIgeD0iNzEuNSIgeT0iMTE3LjE3MTkiPkwmIzQzMjt1IGVtYmVkZGluZyBjJiMyNDk7bmcgbWV0YWRhdGE8L3RleHQ+PHBvbHlnb24gZmlsbD0iIzE4MTgxOCIgcG9pbnRzPSI3NS41LDE0NC43MTA5LDY1LjUsMTQ4LjcxMDksNzUuNSwxNTIuNzEwOSw3MS41LDE0OC43MTA5IiBzdHlsZT0ic3Ryb2tlOiMxODE4MTg7c3Ryb2tlLXdpZHRoOjEuMDsiLz48bGluZSBzdHlsZT0ic3Ryb2tlOiMxODE4MTg7c3Ryb2tlLXdpZHRoOjEuMDtzdHJva2UtZGFzaGFycmF5OjIuMCwyLjA7IiB4MT0iNjkuNSIgeDI9IjI3MS41IiB5MT0iMTQ4LjcxMDkiIHkyPSIxNDguNzEwOSIvPjx0ZXh0IGZpbGw9IiMwMDAwMDAiIGZvbnQtZmFtaWx5PSJzYW5zLXNlcmlmIiBmb250LXNpemU9IjEzIiBsZW5ndGhBZGp1c3Q9InNwYWNpbmciIHRleHRMZW5ndGg9IjE1OSIgeD0iODEuNSIgeT0iMTQ1LjA4NTkiPlgmIzIyNTtjIG5oJiM3ODUzO24gbCYjNDMyO3UgdGgmIzIyNDtuaCBjJiMyNDQ7bmc8L3RleHQ+PCEtLVNSQz1bSk9xbjNlOTA0NEx4Slo2WHFlQk9LdlkwRDJHTTlZSGVPSkZrSmMwSjZTWXdTMVN4aE9zOVhPcklSazh6azhjaGVRM3ZyTmxsRHdZRDRnZjFEazE3QVFuZ0pQMkh4ZkdXN18wNEtVZXJLb09kT01lRElScGRzS09uWVBmZmlJTmk1MWdRX3ZLeVlKdEZqT0FiaXFGODU5VDByTzZhTDVvMDZWZVJ5RDJWNVNZTVluNXFKV1pocHdFVGFDQS10NVBhS0E5MXBvNEdaQ3NUbEdoV1NkWlY2T3Vfb3ZKc3VjdzRWTkJuMUcwMF0tLT48L2c+PC9zdmc+;" vertex="1" parent="1">
            <mxGeometry x="-370" y="2920" width="353" height="215" as="geometry" />
          </mxCell>
        </UserObject>
        <mxCell id="pHtEFcCU99gmoeRJndIN-17" value="&lt;b&gt;Sequence Diagram 7: Xử Lý Query Hỏi Đáp (Q&amp;amp;A)&lt;/b&gt;" style="text;html=1;align=center;verticalAlign=middle;resizable=0;points=[];autosize=1;strokeColor=none;fillColor=none;" vertex="1" parent="1">
          <mxGeometry x="-430" y="3180" width="310" height="30" as="geometry" />
        </mxCell>
        <UserObject label="" plantUmlData="{&#xa;  &quot;data&quot;: &quot;@startuml\nactor User\nparticipant \&quot;Web Frontend\&quot; as WF\nparticipant \&quot;API Gateway\&quot; as API\nparticipant \&quot;Orchestration Service\\n(LangChain, LlamaIndex)\&quot; as Orch\nparticipant \&quot;Vector DB\&quot; as VDB\nparticipant \&quot;AI Core Service\&quot; as AI\n\nUser -&gt; WF: Gửi câu hỏi\nWF -&gt; API: Chuyển tiếp câu hỏi\nAPI -&gt; Orch: Gửi yêu cầu xử lý Q&amp;A\nOrch -&gt; VDB: Truy vấn embedding liên quan\nVDB --&gt; Orch: Trả về kết quả tìm kiếm\nOrch -&gt; AI: Gửi nội dung truy vấn + context\nAI --&gt; Orch: Trả về câu trả lời\nOrch -&gt; API: Tổng hợp kết quả\nAPI -&gt; WF: Trả về kết quả cho người dùng\n@enduml\n&quot;,&#xa;  &quot;format&quot;: &quot;svg&quot;&#xa;}" id="pHtEFcCU99gmoeRJndIN-18">
          <mxCell style="shape=image;noLabel=1;verticalAlign=top;aspect=fixed;imageAspect=0;image=data:image/svg+xml,PD94bWwgdmVyc2lvbj0iMS4wIiBlbmNvZGluZz0idXMtYXNjaWkiIHN0YW5kYWxvbmU9Im5vIj8+PHN2ZyB4bWxucz0iaHR0cDovL3d3dy53My5vcmcvMjAwMC9zdmciIHhtbG5zOnhsaW5rPSJodHRwOi8vd3d3LnczLm9yZy8xOTk5L3hsaW5rIiBjb250ZW50U3R5bGVUeXBlPSJ0ZXh0L2NzcyIgaGVpZ2h0PSI0MzBweCIgcHJlc2VydmVBc3BlY3RSYXRpbz0ibm9uZSIgc3R5bGU9IndpZHRoOjkwMnB4O2hlaWdodDo0MzBweDtiYWNrZ3JvdW5kOiNGRkZGRkY7IiB2ZXJzaW9uPSIxLjEiIHZpZXdCb3g9IjAgMCA5MDIgNDMwIiB3aWR0aD0iOTAycHgiIHpvb21BbmRQYW49Im1hZ25pZnkiPjxkZWZzLz48Zz48bGluZSBzdHlsZT0ic3Ryb2tlOiMxODE4MTg7c3Ryb2tlLXdpZHRoOjAuNTtzdHJva2UtZGFzaGFycmF5OjUuMCw1LjA7IiB4MT0iMjIiIHgyPSIyMiIgeTE9Ijc5Ljk4NDQiIHkyPSIzNTEuMjEwOSIvPjxsaW5lIHN0eWxlPSJzdHJva2U6IzE4MTgxODtzdHJva2Utd2lkdGg6MC41O3N0cm9rZS1kYXNoYXJyYXk6NS4wLDUuMDsiIHgxPSIxMjEiIHgyPSIxMjEiIHkxPSI3OS45ODQ0IiB5Mj0iMzUxLjIxMDkiLz48bGluZSBzdHlsZT0ic3Ryb2tlOiMxODE4MTg7c3Ryb2tlLXdpZHRoOjAuNTtzdHJva2UtZGFzaGFycmF5OjUuMCw1LjA7IiB4MT0iMzQ1IiB4Mj0iMzQ1IiB5MT0iNzkuOTg0NCIgeTI9IjM1MS4yMTA5Ii8+PGxpbmUgc3R5bGU9InN0cm9rZTojMTgxODE4O3N0cm9rZS13aWR0aDowLjU7c3Ryb2tlLWRhc2hhcnJheTo1LjAsNS4wOyIgeDE9IjUxNCIgeDI9IjUxNCIgeTE9Ijc5Ljk4NDQiIHkyPSIzNTEuMjEwOSIvPjxsaW5lIHN0eWxlPSJzdHJva2U6IzE4MTgxODtzdHJva2Utd2lkdGg6MC41O3N0cm9rZS1kYXNoYXJyYXk6NS4wLDUuMDsiIHgxPSI3MjguNSIgeDI9IjcyOC41IiB5MT0iNzkuOTg0NCIgeTI9IjM1MS4yMTA5Ii8+PGxpbmUgc3R5bGU9InN0cm9rZTojMTgxODE4O3N0cm9rZS13aWR0aDowLjU7c3Ryb2tlLWRhc2hhcnJheTo1LjAsNS4wOyIgeDE9IjgzNi41IiB4Mj0iODM2LjUiIHkxPSI3OS45ODQ0IiB5Mj0iMzUxLjIxMDkiLz48dGV4dCBmaWxsPSIjMDAwMDAwIiBmb250LWZhbWlseT0ic2Fucy1zZXJpZiIgZm9udC1zaXplPSIxNCIgbGVuZ3RoQWRqdXN0PSJzcGFjaW5nIiB0ZXh0TGVuZ3RoPSIyOCIgeD0iNSIgeT0iNzguMjM0NCI+VXNlcjwvdGV4dD48ZWxsaXBzZSBjeD0iMjIiIGN5PSIxMy41IiBmaWxsPSIjRTJFMkYwIiByeD0iOCIgcnk9IjgiIHN0eWxlPSJzdHJva2U6IzE4MTgxODtzdHJva2Utd2lkdGg6MC41OyIvPjxwYXRoIGQ9Ik0yMiwyMS41IEwyMiw0OC41IE05LDI5LjUgTDM1LDI5LjUgTTIyLDQ4LjUgTDksNjMuNSBNMjIsNDguNSBMMzUsNjMuNSAiIGZpbGw9Im5vbmUiIHN0eWxlPSJzdHJva2U6IzE4MTgxODtzdHJva2Utd2lkdGg6MC41OyIvPjx0ZXh0IGZpbGw9IiMwMDAwMDAiIGZvbnQtZmFtaWx5PSJzYW5zLXNlcmlmIiBmb250LXNpemU9IjE0IiBsZW5ndGhBZGp1c3Q9InNwYWNpbmciIHRleHRMZW5ndGg9IjI4IiB4PSI1IiB5PSIzNjMuNDQ1MyI+VXNlcjwvdGV4dD48ZWxsaXBzZSBjeD0iMjIiIGN5PSIzNzMuNjk1MyIgZmlsbD0iI0UyRTJGMCIgcng9IjgiIHJ5PSI4IiBzdHlsZT0ic3Ryb2tlOiMxODE4MTg7c3Ryb2tlLXdpZHRoOjAuNTsiLz48cGF0aCBkPSJNMjIsMzgxLjY5NTMgTDIyLDQwOC42OTUzIE05LDM4OS42OTUzIEwzNSwzODkuNjk1MyBNMjIsNDA4LjY5NTMgTDksNDIzLjY5NTMgTTIyLDQwOC42OTUzIEwzNSw0MjMuNjk1MyAiIGZpbGw9Im5vbmUiIHN0eWxlPSJzdHJva2U6IzE4MTgxODtzdHJva2Utd2lkdGg6MC41OyIvPjxyZWN0IGZpbGw9IiNFMkUyRjAiIGhlaWdodD0iMjguOTg0NCIgcng9IjIuNSIgcnk9IjIuNSIgc3R5bGU9InN0cm9rZTojMTgxODE4O3N0cm9rZS13aWR0aDowLjU7IiB3aWR0aD0iOTgiIHg9IjcyIiB5PSI1MCIvPjx0ZXh0IGZpbGw9IiMwMDAwMDAiIGZvbnQtZmFtaWx5PSJzYW5zLXNlcmlmIiBmb250LXNpemU9IjE0IiBsZW5ndGhBZGp1c3Q9InNwYWNpbmciIHRleHRMZW5ndGg9Ijg0IiB4PSI3OSIgeT0iNzAuMjM0NCI+V2ViIEZyb250ZW5kPC90ZXh0PjxyZWN0IGZpbGw9IiNFMkUyRjAiIGhlaWdodD0iMjguOTg0NCIgcng9IjIuNSIgcnk9IjIuNSIgc3R5bGU9InN0cm9rZTojMTgxODE4O3N0cm9rZS13aWR0aDowLjU7IiB3aWR0aD0iOTgiIHg9IjcyIiB5PSIzNTAuMjEwOSIvPjx0ZXh0IGZpbGw9IiMwMDAwMDAiIGZvbnQtZmFtaWx5PSJzYW5zLXNlcmlmIiBmb250LXNpemU9IjE0IiBsZW5ndGhBZGp1c3Q9InNwYWNpbmciIHRleHRMZW5ndGg9Ijg0IiB4PSI3OSIgeT0iMzcwLjQ0NTMiPldlYiBGcm9udGVuZDwvdGV4dD48cmVjdCBmaWxsPSIjRTJFMkYwIiBoZWlnaHQ9IjI4Ljk4NDQiIHJ4PSIyLjUiIHJ5PSIyLjUiIHN0eWxlPSJzdHJva2U6IzE4MTgxODtzdHJva2Utd2lkdGg6MC41OyIgd2lkdGg9IjkyIiB4PSIyOTkiIHk9IjUwIi8+PHRleHQgZmlsbD0iIzAwMDAwMCIgZm9udC1mYW1pbHk9InNhbnMtc2VyaWYiIGZvbnQtc2l6ZT0iMTQiIGxlbmd0aEFkanVzdD0ic3BhY2luZyIgdGV4dExlbmd0aD0iNzgiIHg9IjMwNiIgeT0iNzAuMjM0NCI+QVBJIEdhdGV3YXk8L3RleHQ+PHJlY3QgZmlsbD0iI0UyRTJGMCIgaGVpZ2h0PSIyOC45ODQ0IiByeD0iMi41IiByeT0iMi41IiBzdHlsZT0ic3Ryb2tlOiMxODE4MTg7c3Ryb2tlLXdpZHRoOjAuNTsiIHdpZHRoPSI5MiIgeD0iMjk5IiB5PSIzNTAuMjEwOSIvPjx0ZXh0IGZpbGw9IiMwMDAwMDAiIGZvbnQtZmFtaWx5PSJzYW5zLXNlcmlmIiBmb250LXNpemU9IjE0IiBsZW5ndGhBZGp1c3Q9InNwYWNpbmciIHRleHRMZW5ndGg9Ijc4IiB4PSIzMDYiIHk9IjM3MC40NDUzIj5BUEkgR2F0ZXdheTwvdGV4dD48cmVjdCBmaWxsPSIjRTJFMkYwIiBoZWlnaHQ9IjQzLjk2ODgiIHJ4PSIyLjUiIHJ5PSIyLjUiIHN0eWxlPSJzdHJva2U6IzE4MTgxODtzdHJva2Utd2lkdGg6MC41OyIgd2lkdGg9IjE3OCIgeD0iNDI1IiB5PSIzNS4wMTU2Ii8+PHRleHQgZmlsbD0iIzAwMDAwMCIgZm9udC1mYW1pbHk9InNhbnMtc2VyaWYiIGZvbnQtc2l6ZT0iMTQiIGxlbmd0aEFkanVzdD0ic3BhY2luZyIgdGV4dExlbmd0aD0iMTQ3IiB4PSI0NDAuNSIgeT0iNTUuMjUiPk9yY2hlc3RyYXRpb24gU2VydmljZTwvdGV4dD48dGV4dCBmaWxsPSIjMDAwMDAwIiBmb250LWZhbWlseT0ic2Fucy1zZXJpZiIgZm9udC1zaXplPSIxNCIgbGVuZ3RoQWRqdXN0PSJzcGFjaW5nIiB0ZXh0TGVuZ3RoPSIxNjQiIHg9IjQzMiIgeT0iNzAuMjM0NCI+KExhbmdDaGFpbiwgTGxhbWFJbmRleCk8L3RleHQ+PHJlY3QgZmlsbD0iI0UyRTJGMCIgaGVpZ2h0PSI0My45Njg4IiByeD0iMi41IiByeT0iMi41IiBzdHlsZT0ic3Ryb2tlOiMxODE4MTg7c3Ryb2tlLXdpZHRoOjAuNTsiIHdpZHRoPSIxNzgiIHg9IjQyNSIgeT0iMzUwLjIxMDkiLz48dGV4dCBmaWxsPSIjMDAwMDAwIiBmb250LWZhbWlseT0ic2Fucy1zZXJpZiIgZm9udC1zaXplPSIxNCIgbGVuZ3RoQWRqdXN0PSJzcGFjaW5nIiB0ZXh0TGVuZ3RoPSIxNDciIHg9IjQ0MC41IiB5PSIzNzAuNDQ1MyI+T3JjaGVzdHJhdGlvbiBTZXJ2aWNlPC90ZXh0Pjx0ZXh0IGZpbGw9IiMwMDAwMDAiIGZvbnQtZmFtaWx5PSJzYW5zLXNlcmlmIiBmb250LXNpemU9IjE0IiBsZW5ndGhBZGp1c3Q9InNwYWNpbmciIHRleHRMZW5ndGg9IjE2NCIgeD0iNDMyIiB5PSIzODUuNDI5NyI+KExhbmdDaGFpbiwgTGxhbWFJbmRleCk8L3RleHQ+PHJlY3QgZmlsbD0iI0UyRTJGMCIgaGVpZ2h0PSIyOC45ODQ0IiByeD0iMi41IiByeT0iMi41IiBzdHlsZT0ic3Ryb2tlOiMxODE4MTg7c3Ryb2tlLXdpZHRoOjAuNTsiIHdpZHRoPSI3NyIgeD0iNjkwLjUiIHk9IjUwIi8+PHRleHQgZmlsbD0iIzAwMDAwMCIgZm9udC1mYW1pbHk9InNhbnMtc2VyaWYiIGZvbnQtc2l6ZT0iMTQiIGxlbmd0aEFkanVzdD0ic3BhY2luZyIgdGV4dExlbmd0aD0iNjMiIHg9IjY5Ny41IiB5PSI3MC4yMzQ0Ij5WZWN0b3IgREI8L3RleHQ+PHJlY3QgZmlsbD0iI0UyRTJGMCIgaGVpZ2h0PSIyOC45ODQ0IiByeD0iMi41IiByeT0iMi41IiBzdHlsZT0ic3Ryb2tlOiMxODE4MTg7c3Ryb2tlLXdpZHRoOjAuNTsiIHdpZHRoPSI3NyIgeD0iNjkwLjUiIHk9IjM1MC4yMTA5Ii8+PHRleHQgZmlsbD0iIzAwMDAwMCIgZm9udC1mYW1pbHk9InNhbnMtc2VyaWYiIGZvbnQtc2l6ZT0iMTQiIGxlbmd0aEFkanVzdD0ic3BhY2luZyIgdGV4dExlbmd0aD0iNjMiIHg9IjY5Ny41IiB5PSIzNzAuNDQ1MyI+VmVjdG9yIERCPC90ZXh0PjxyZWN0IGZpbGw9IiNFMkUyRjAiIGhlaWdodD0iMjguOTg0NCIgcng9IjIuNSIgcnk9IjIuNSIgc3R5bGU9InN0cm9rZTojMTgxODE4O3N0cm9rZS13aWR0aDowLjU7IiB3aWR0aD0iMTE5IiB4PSI3NzcuNSIgeT0iNTAiLz48dGV4dCBmaWxsPSIjMDAwMDAwIiBmb250LWZhbWlseT0ic2Fucy1zZXJpZiIgZm9udC1zaXplPSIxNCIgbGVuZ3RoQWRqdXN0PSJzcGFjaW5nIiB0ZXh0TGVuZ3RoPSIxMDUiIHg9Ijc4NC41IiB5PSI3MC4yMzQ0Ij5BSSBDb3JlIFNlcnZpY2U8L3RleHQ+PHJlY3QgZmlsbD0iI0UyRTJGMCIgaGVpZ2h0PSIyOC45ODQ0IiByeD0iMi41IiByeT0iMi41IiBzdHlsZT0ic3Ryb2tlOiMxODE4MTg7c3Ryb2tlLXdpZHRoOjAuNTsiIHdpZHRoPSIxMTkiIHg9Ijc3Ny41IiB5PSIzNTAuMjEwOSIvPjx0ZXh0IGZpbGw9IiMwMDAwMDAiIGZvbnQtZmFtaWx5PSJzYW5zLXNlcmlmIiBmb250LXNpemU9IjE0IiBsZW5ndGhBZGp1c3Q9InNwYWNpbmciIHRleHRMZW5ndGg9IjEwNSIgeD0iNzg0LjUiIHk9IjM3MC40NDUzIj5BSSBDb3JlIFNlcnZpY2U8L3RleHQ+PHBvbHlnb24gZmlsbD0iIzE4MTgxOCIgcG9pbnRzPSIxMDksMTA1Ljg5ODQsMTE5LDEwOS44OTg0LDEwOSwxMTMuODk4NCwxMTMsMTA5Ljg5ODQiIHN0eWxlPSJzdHJva2U6IzE4MTgxODtzdHJva2Utd2lkdGg6MS4wOyIvPjxsaW5lIHN0eWxlPSJzdHJva2U6IzE4MTgxODtzdHJva2Utd2lkdGg6MS4wOyIgeDE9IjIyIiB4Mj0iMTE1IiB5MT0iMTA5Ljg5ODQiIHkyPSIxMDkuODk4NCIvPjx0ZXh0IGZpbGw9IiMwMDAwMDAiIGZvbnQtZmFtaWx5PSJzYW5zLXNlcmlmIiBmb250LXNpemU9IjEzIiBsZW5ndGhBZGp1c3Q9InNwYWNpbmciIHRleHRMZW5ndGg9Ijc1IiB4PSIyOSIgeT0iMTA2LjI3MzQiPkcmIzc5MTc7aSBjJiMyMjY7dSBoJiM3ODg3O2k8L3RleHQ+PHBvbHlnb24gZmlsbD0iIzE4MTgxOCIgcG9pbnRzPSIzMzMsMTMzLjgxMjUsMzQzLDEzNy44MTI1LDMzMywxNDEuODEyNSwzMzcsMTM3LjgxMjUiIHN0eWxlPSJzdHJva2U6IzE4MTgxODtzdHJva2Utd2lkdGg6MS4wOyIvPjxsaW5lIHN0eWxlPSJzdHJva2U6IzE4MTgxODtzdHJva2Utd2lkdGg6MS4wOyIgeDE9IjEyMSIgeDI9IjMzOSIgeTE9IjEzNy44MTI1IiB5Mj0iMTM3LjgxMjUiLz48dGV4dCBmaWxsPSIjMDAwMDAwIiBmb250LWZhbWlseT0ic2Fucy1zZXJpZiIgZm9udC1zaXplPSIxMyIgbGVuZ3RoQWRqdXN0PSJzcGFjaW5nIiB0ZXh0TGVuZ3RoPSIxMzAiIHg9IjEyOCIgeT0iMTM0LjE4NzUiPkNodXkmIzc4NzU7biB0aSYjNzg3MTtwIGMmIzIyNjt1IGgmIzc4ODc7aTwvdGV4dD48cG9seWdvbiBmaWxsPSIjMTgxODE4IiBwb2ludHM9IjUwMiwxNjEuNzI2Niw1MTIsMTY1LjcyNjYsNTAyLDE2OS43MjY2LDUwNiwxNjUuNzI2NiIgc3R5bGU9InN0cm9rZTojMTgxODE4O3N0cm9rZS13aWR0aDoxLjA7Ii8+PGxpbmUgc3R5bGU9InN0cm9rZTojMTgxODE4O3N0cm9rZS13aWR0aDoxLjA7IiB4MT0iMzQ1IiB4Mj0iNTA4IiB5MT0iMTY1LjcyNjYiIHkyPSIxNjUuNzI2NiIvPjx0ZXh0IGZpbGw9IiMwMDAwMDAiIGZvbnQtZmFtaWx5PSJzYW5zLXNlcmlmIiBmb250LXNpemU9IjEzIiBsZW5ndGhBZGp1c3Q9InNwYWNpbmciIHRleHRMZW5ndGg9IjE0NSIgeD0iMzUyIiB5PSIxNjIuMTAxNiI+RyYjNzkxNztpIHkmIzIzNDt1IGMmIzc4NDc7dSB4JiM3OTE3OyBsJiMyNTM7IFEmYW1wO0E8L3RleHQ+PHBvbHlnb24gZmlsbD0iIzE4MTgxOCIgcG9pbnRzPSI3MTcsMTg5LjY0MDYsNzI3LDE5My42NDA2LDcxNywxOTcuNjQwNiw3MjEsMTkzLjY0MDYiIHN0eWxlPSJzdHJva2U6IzE4MTgxODtzdHJva2Utd2lkdGg6MS4wOyIvPjxsaW5lIHN0eWxlPSJzdHJva2U6IzE4MTgxODtzdHJva2Utd2lkdGg6MS4wOyIgeDE9IjUxNCIgeDI9IjcyMyIgeTE9IjE5My42NDA2IiB5Mj0iMTkzLjY0MDYiLz48dGV4dCBmaWxsPSIjMDAwMDAwIiBmb250LWZhbWlseT0ic2Fucy1zZXJpZiIgZm9udC1zaXplPSIxMyIgbGVuZ3RoQWRqdXN0PSJzcGFjaW5nIiB0ZXh0TGVuZ3RoPSIxOTEiIHg9IjUyMSIgeT0iMTkwLjAxNTYiPlRydXkgdiYjNzg0NTtuIGVtYmVkZGluZyBsaSYjMjM0O24gcXVhbjwvdGV4dD48cG9seWdvbiBmaWxsPSIjMTgxODE4IiBwb2ludHM9IjUyNSwyMTcuNTU0Nyw1MTUsMjIxLjU1NDcsNTI1LDIyNS41NTQ3LDUyMSwyMjEuNTU0NyIgc3R5bGU9InN0cm9rZTojMTgxODE4O3N0cm9rZS13aWR0aDoxLjA7Ii8+PGxpbmUgc3R5bGU9InN0cm9rZTojMTgxODE4O3N0cm9rZS13aWR0aDoxLjA7c3Ryb2tlLWRhc2hhcnJheToyLjAsMi4wOyIgeDE9IjUxOSIgeDI9IjcyOCIgeTE9IjIyMS41NTQ3IiB5Mj0iMjIxLjU1NDciLz48dGV4dCBmaWxsPSIjMDAwMDAwIiBmb250LWZhbWlseT0ic2Fucy1zZXJpZiIgZm9udC1zaXplPSIxMyIgbGVuZ3RoQWRqdXN0PSJzcGFjaW5nIiB0ZXh0TGVuZ3RoPSIxNTQiIHg9IjUzMSIgeT0iMjE3LjkyOTciPlRyJiM3ODQzOyB2JiM3ODczOyBrJiM3ODcxO3QgcXUmIzc4NDM7IHQmIzIzNjttIGtpJiM3ODcxO208L3RleHQ+PHBvbHlnb24gZmlsbD0iIzE4MTgxOCIgcG9pbnRzPSI4MjUsMjQ1LjQ2ODgsODM1LDI0OS40Njg4LDgyNSwyNTMuNDY4OCw4MjksMjQ5LjQ2ODgiIHN0eWxlPSJzdHJva2U6IzE4MTgxODtzdHJva2Utd2lkdGg6MS4wOyIvPjxsaW5lIHN0eWxlPSJzdHJva2U6IzE4MTgxODtzdHJva2Utd2lkdGg6MS4wOyIgeDE9IjUxNCIgeDI9IjgzMSIgeTE9IjI0OS40Njg4IiB5Mj0iMjQ5LjQ2ODgiLz48dGV4dCBmaWxsPSIjMDAwMDAwIiBmb250LWZhbWlseT0ic2Fucy1zZXJpZiIgZm9udC1zaXplPSIxMyIgbGVuZ3RoQWRqdXN0PSJzcGFjaW5nIiB0ZXh0TGVuZ3RoPSIyMTEiIHg9IjUyMSIgeT0iMjQ1Ljg0MzgiPkcmIzc5MTc7aSBuJiM3ODk3O2kgZHVuZyB0cnV5IHYmIzc4NDU7biArIGNvbnRleHQ8L3RleHQ+PHBvbHlnb24gZmlsbD0iIzE4MTgxOCIgcG9pbnRzPSI1MjUsMjczLjM4MjgsNTE1LDI3Ny4zODI4LDUyNSwyODEuMzgyOCw1MjEsMjc3LjM4MjgiIHN0eWxlPSJzdHJva2U6IzE4MTgxODtzdHJva2Utd2lkdGg6MS4wOyIvPjxsaW5lIHN0eWxlPSJzdHJva2U6IzE4MTgxODtzdHJva2Utd2lkdGg6MS4wO3N0cm9rZS1kYXNoYXJyYXk6Mi4wLDIuMDsiIHgxPSI1MTkiIHgyPSI4MzYiIHkxPSIyNzcuMzgyOCIgeTI9IjI3Ny4zODI4Ii8+PHRleHQgZmlsbD0iIzAwMDAwMCIgZm9udC1mYW1pbHk9InNhbnMtc2VyaWYiIGZvbnQtc2l6ZT0iMTMiIGxlbmd0aEFkanVzdD0ic3BhY2luZyIgdGV4dExlbmd0aD0iMTIyIiB4PSI1MzEiIHk9IjI3My43NTc4Ij5UciYjNzg0MzsgdiYjNzg3MzsgYyYjMjI2O3UgdHImIzc4NDM7IGwmIzc5MDE7aTwvdGV4dD48cG9seWdvbiBmaWxsPSIjMTgxODE4IiBwb2ludHM9IjM1NiwzMDEuMjk2OSwzNDYsMzA1LjI5NjksMzU2LDMwOS4yOTY5LDM1MiwzMDUuMjk2OSIgc3R5bGU9InN0cm9rZTojMTgxODE4O3N0cm9rZS13aWR0aDoxLjA7Ii8+PGxpbmUgc3R5bGU9InN0cm9rZTojMTgxODE4O3N0cm9rZS13aWR0aDoxLjA7IiB4MT0iMzUwIiB4Mj0iNTEzIiB5MT0iMzA1LjI5NjkiIHkyPSIzMDUuMjk2OSIvPjx0ZXh0IGZpbGw9IiMwMDAwMDAiIGZvbnQtZmFtaWx5PSJzYW5zLXNlcmlmIiBmb250LXNpemU9IjEzIiBsZW5ndGhBZGp1c3Q9InNwYWNpbmciIHRleHRMZW5ndGg9IjExMCIgeD0iMzYyIiB5PSIzMDEuNjcxOSI+VCYjNzg5MztuZyBoJiM3OTA3O3AgayYjNzg3MTt0IHF1JiM3ODQzOzwvdGV4dD48cG9seWdvbiBmaWxsPSIjMTgxODE4IiBwb2ludHM9IjEzMiwzMjkuMjEwOSwxMjIsMzMzLjIxMDksMTMyLDMzNy4yMTA5LDEyOCwzMzMuMjEwOSIgc3R5bGU9InN0cm9rZTojMTgxODE4O3N0cm9rZS13aWR0aDoxLjA7Ii8+PGxpbmUgc3R5bGU9InN0cm9rZTojMTgxODE4O3N0cm9rZS13aWR0aDoxLjA7IiB4MT0iMTI2IiB4Mj0iMzQ0IiB5MT0iMzMzLjIxMDkiIHkyPSIzMzMuMjEwOSIvPjx0ZXh0IGZpbGw9IiMwMDAwMDAiIGZvbnQtZmFtaWx5PSJzYW5zLXNlcmlmIiBmb250LXNpemU9IjEzIiBsZW5ndGhBZGp1c3Q9InNwYWNpbmciIHRleHRMZW5ndGg9IjIwMCIgeD0iMTM4IiB5PSIzMjkuNTg1OSI+VHImIzc4NDM7IHYmIzc4NzM7IGsmIzc4NzE7dCBxdSYjNzg0MzsgY2hvIG5nJiM0MzI7JiM3OTAxO2kgZCYjMjQ5O25nPC90ZXh0PjwhLS1TUkM9W1RQN0RJaUQwNTRSdFVPZ0ZCYUpIbGEwTkdiamYySEhLaEV0NnBOR285NEVKSVBuRVFoQ0s3eTJMMm5Ua0IyOEsxUlNjWThrMHhwNWx1YW9hVndCQkVfVVJDLVZVOExKNTRrU0o5ZnM0SUNLZkp1WEdnMHRQMjFxUDJ5TTRMbUVQT0RaUDNaSEZON0k5T2JTYWdfZ2N0V3VTSW5nbVlQOTR5TFpXWkNhZmYtbjJ4RlE4eURpMXVVODBsUDE0bjFLVWMtckwzN2piNnA5V2JUekhnLWVGWmJnXzk1b3FPeWNNejF5SHJ0N2lGQVdWNmthNmtoZnV2UTNiT3VmMDV4VlM2TlBpb19Xc3EweElKMVN0MGVoaF8zRlBKRGR2SkNtZ0JIYlBrS1gxVFZ3U09jT0U0OU9WRURyZkVaUFppcVFsV1J2Q0NxbnJfWUowZVg3cEYydnlYQm5TMjVvY0gzV2NYRmVBdDlTd2R2anVTT3NuQ0wwY09tekstSDlYUjlzWTVSdGZCWnM0Qmt1dmxESTByVmdyVkwzeE5KRmJjQXR5LUs4cmRRaGdLMVNGVjhzc2stWmh1aXVHcFZKcFA1RGNrR2N4b3R6cVFIMTMtNXpsNVdnbFYxVi1EbTAwXS0tPjwvZz48L3N2Zz4=;" vertex="1" parent="1">
            <mxGeometry x="-380" y="3220" width="902" height="430" as="geometry" />
          </mxCell>
        </UserObject>
        <mxCell id="pHtEFcCU99gmoeRJndIN-19" value="&lt;b&gt;Sequence Diagram 8: Orchestration Xử Lý Nhiều Nguồn Dữ Liệu&lt;/b&gt;" style="text;html=1;align=center;verticalAlign=middle;resizable=0;points=[];autosize=1;strokeColor=none;fillColor=none;" vertex="1" parent="1">
          <mxGeometry x="-430" y="3690" width="390" height="30" as="geometry" />
        </mxCell>
        <UserObject label="" plantUmlData="{&#xa;  &quot;data&quot;: &quot;@startuml\nparticipant \&quot;Orchestration Service\&quot; as Orch\nparticipant \&quot;AI Core Service\&quot; as AI\nparticipant \&quot;Document Processing Service\&quot; as DPS\n\nOrch -&gt; DPS: Yêu cầu nội dung từ file A, file B,...\nDPS --&gt; Orch: Trả về nội dung tổng hợp\nOrch -&gt; AI: Gửi nội dung tổng hợp để phân tích\nAI --&gt; Orch: Trả về kết quả phân tích semantic\n@enduml\n&quot;,&#xa;  &quot;format&quot;: &quot;svg&quot;&#xa;}" id="pHtEFcCU99gmoeRJndIN-20">
          <mxCell style="shape=image;noLabel=1;verticalAlign=top;aspect=fixed;imageAspect=0;image=data:image/svg+xml,PD94bWwgdmVyc2lvbj0iMS4wIiBlbmNvZGluZz0idXMtYXNjaWkiIHN0YW5kYWxvbmU9Im5vIj8+PHN2ZyB4bWxucz0iaHR0cDovL3d3dy53My5vcmcvMjAwMC9zdmciIHhtbG5zOnhsaW5rPSJodHRwOi8vd3d3LnczLm9yZy8xOTk5L3hsaW5rIiBjb250ZW50U3R5bGVUeXBlPSJ0ZXh0L2NzcyIgaGVpZ2h0PSIyMDBweCIgcHJlc2VydmVBc3BlY3RSYXRpbz0ibm9uZSIgc3R5bGU9IndpZHRoOjYyMnB4O2hlaWdodDoyMDBweDtiYWNrZ3JvdW5kOiNGRkZGRkY7IiB2ZXJzaW9uPSIxLjEiIHZpZXdCb3g9IjAgMCA2MjIgMjAwIiB3aWR0aD0iNjIycHgiIHpvb21BbmRQYW49Im1hZ25pZnkiPjxkZWZzLz48Zz48bGluZSBzdHlsZT0ic3Ryb2tlOiMxODE4MTg7c3Ryb2tlLXdpZHRoOjAuNTtzdHJva2UtZGFzaGFycmF5OjUuMCw1LjA7IiB4MT0iODUiIHgyPSI4NSIgeTE9IjM0Ljk4NDQiIHkyPSIxNjYuNjQwNiIvPjxsaW5lIHN0eWxlPSJzdHJva2U6IzE4MTgxODtzdHJva2Utd2lkdGg6MC41O3N0cm9rZS1kYXNoYXJyYXk6NS4wLDUuMDsiIHgxPSIzNDIiIHgyPSIzNDIiIHkxPSIzNC45ODQ0IiB5Mj0iMTY2LjY0MDYiLz48bGluZSBzdHlsZT0ic3Ryb2tlOiMxODE4MTg7c3Ryb2tlLXdpZHRoOjAuNTtzdHJva2UtZGFzaGFycmF5OjUuMCw1LjA7IiB4MT0iNTE0IiB4Mj0iNTE0IiB5MT0iMzQuOTg0NCIgeTI9IjE2Ni42NDA2Ii8+PHJlY3QgZmlsbD0iI0UyRTJGMCIgaGVpZ2h0PSIyOC45ODQ0IiByeD0iMi41IiByeT0iMi41IiBzdHlsZT0ic3Ryb2tlOiMxODE4MTg7c3Ryb2tlLXdpZHRoOjAuNTsiIHdpZHRoPSIxNjEiIHg9IjUiIHk9IjUiLz48dGV4dCBmaWxsPSIjMDAwMDAwIiBmb250LWZhbWlseT0ic2Fucy1zZXJpZiIgZm9udC1zaXplPSIxNCIgbGVuZ3RoQWRqdXN0PSJzcGFjaW5nIiB0ZXh0TGVuZ3RoPSIxNDciIHg9IjEyIiB5PSIyNS4yMzQ0Ij5PcmNoZXN0cmF0aW9uIFNlcnZpY2U8L3RleHQ+PHJlY3QgZmlsbD0iI0UyRTJGMCIgaGVpZ2h0PSIyOC45ODQ0IiByeD0iMi41IiByeT0iMi41IiBzdHlsZT0ic3Ryb2tlOiMxODE4MTg7c3Ryb2tlLXdpZHRoOjAuNTsiIHdpZHRoPSIxNjEiIHg9IjUiIHk9IjE2NS42NDA2Ii8+PHRleHQgZmlsbD0iIzAwMDAwMCIgZm9udC1mYW1pbHk9InNhbnMtc2VyaWYiIGZvbnQtc2l6ZT0iMTQiIGxlbmd0aEFkanVzdD0ic3BhY2luZyIgdGV4dExlbmd0aD0iMTQ3IiB4PSIxMiIgeT0iMTg1Ljg3NSI+T3JjaGVzdHJhdGlvbiBTZXJ2aWNlPC90ZXh0PjxyZWN0IGZpbGw9IiNFMkUyRjAiIGhlaWdodD0iMjguOTg0NCIgcng9IjIuNSIgcnk9IjIuNSIgc3R5bGU9InN0cm9rZTojMTgxODE4O3N0cm9rZS13aWR0aDowLjU7IiB3aWR0aD0iMTE5IiB4PSIyODMiIHk9IjUiLz48dGV4dCBmaWxsPSIjMDAwMDAwIiBmb250LWZhbWlseT0ic2Fucy1zZXJpZiIgZm9udC1zaXplPSIxNCIgbGVuZ3RoQWRqdXN0PSJzcGFjaW5nIiB0ZXh0TGVuZ3RoPSIxMDUiIHg9IjI5MCIgeT0iMjUuMjM0NCI+QUkgQ29yZSBTZXJ2aWNlPC90ZXh0PjxyZWN0IGZpbGw9IiNFMkUyRjAiIGhlaWdodD0iMjguOTg0NCIgcng9IjIuNSIgcnk9IjIuNSIgc3R5bGU9InN0cm9rZTojMTgxODE4O3N0cm9rZS13aWR0aDowLjU7IiB3aWR0aD0iMTE5IiB4PSIyODMiIHk9IjE2NS42NDA2Ii8+PHRleHQgZmlsbD0iIzAwMDAwMCIgZm9udC1mYW1pbHk9InNhbnMtc2VyaWYiIGZvbnQtc2l6ZT0iMTQiIGxlbmd0aEFkanVzdD0ic3BhY2luZyIgdGV4dExlbmd0aD0iMTA1IiB4PSIyOTAiIHk9IjE4NS44NzUiPkFJIENvcmUgU2VydmljZTwvdGV4dD48cmVjdCBmaWxsPSIjRTJFMkYwIiBoZWlnaHQ9IjI4Ljk4NDQiIHJ4PSIyLjUiIHJ5PSIyLjUiIHN0eWxlPSJzdHJva2U6IzE4MTgxODtzdHJva2Utd2lkdGg6MC41OyIgd2lkdGg9IjIwNCIgeD0iNDEyIiB5PSI1Ii8+PHRleHQgZmlsbD0iIzAwMDAwMCIgZm9udC1mYW1pbHk9InNhbnMtc2VyaWYiIGZvbnQtc2l6ZT0iMTQiIGxlbmd0aEFkanVzdD0ic3BhY2luZyIgdGV4dExlbmd0aD0iMTkwIiB4PSI0MTkiIHk9IjI1LjIzNDQiPkRvY3VtZW50IFByb2Nlc3NpbmcgU2VydmljZTwvdGV4dD48cmVjdCBmaWxsPSIjRTJFMkYwIiBoZWlnaHQ9IjI4Ljk4NDQiIHJ4PSIyLjUiIHJ5PSIyLjUiIHN0eWxlPSJzdHJva2U6IzE4MTgxODtzdHJva2Utd2lkdGg6MC41OyIgd2lkdGg9IjIwNCIgeD0iNDEyIiB5PSIxNjUuNjQwNiIvPjx0ZXh0IGZpbGw9IiMwMDAwMDAiIGZvbnQtZmFtaWx5PSJzYW5zLXNlcmlmIiBmb250LXNpemU9IjE0IiBsZW5ndGhBZGp1c3Q9InNwYWNpbmciIHRleHRMZW5ndGg9IjE5MCIgeD0iNDE5IiB5PSIxODUuODc1Ij5Eb2N1bWVudCBQcm9jZXNzaW5nIFNlcnZpY2U8L3RleHQ+PHBvbHlnb24gZmlsbD0iIzE4MTgxOCIgcG9pbnRzPSI1MDIsNjAuODk4NCw1MTIsNjQuODk4NCw1MDIsNjguODk4NCw1MDYsNjQuODk4NCIgc3R5bGU9InN0cm9rZTojMTgxODE4O3N0cm9rZS13aWR0aDoxLjA7Ii8+PGxpbmUgc3R5bGU9InN0cm9rZTojMTgxODE4O3N0cm9rZS13aWR0aDoxLjA7IiB4MT0iODUuNSIgeDI9IjUwOCIgeTE9IjY0Ljg5ODQiIHkyPSI2NC44OTg0Ii8+PHRleHQgZmlsbD0iIzAwMDAwMCIgZm9udC1mYW1pbHk9InNhbnMtc2VyaWYiIGZvbnQtc2l6ZT0iMTMiIGxlbmd0aEFkanVzdD0ic3BhY2luZyIgdGV4dExlbmd0aD0iMjUzIiB4PSI5Mi41IiB5PSI2MS4yNzM0Ij5ZJiMyMzQ7dSBjJiM3ODQ3O3UgbiYjNzg5NztpIGR1bmcgdCYjNzkxNTsgZmlsZSBBLCBmaWxlIEIsLi4uPC90ZXh0Pjxwb2x5Z29uIGZpbGw9IiMxODE4MTgiIHBvaW50cz0iOTYuNSw4OC44MTI1LDg2LjUsOTIuODEyNSw5Ni41LDk2LjgxMjUsOTIuNSw5Mi44MTI1IiBzdHlsZT0ic3Ryb2tlOiMxODE4MTg7c3Ryb2tlLXdpZHRoOjEuMDsiLz48bGluZSBzdHlsZT0ic3Ryb2tlOiMxODE4MTg7c3Ryb2tlLXdpZHRoOjEuMDtzdHJva2UtZGFzaGFycmF5OjIuMCwyLjA7IiB4MT0iOTAuNSIgeDI9IjUxMyIgeTE9IjkyLjgxMjUiIHkyPSI5Mi44MTI1Ii8+PHRleHQgZmlsbD0iIzAwMDAwMCIgZm9udC1mYW1pbHk9InNhbnMtc2VyaWYiIGZvbnQtc2l6ZT0iMTMiIGxlbmd0aEFkanVzdD0ic3BhY2luZyIgdGV4dExlbmd0aD0iMTY1IiB4PSIxMDIuNSIgeT0iODkuMTg3NSI+VHImIzc4NDM7IHYmIzc4NzM7IG4mIzc4OTc7aSBkdW5nIHQmIzc4OTM7bmcgaCYjNzkwNztwPC90ZXh0Pjxwb2x5Z29uIGZpbGw9IiMxODE4MTgiIHBvaW50cz0iMzMwLjUsMTE2LjcyNjYsMzQwLjUsMTIwLjcyNjYsMzMwLjUsMTI0LjcyNjYsMzM0LjUsMTIwLjcyNjYiIHN0eWxlPSJzdHJva2U6IzE4MTgxODtzdHJva2Utd2lkdGg6MS4wOyIvPjxsaW5lIHN0eWxlPSJzdHJva2U6IzE4MTgxODtzdHJva2Utd2lkdGg6MS4wOyIgeDE9Ijg1LjUiIHgyPSIzMzYuNSIgeTE9IjEyMC43MjY2IiB5Mj0iMTIwLjcyNjYiLz48dGV4dCBmaWxsPSIjMDAwMDAwIiBmb250LWZhbWlseT0ic2Fucy1zZXJpZiIgZm9udC1zaXplPSIxMyIgbGVuZ3RoQWRqdXN0PSJzcGFjaW5nIiB0ZXh0TGVuZ3RoPSIyMzMiIHg9IjkyLjUiIHk9IjExNy4xMDE2Ij5HJiM3OTE3O2kgbiYjNzg5NztpIGR1bmcgdCYjNzg5MztuZyBoJiM3OTA3O3AgJiMyNzM7JiM3ODc1OyBwaCYjMjI2O24gdCYjMjM3O2NoPC90ZXh0Pjxwb2x5Z29uIGZpbGw9IiMxODE4MTgiIHBvaW50cz0iOTYuNSwxNDQuNjQwNiw4Ni41LDE0OC42NDA2LDk2LjUsMTUyLjY0MDYsOTIuNSwxNDguNjQwNiIgc3R5bGU9InN0cm9rZTojMTgxODE4O3N0cm9rZS13aWR0aDoxLjA7Ii8+PGxpbmUgc3R5bGU9InN0cm9rZTojMTgxODE4O3N0cm9rZS13aWR0aDoxLjA7c3Ryb2tlLWRhc2hhcnJheToyLjAsMi4wOyIgeDE9IjkwLjUiIHgyPSIzNDEuNSIgeTE9IjE0OC42NDA2IiB5Mj0iMTQ4LjY0MDYiLz48dGV4dCBmaWxsPSIjMDAwMDAwIiBmb250LWZhbWlseT0ic2Fucy1zZXJpZiIgZm9udC1zaXplPSIxMyIgbGVuZ3RoQWRqdXN0PSJzcGFjaW5nIiB0ZXh0TGVuZ3RoPSIyMjQiIHg9IjEwMi41IiB5PSIxNDUuMDE1NiI+VHImIzc4NDM7IHYmIzc4NzM7IGsmIzc4NzE7dCBxdSYjNzg0MzsgcGgmIzIyNjtuIHQmIzIzNztjaCBzZW1hbnRpYzwvdGV4dD48IS0tU1JDPVtUUDB6SmlEMDQ4THhkLThmVFU4M2s0MG9INEFrT1lhcWJEUW91NTc4VWpjVno4V0pLNTNHYVc4OWIwanUybWZwYVJhOWtxQUF1WVlmdmt6eFJwSVo2LUQ4YTZ3S21zSFhIMmtqQ3VzWkpjNGZwT1E0ZEEybkk5REM3eDliWFFsRW8xNUxMY0RjdFdjX2JaNmhKSVVhalFHVUhsb3lOY1BQaWlSaThYSzVSZVNsM3k3emZ1Vll5NHd1eXI3WkU3cFpkWHVib2tiX2w5cGNVUHY1Mk1QSGNZbUF0MVpranpYbVUzeElsaU5HU2paZ19Rd29BZDNET0tWZElGby1TZFkxUmVTRjFKVml1bE5udTlFeExqcF9FM3B2cjNaV09VS3dGZTc0N20wMF0tLT48L2c+PC9zdmc+;" vertex="1" parent="1">
            <mxGeometry x="-395" y="3740" width="622" height="200" as="geometry" />
          </mxCell>
        </UserObject>
        <mxCell id="pHtEFcCU99gmoeRJndIN-21" value="&lt;b&gt;Sequence Diagram 9: Tạo Báo Cáo Tiến Độ (Gantt Chart)&lt;/b&gt;" style="text;html=1;align=center;verticalAlign=middle;resizable=0;points=[];autosize=1;strokeColor=none;fillColor=none;" vertex="1" parent="1">
          <mxGeometry x="-430" y="3998" width="350" height="30" as="geometry" />
        </mxCell>
        <UserObject label="" plantUmlData="{&#xa;  &quot;data&quot;: &quot;@startuml\nactor User\nparticipant \&quot;Visualization Service\\n(PlantUML/Diagram)\&quot; as VS\nparticipant \&quot;Backend API\&quot; as API\n\nUser -&gt; API: Yêu cầu báo cáo tiến độ\nAPI -&gt; VS: Yêu cầu tạo Gantt chart dựa trên dữ liệu dự án\nVS -&gt; VS: Sinh sơ đồ Gantt tự động\nVS --&gt; API: Trả về hình ảnh/sơ đồ\nAPI -&gt; User: Trả về báo cáo tiến độ\n@enduml\n&quot;,&#xa;  &quot;format&quot;: &quot;svg&quot;&#xa;}" id="pHtEFcCU99gmoeRJndIN-22">
          <mxCell style="shape=image;noLabel=1;verticalAlign=top;aspect=fixed;imageAspect=0;image=data:image/svg+xml,PD94bWwgdmVyc2lvbj0iMS4wIiBlbmNvZGluZz0idXMtYXNjaWkiIHN0YW5kYWxvbmU9Im5vIj8+PHN2ZyB4bWxucz0iaHR0cDovL3d3dy53My5vcmcvMjAwMC9zdmciIHhtbG5zOnhsaW5rPSJodHRwOi8vd3d3LnczLm9yZy8xOTk5L3hsaW5rIiBjb250ZW50U3R5bGVUeXBlPSJ0ZXh0L2NzcyIgaGVpZ2h0PSIzMzJweCIgcHJlc2VydmVBc3BlY3RSYXRpbz0ibm9uZSIgc3R5bGU9IndpZHRoOjUyMHB4O2hlaWdodDozMzJweDtiYWNrZ3JvdW5kOiNGRkZGRkY7IiB2ZXJzaW9uPSIxLjEiIHZpZXdCb3g9IjAgMCA1MjAgMzMyIiB3aWR0aD0iNTIwcHgiIHpvb21BbmRQYW49Im1hZ25pZnkiPjxkZWZzLz48Zz48bGluZSBzdHlsZT0ic3Ryb2tlOiMxODE4MTg7c3Ryb2tlLXdpZHRoOjAuNTtzdHJva2UtZGFzaGFycmF5OjUuMCw1LjA7IiB4MT0iMjIiIHgyPSIyMiIgeTE9Ijc5Ljk4NDQiIHkyPSIyNTIuNTU0NyIvPjxsaW5lIHN0eWxlPSJzdHJva2U6IzE4MTgxODtzdHJva2Utd2lkdGg6MC41O3N0cm9rZS1kYXNoYXJyYXk6NS4wLDUuMDsiIHgxPSIxMjkiIHgyPSIxMjkiIHkxPSI3OS45ODQ0IiB5Mj0iMjUyLjU1NDciLz48bGluZSBzdHlsZT0ic3Ryb2tlOiMxODE4MTg7c3Ryb2tlLXdpZHRoOjAuNTtzdHJva2UtZGFzaGFycmF5OjUuMCw1LjA7IiB4MT0iNDY4IiB4Mj0iNDY4IiB5MT0iNzkuOTg0NCIgeTI9IjI1Mi41NTQ3Ii8+PHRleHQgZmlsbD0iIzAwMDAwMCIgZm9udC1mYW1pbHk9InNhbnMtc2VyaWYiIGZvbnQtc2l6ZT0iMTQiIGxlbmd0aEFkanVzdD0ic3BhY2luZyIgdGV4dExlbmd0aD0iMjgiIHg9IjUiIHk9Ijc4LjIzNDQiPlVzZXI8L3RleHQ+PGVsbGlwc2UgY3g9IjIyIiBjeT0iMTMuNSIgZmlsbD0iI0UyRTJGMCIgcng9IjgiIHJ5PSI4IiBzdHlsZT0ic3Ryb2tlOiMxODE4MTg7c3Ryb2tlLXdpZHRoOjAuNTsiLz48cGF0aCBkPSJNMjIsMjEuNSBMMjIsNDguNSBNOSwyOS41IEwzNSwyOS41IE0yMiw0OC41IEw5LDYzLjUgTTIyLDQ4LjUgTDM1LDYzLjUgIiBmaWxsPSJub25lIiBzdHlsZT0ic3Ryb2tlOiMxODE4MTg7c3Ryb2tlLXdpZHRoOjAuNTsiLz48dGV4dCBmaWxsPSIjMDAwMDAwIiBmb250LWZhbWlseT0ic2Fucy1zZXJpZiIgZm9udC1zaXplPSIxNCIgbGVuZ3RoQWRqdXN0PSJzcGFjaW5nIiB0ZXh0TGVuZ3RoPSIyOCIgeD0iNSIgeT0iMjY0Ljc4OTEiPlVzZXI8L3RleHQ+PGVsbGlwc2UgY3g9IjIyIiBjeT0iMjc1LjAzOTEiIGZpbGw9IiNFMkUyRjAiIHJ4PSI4IiByeT0iOCIgc3R5bGU9InN0cm9rZTojMTgxODE4O3N0cm9rZS13aWR0aDowLjU7Ii8+PHBhdGggZD0iTTIyLDI4My4wMzkxIEwyMiwzMTAuMDM5MSBNOSwyOTEuMDM5MSBMMzUsMjkxLjAzOTEgTTIyLDMxMC4wMzkxIEw5LDMyNS4wMzkxIE0yMiwzMTAuMDM5MSBMMzUsMzI1LjAzOTEgIiBmaWxsPSJub25lIiBzdHlsZT0ic3Ryb2tlOiMxODE4MTg7c3Ryb2tlLXdpZHRoOjAuNTsiLz48cmVjdCBmaWxsPSIjRTJFMkYwIiBoZWlnaHQ9IjQzLjk2ODgiIHJ4PSIyLjUiIHJ5PSIyLjUiIHN0eWxlPSJzdHJva2U6IzE4MTgxODtzdHJva2Utd2lkdGg6MC41OyIgd2lkdGg9IjE2MSIgeD0iNDkiIHk9IjM1LjAxNTYiLz48dGV4dCBmaWxsPSIjMDAwMDAwIiBmb250LWZhbWlseT0ic2Fucy1zZXJpZiIgZm9udC1zaXplPSIxNCIgbGVuZ3RoQWRqdXN0PSJzcGFjaW5nIiB0ZXh0TGVuZ3RoPSIxNDciIHg9IjU2IiB5PSI1NS4yNSI+VmlzdWFsaXphdGlvbiBTZXJ2aWNlPC90ZXh0Pjx0ZXh0IGZpbGw9IiMwMDAwMDAiIGZvbnQtZmFtaWx5PSJzYW5zLXNlcmlmIiBmb250LXNpemU9IjE0IiBsZW5ndGhBZGp1c3Q9InNwYWNpbmciIHRleHRMZW5ndGg9IjEyOSIgeD0iNjUiIHk9IjcwLjIzNDQiPihQbGFudFVNTC9EaWFncmFtKTwvdGV4dD48cmVjdCBmaWxsPSIjRTJFMkYwIiBoZWlnaHQ9IjQzLjk2ODgiIHJ4PSIyLjUiIHJ5PSIyLjUiIHN0eWxlPSJzdHJva2U6IzE4MTgxODtzdHJva2Utd2lkdGg6MC41OyIgd2lkdGg9IjE2MSIgeD0iNDkiIHk9IjI1MS41NTQ3Ii8+PHRleHQgZmlsbD0iIzAwMDAwMCIgZm9udC1mYW1pbHk9InNhbnMtc2VyaWYiIGZvbnQtc2l6ZT0iMTQiIGxlbmd0aEFkanVzdD0ic3BhY2luZyIgdGV4dExlbmd0aD0iMTQ3IiB4PSI1NiIgeT0iMjcxLjc4OTEiPlZpc3VhbGl6YXRpb24gU2VydmljZTwvdGV4dD48dGV4dCBmaWxsPSIjMDAwMDAwIiBmb250LWZhbWlseT0ic2Fucy1zZXJpZiIgZm9udC1zaXplPSIxNCIgbGVuZ3RoQWRqdXN0PSJzcGFjaW5nIiB0ZXh0TGVuZ3RoPSIxMjkiIHg9IjY1IiB5PSIyODYuNzczNCI+KFBsYW50VU1ML0RpYWdyYW0pPC90ZXh0PjxyZWN0IGZpbGw9IiNFMkUyRjAiIGhlaWdodD0iMjguOTg0NCIgcng9IjIuNSIgcnk9IjIuNSIgc3R5bGU9InN0cm9rZTojMTgxODE4O3N0cm9rZS13aWR0aDowLjU7IiB3aWR0aD0iOTEiIHg9IjQyMyIgeT0iNTAiLz48dGV4dCBmaWxsPSIjMDAwMDAwIiBmb250LWZhbWlseT0ic2Fucy1zZXJpZiIgZm9udC1zaXplPSIxNCIgbGVuZ3RoQWRqdXN0PSJzcGFjaW5nIiB0ZXh0TGVuZ3RoPSI3NyIgeD0iNDMwIiB5PSI3MC4yMzQ0Ij5CYWNrZW5kIEFQSTwvdGV4dD48cmVjdCBmaWxsPSIjRTJFMkYwIiBoZWlnaHQ9IjI4Ljk4NDQiIHJ4PSIyLjUiIHJ5PSIyLjUiIHN0eWxlPSJzdHJva2U6IzE4MTgxODtzdHJva2Utd2lkdGg6MC41OyIgd2lkdGg9IjkxIiB4PSI0MjMiIHk9IjI1MS41NTQ3Ii8+PHRleHQgZmlsbD0iIzAwMDAwMCIgZm9udC1mYW1pbHk9InNhbnMtc2VyaWYiIGZvbnQtc2l6ZT0iMTQiIGxlbmd0aEFkanVzdD0ic3BhY2luZyIgdGV4dExlbmd0aD0iNzciIHg9IjQzMCIgeT0iMjcxLjc4OTEiPkJhY2tlbmQgQVBJPC90ZXh0Pjxwb2x5Z29uIGZpbGw9IiMxODE4MTgiIHBvaW50cz0iNDU2LjUsMTA1Ljg5ODQsNDY2LjUsMTA5Ljg5ODQsNDU2LjUsMTEzLjg5ODQsNDYwLjUsMTA5Ljg5ODQiIHN0eWxlPSJzdHJva2U6IzE4MTgxODtzdHJva2Utd2lkdGg6MS4wOyIvPjxsaW5lIHN0eWxlPSJzdHJva2U6IzE4MTgxODtzdHJva2Utd2lkdGg6MS4wOyIgeDE9IjIyIiB4Mj0iNDYyLjUiIHkxPSIxMDkuODk4NCIgeTI9IjEwOS44OTg0Ii8+PHRleHQgZmlsbD0iIzAwMDAwMCIgZm9udC1mYW1pbHk9InNhbnMtc2VyaWYiIGZvbnQtc2l6ZT0iMTMiIGxlbmd0aEFkanVzdD0ic3BhY2luZyIgdGV4dExlbmd0aD0iMTU5IiB4PSIyOSIgeT0iMTA2LjI3MzQiPlkmIzIzNDt1IGMmIzc4NDc7dSBiJiMyMjU7byBjJiMyMjU7byB0aSYjNzg3MTtuICYjMjczOyYjNzg5Nzs8L3RleHQ+PHBvbHlnb24gZmlsbD0iIzE4MTgxOCIgcG9pbnRzPSIxNDAuNSwxMzMuODEyNSwxMzAuNSwxMzcuODEyNSwxNDAuNSwxNDEuODEyNSwxMzYuNSwxMzcuODEyNSIgc3R5bGU9InN0cm9rZTojMTgxODE4O3N0cm9rZS13aWR0aDoxLjA7Ii8+PGxpbmUgc3R5bGU9InN0cm9rZTojMTgxODE4O3N0cm9rZS13aWR0aDoxLjA7IiB4MT0iMTM0LjUiIHgyPSI0NjcuNSIgeTE9IjEzNy44MTI1IiB5Mj0iMTM3LjgxMjUiLz48dGV4dCBmaWxsPSIjMDAwMDAwIiBmb250LWZhbWlseT0ic2Fucy1zZXJpZiIgZm9udC1zaXplPSIxMyIgbGVuZ3RoQWRqdXN0PSJzcGFjaW5nIiB0ZXh0TGVuZ3RoPSIzMTUiIHg9IjE0Ni41IiB5PSIxMzQuMTg3NSI+WSYjMjM0O3UgYyYjNzg0Nzt1IHQmIzc4NDE7byBHYW50dCBjaGFydCBkJiM3OTIxO2EgdHImIzIzNDtuIGQmIzc5MTk7IGxpJiM3ODc5O3UgZCYjNzkyMTsgJiMyMjU7bjwvdGV4dD48bGluZSBzdHlsZT0ic3Ryb2tlOiMxODE4MTg7c3Ryb2tlLXdpZHRoOjEuMDsiIHgxPSIxMjkuNSIgeDI9IjE3MS41IiB5MT0iMTY1LjcyNjYiIHkyPSIxNjUuNzI2NiIvPjxsaW5lIHN0eWxlPSJzdHJva2U6IzE4MTgxODtzdHJva2Utd2lkdGg6MS4wOyIgeDE9IjE3MS41IiB4Mj0iMTcxLjUiIHkxPSIxNjUuNzI2NiIgeTI9IjE3OC43MjY2Ii8+PGxpbmUgc3R5bGU9InN0cm9rZTojMTgxODE4O3N0cm9rZS13aWR0aDoxLjA7IiB4MT0iMTMwLjUiIHgyPSIxNzEuNSIgeTE9IjE3OC43MjY2IiB5Mj0iMTc4LjcyNjYiLz48cG9seWdvbiBmaWxsPSIjMTgxODE4IiBwb2ludHM9IjE0MC41LDE3NC43MjY2LDEzMC41LDE3OC43MjY2LDE0MC41LDE4Mi43MjY2LDEzNi41LDE3OC43MjY2IiBzdHlsZT0ic3Ryb2tlOiMxODE4MTg7c3Ryb2tlLXdpZHRoOjEuMDsiLz48dGV4dCBmaWxsPSIjMDAwMDAwIiBmb250LWZhbWlseT0ic2Fucy1zZXJpZiIgZm9udC1zaXplPSIxMyIgbGVuZ3RoQWRqdXN0PSJzcGFjaW5nIiB0ZXh0TGVuZ3RoPSIxNjQiIHg9IjEzNi41IiB5PSIxNjIuMTAxNiI+U2luaCBzJiM0MTc7ICYjMjczOyYjNzg5MTsgR2FudHQgdCYjNzkyMTsgJiMyNzM7JiM3ODk3O25nPC90ZXh0Pjxwb2x5Z29uIGZpbGw9IiMxODE4MTgiIHBvaW50cz0iNDU2LjUsMjAyLjY0MDYsNDY2LjUsMjA2LjY0MDYsNDU2LjUsMjEwLjY0MDYsNDYwLjUsMjA2LjY0MDYiIHN0eWxlPSJzdHJva2U6IzE4MTgxODtzdHJva2Utd2lkdGg6MS4wOyIvPjxsaW5lIHN0eWxlPSJzdHJva2U6IzE4MTgxODtzdHJva2Utd2lkdGg6MS4wO3N0cm9rZS1kYXNoYXJyYXk6Mi4wLDIuMDsiIHgxPSIxMjkuNSIgeDI9IjQ2Mi41IiB5MT0iMjA2LjY0MDYiIHkyPSIyMDYuNjQwNiIvPjx0ZXh0IGZpbGw9IiMwMDAwMDAiIGZvbnQtZmFtaWx5PSJzYW5zLXNlcmlmIiBmb250LXNpemU9IjEzIiBsZW5ndGhBZGp1c3Q9InNwYWNpbmciIHRleHRMZW5ndGg9IjE0NSIgeD0iMTM2LjUiIHk9IjIwMy4wMTU2Ij5UciYjNzg0MzsgdiYjNzg3MzsgaCYjMjM2O25oICYjNzg0MztuaC9zJiM0MTc7ICYjMjczOyYjNzg5MTs8L3RleHQ+PHBvbHlnb24gZmlsbD0iIzE4MTgxOCIgcG9pbnRzPSIzMywyMzAuNTU0NywyMywyMzQuNTU0NywzMywyMzguNTU0NywyOSwyMzQuNTU0NyIgc3R5bGU9InN0cm9rZTojMTgxODE4O3N0cm9rZS13aWR0aDoxLjA7Ii8+PGxpbmUgc3R5bGU9InN0cm9rZTojMTgxODE4O3N0cm9rZS13aWR0aDoxLjA7IiB4MT0iMjciIHgyPSI0NjcuNSIgeTE9IjIzNC41NTQ3IiB5Mj0iMjM0LjU1NDciLz48dGV4dCBmaWxsPSIjMDAwMDAwIiBmb250LWZhbWlseT0ic2Fucy1zZXJpZiIgZm9udC1zaXplPSIxMyIgbGVuZ3RoQWRqdXN0PSJzcGFjaW5nIiB0ZXh0TGVuZ3RoPSIxNTEiIHg9IjM5IiB5PSIyMzAuOTI5NyI+VHImIzc4NDM7IHYmIzc4NzM7IGImIzIyNTtvIGMmIzIyNTtvIHRpJiM3ODcxO24gJiMyNzM7JiM3ODk3OzwvdGV4dD48IS0tU1JDPVtSTy1uSVdHbjQ4UnhGQ05GTExoOHpITzdZWTIybWE3azVXSVJDUlZTMWpWUDh2a3ptaXhBTWdtaTVtbFg0Q0hzangyOC0xdnY0dkZXMldpc2F2ZEN6eXlfR3lmTTFpaXdEczkzbmNnYkR5R01hcXBOM1BOd1pnb2s2Mzh0TXd0b0F6d1JidzZ6bDNZVmRjWFE2eGhUZHUxZ1A3QWlGWVByYV9DQUhfRXByMC1sNEQ0NDF4RE83RUJJeEhlZXR4cXNrN1BqMUhNM3JSeHhQN216LWx2UDEycEljSHAxcmRTMUYwcWs1Z2U4ZGJadl9lRFdaVGpucER6SFFqeV9ERWFWaGNNSG9NNkVyNW9XX2N3Sm16Rmw1MWt2UENkaG4wdWhCZXBsTmgzcl9KcUF6blFLZVVIWS1nU1ZEZW50WlVaXzNfZTFdLS0+PC9nPjwvc3ZnPg==;" vertex="1" parent="1">
            <mxGeometry x="-410" y="4050" width="520" height="332" as="geometry" />
          </mxCell>
        </UserObject>
        <mxCell id="pHtEFcCU99gmoeRJndIN-23" value="&lt;b&gt;Sequence Diagram 10: Sinh Sequence Diagram Tự Động&lt;/b&gt;" style="text;html=1;align=center;verticalAlign=middle;resizable=0;points=[];autosize=1;strokeColor=none;fillColor=none;" vertex="1" parent="1">
          <mxGeometry x="-410" y="4440" width="350" height="30" as="geometry" />
        </mxCell>
        <UserObject label="" plantUmlData="{&#xa;  &quot;data&quot;: &quot;@startuml\nactor User\nparticipant \&quot;Visualization Service\&quot; as VS\nparticipant \&quot;AI Core Service\&quot; as AI\nparticipant \&quot;Backend API\&quot; as API\n\nUser -&gt; API: Yêu cầu sinh Sequence Diagram cho flow X\nAPI -&gt; AI: Yêu cầu phân tích flow và trích xuất các bước\nAI --&gt; API: Trả về danh sách các bước của flow\nAPI -&gt; VS: Gửi dữ liệu để sinh Sequence Diagram (PlantUML)\nVS -&gt; VS: Tự động sinh sơ đồ\nVS --&gt; API: Trả về sơ đồ đã sinh\nAPI -&gt; User: Hiển thị sơ đồ\n@enduml\n&quot;,&#xa;  &quot;format&quot;: &quot;svg&quot;&#xa;}" id="pHtEFcCU99gmoeRJndIN-24">
          <mxCell style="shape=image;noLabel=1;verticalAlign=top;aspect=fixed;imageAspect=0;image=data:image/svg+xml,PD94bWwgdmVyc2lvbj0iMS4wIiBlbmNvZGluZz0idXMtYXNjaWkiIHN0YW5kYWxvbmU9Im5vIj8+PHN2ZyB4bWxucz0iaHR0cDovL3d3dy53My5vcmcvMjAwMC9zdmciIHhtbG5zOnhsaW5rPSJodHRwOi8vd3d3LnczLm9yZy8xOTk5L3hsaW5rIiBjb250ZW50U3R5bGVUeXBlPSJ0ZXh0L2NzcyIgaGVpZ2h0PSIzODdweCIgcHJlc2VydmVBc3BlY3RSYXRpbz0ibm9uZSIgc3R5bGU9IndpZHRoOjY2MnB4O2hlaWdodDozODdweDtiYWNrZ3JvdW5kOiNGRkZGRkY7IiB2ZXJzaW9uPSIxLjEiIHZpZXdCb3g9IjAgMCA2NjIgMzg3IiB3aWR0aD0iNjYycHgiIHpvb21BbmRQYW49Im1hZ25pZnkiPjxkZWZzLz48Zz48bGluZSBzdHlsZT0ic3Ryb2tlOiMxODE4MTg7c3Ryb2tlLXdpZHRoOjAuNTtzdHJva2UtZGFzaGFycmF5OjUuMCw1LjA7IiB4MT0iMjIiIHgyPSIyMiIgeTE9Ijc5Ljk4NDQiIHkyPSIzMDguMzgyOCIvPjxsaW5lIHN0eWxlPSJzdHJva2U6IzE4MTgxODtzdHJva2Utd2lkdGg6MC41O3N0cm9rZS1kYXNoYXJyYXk6NS4wLDUuMDsiIHgxPSIxMjkiIHgyPSIxMjkiIHkxPSI3OS45ODQ0IiB5Mj0iMzA4LjM4MjgiLz48bGluZSBzdHlsZT0ic3Ryb2tlOiMxODE4MTg7c3Ryb2tlLXdpZHRoOjAuNTtzdHJva2UtZGFzaGFycmF5OjUuMCw1LjA7IiB4MT0iMjc5IiB4Mj0iMjc5IiB5MT0iNzkuOTg0NCIgeTI9IjMwOC4zODI4Ii8+PGxpbmUgc3R5bGU9InN0cm9rZTojMTgxODE4O3N0cm9rZS13aWR0aDowLjU7c3Ryb2tlLWRhc2hhcnJheTo1LjAsNS4wOyIgeDE9IjYxMCIgeDI9IjYxMCIgeTE9Ijc5Ljk4NDQiIHkyPSIzMDguMzgyOCIvPjx0ZXh0IGZpbGw9IiMwMDAwMDAiIGZvbnQtZmFtaWx5PSJzYW5zLXNlcmlmIiBmb250LXNpemU9IjE0IiBsZW5ndGhBZGp1c3Q9InNwYWNpbmciIHRleHRMZW5ndGg9IjI4IiB4PSI1IiB5PSI3OC4yMzQ0Ij5Vc2VyPC90ZXh0PjxlbGxpcHNlIGN4PSIyMiIgY3k9IjEzLjUiIGZpbGw9IiNFMkUyRjAiIHJ4PSI4IiByeT0iOCIgc3R5bGU9InN0cm9rZTojMTgxODE4O3N0cm9rZS13aWR0aDowLjU7Ii8+PHBhdGggZD0iTTIyLDIxLjUgTDIyLDQ4LjUgTTksMjkuNSBMMzUsMjkuNSBNMjIsNDguNSBMOSw2My41IE0yMiw0OC41IEwzNSw2My41ICIgZmlsbD0ibm9uZSIgc3R5bGU9InN0cm9rZTojMTgxODE4O3N0cm9rZS13aWR0aDowLjU7Ii8+PHRleHQgZmlsbD0iIzAwMDAwMCIgZm9udC1mYW1pbHk9InNhbnMtc2VyaWYiIGZvbnQtc2l6ZT0iMTQiIGxlbmd0aEFkanVzdD0ic3BhY2luZyIgdGV4dExlbmd0aD0iMjgiIHg9IjUiIHk9IjMyMC42MTcyIj5Vc2VyPC90ZXh0PjxlbGxpcHNlIGN4PSIyMiIgY3k9IjMzMC44NjcyIiBmaWxsPSIjRTJFMkYwIiByeD0iOCIgcnk9IjgiIHN0eWxlPSJzdHJva2U6IzE4MTgxODtzdHJva2Utd2lkdGg6MC41OyIvPjxwYXRoIGQ9Ik0yMiwzMzguODY3MiBMMjIsMzY1Ljg2NzIgTTksMzQ2Ljg2NzIgTDM1LDM0Ni44NjcyIE0yMiwzNjUuODY3MiBMOSwzODAuODY3MiBNMjIsMzY1Ljg2NzIgTDM1LDM4MC44NjcyICIgZmlsbD0ibm9uZSIgc3R5bGU9InN0cm9rZTojMTgxODE4O3N0cm9rZS13aWR0aDowLjU7Ii8+PHJlY3QgZmlsbD0iI0UyRTJGMCIgaGVpZ2h0PSIyOC45ODQ0IiByeD0iMi41IiByeT0iMi41IiBzdHlsZT0ic3Ryb2tlOiMxODE4MTg7c3Ryb2tlLXdpZHRoOjAuNTsiIHdpZHRoPSIxNjEiIHg9IjQ5IiB5PSI1MCIvPjx0ZXh0IGZpbGw9IiMwMDAwMDAiIGZvbnQtZmFtaWx5PSJzYW5zLXNlcmlmIiBmb250LXNpemU9IjE0IiBsZW5ndGhBZGp1c3Q9InNwYWNpbmciIHRleHRMZW5ndGg9IjE0NyIgeD0iNTYiIHk9IjcwLjIzNDQiPlZpc3VhbGl6YXRpb24gU2VydmljZTwvdGV4dD48cmVjdCBmaWxsPSIjRTJFMkYwIiBoZWlnaHQ9IjI4Ljk4NDQiIHJ4PSIyLjUiIHJ5PSIyLjUiIHN0eWxlPSJzdHJva2U6IzE4MTgxODtzdHJva2Utd2lkdGg6MC41OyIgd2lkdGg9IjE2MSIgeD0iNDkiIHk9IjMwNy4zODI4Ii8+PHRleHQgZmlsbD0iIzAwMDAwMCIgZm9udC1mYW1pbHk9InNhbnMtc2VyaWYiIGZvbnQtc2l6ZT0iMTQiIGxlbmd0aEFkanVzdD0ic3BhY2luZyIgdGV4dExlbmd0aD0iMTQ3IiB4PSI1NiIgeT0iMzI3LjYxNzIiPlZpc3VhbGl6YXRpb24gU2VydmljZTwvdGV4dD48cmVjdCBmaWxsPSIjRTJFMkYwIiBoZWlnaHQ9IjI4Ljk4NDQiIHJ4PSIyLjUiIHJ5PSIyLjUiIHN0eWxlPSJzdHJva2U6IzE4MTgxODtzdHJva2Utd2lkdGg6MC41OyIgd2lkdGg9IjExOSIgeD0iMjIwIiB5PSI1MCIvPjx0ZXh0IGZpbGw9IiMwMDAwMDAiIGZvbnQtZmFtaWx5PSJzYW5zLXNlcmlmIiBmb250LXNpemU9IjE0IiBsZW5ndGhBZGp1c3Q9InNwYWNpbmciIHRleHRMZW5ndGg9IjEwNSIgeD0iMjI3IiB5PSI3MC4yMzQ0Ij5BSSBDb3JlIFNlcnZpY2U8L3RleHQ+PHJlY3QgZmlsbD0iI0UyRTJGMCIgaGVpZ2h0PSIyOC45ODQ0IiByeD0iMi41IiByeT0iMi41IiBzdHlsZT0ic3Ryb2tlOiMxODE4MTg7c3Ryb2tlLXdpZHRoOjAuNTsiIHdpZHRoPSIxMTkiIHg9IjIyMCIgeT0iMzA3LjM4MjgiLz48dGV4dCBmaWxsPSIjMDAwMDAwIiBmb250LWZhbWlseT0ic2Fucy1zZXJpZiIgZm9udC1zaXplPSIxNCIgbGVuZ3RoQWRqdXN0PSJzcGFjaW5nIiB0ZXh0TGVuZ3RoPSIxMDUiIHg9IjIyNyIgeT0iMzI3LjYxNzIiPkFJIENvcmUgU2VydmljZTwvdGV4dD48cmVjdCBmaWxsPSIjRTJFMkYwIiBoZWlnaHQ9IjI4Ljk4NDQiIHJ4PSIyLjUiIHJ5PSIyLjUiIHN0eWxlPSJzdHJva2U6IzE4MTgxODtzdHJva2Utd2lkdGg6MC41OyIgd2lkdGg9IjkxIiB4PSI1NjUiIHk9IjUwIi8+PHRleHQgZmlsbD0iIzAwMDAwMCIgZm9udC1mYW1pbHk9InNhbnMtc2VyaWYiIGZvbnQtc2l6ZT0iMTQiIGxlbmd0aEFkanVzdD0ic3BhY2luZyIgdGV4dExlbmd0aD0iNzciIHg9IjU3MiIgeT0iNzAuMjM0NCI+QmFja2VuZCBBUEk8L3RleHQ+PHJlY3QgZmlsbD0iI0UyRTJGMCIgaGVpZ2h0PSIyOC45ODQ0IiByeD0iMi41IiByeT0iMi41IiBzdHlsZT0ic3Ryb2tlOiMxODE4MTg7c3Ryb2tlLXdpZHRoOjAuNTsiIHdpZHRoPSI5MSIgeD0iNTY1IiB5PSIzMDcuMzgyOCIvPjx0ZXh0IGZpbGw9IiMwMDAwMDAiIGZvbnQtZmFtaWx5PSJzYW5zLXNlcmlmIiBmb250LXNpemU9IjE0IiBsZW5ndGhBZGp1c3Q9InNwYWNpbmciIHRleHRMZW5ndGg9Ijc3IiB4PSI1NzIiIHk9IjMyNy42MTcyIj5CYWNrZW5kIEFQSTwvdGV4dD48cG9seWdvbiBmaWxsPSIjMTgxODE4IiBwb2ludHM9IjU5OC41LDEwNS44OTg0LDYwOC41LDEwOS44OTg0LDU5OC41LDExMy44OTg0LDYwMi41LDEwOS44OTg0IiBzdHlsZT0ic3Ryb2tlOiMxODE4MTg7c3Ryb2tlLXdpZHRoOjEuMDsiLz48bGluZSBzdHlsZT0ic3Ryb2tlOiMxODE4MTg7c3Ryb2tlLXdpZHRoOjEuMDsiIHgxPSIyMiIgeDI9IjYwNC41IiB5MT0iMTA5Ljg5ODQiIHkyPSIxMDkuODk4NCIvPjx0ZXh0IGZpbGw9IiMwMDAwMDAiIGZvbnQtZmFtaWx5PSJzYW5zLXNlcmlmIiBmb250LXNpemU9IjEzIiBsZW5ndGhBZGp1c3Q9InNwYWNpbmciIHRleHRMZW5ndGg9IjI3NCIgeD0iMjkiIHk9IjEwNi4yNzM0Ij5ZJiMyMzQ7dSBjJiM3ODQ3O3Ugc2luaCBTZXF1ZW5jZSBEaWFncmFtIGNobyBmbG93IFg8L3RleHQ+PHBvbHlnb24gZmlsbD0iIzE4MTgxOCIgcG9pbnRzPSIyOTAuNSwxMzMuODEyNSwyODAuNSwxMzcuODEyNSwyOTAuNSwxNDEuODEyNSwyODYuNSwxMzcuODEyNSIgc3R5bGU9InN0cm9rZTojMTgxODE4O3N0cm9rZS13aWR0aDoxLjA7Ii8+PGxpbmUgc3R5bGU9InN0cm9rZTojMTgxODE4O3N0cm9rZS13aWR0aDoxLjA7IiB4MT0iMjg0LjUiIHgyPSI2MDkuNSIgeTE9IjEzNy44MTI1IiB5Mj0iMTM3LjgxMjUiLz48dGV4dCBmaWxsPSIjMDAwMDAwIiBmb250LWZhbWlseT0ic2Fucy1zZXJpZiIgZm9udC1zaXplPSIxMyIgbGVuZ3RoQWRqdXN0PSJzcGFjaW5nIiB0ZXh0TGVuZ3RoPSIzMDciIHg9IjI5Ni41IiB5PSIxMzQuMTg3NSI+WSYjMjM0O3UgYyYjNzg0Nzt1IHBoJiMyMjY7biB0JiMyMzc7Y2ggZmxvdyB2JiMyMjQ7IHRyJiMyMzc7Y2ggeHUmIzc4NDU7dCBjJiMyMjU7YyBiJiM0MzI7JiM3ODk5O2M8L3RleHQ+PHBvbHlnb24gZmlsbD0iIzE4MTgxOCIgcG9pbnRzPSI1OTguNSwxNjEuNzI2Niw2MDguNSwxNjUuNzI2Niw1OTguNSwxNjkuNzI2Niw2MDIuNSwxNjUuNzI2NiIgc3R5bGU9InN0cm9rZTojMTgxODE4O3N0cm9rZS13aWR0aDoxLjA7Ii8+PGxpbmUgc3R5bGU9InN0cm9rZTojMTgxODE4O3N0cm9rZS13aWR0aDoxLjA7c3Ryb2tlLWRhc2hhcnJheToyLjAsMi4wOyIgeDE9IjI3OS41IiB4Mj0iNjA0LjUiIHkxPSIxNjUuNzI2NiIgeTI9IjE2NS43MjY2Ii8+PHRleHQgZmlsbD0iIzAwMDAwMCIgZm9udC1mYW1pbHk9InNhbnMtc2VyaWYiIGZvbnQtc2l6ZT0iMTMiIGxlbmd0aEFkanVzdD0ic3BhY2luZyIgdGV4dExlbmd0aD0iMjM0IiB4PSIyODYuNSIgeT0iMTYyLjEwMTYiPlRyJiM3ODQzOyB2JiM3ODczOyBkYW5oIHMmIzIyNTtjaCBjJiMyMjU7YyBiJiM0MzI7JiM3ODk5O2MgYyYjNzkxMTthIGZsb3c8L3RleHQ+PHBvbHlnb24gZmlsbD0iIzE4MTgxOCIgcG9pbnRzPSIxNDAuNSwxODkuNjQwNiwxMzAuNSwxOTMuNjQwNiwxNDAuNSwxOTcuNjQwNiwxMzYuNSwxOTMuNjQwNiIgc3R5bGU9InN0cm9rZTojMTgxODE4O3N0cm9rZS13aWR0aDoxLjA7Ii8+PGxpbmUgc3R5bGU9InN0cm9rZTojMTgxODE4O3N0cm9rZS13aWR0aDoxLjA7IiB4MT0iMTM0LjUiIHgyPSI2MDkuNSIgeTE9IjE5My42NDA2IiB5Mj0iMTkzLjY0MDYiLz48dGV4dCBmaWxsPSIjMDAwMDAwIiBmb250LWZhbWlseT0ic2Fucy1zZXJpZiIgZm9udC1zaXplPSIxMyIgbGVuZ3RoQWRqdXN0PSJzcGFjaW5nIiB0ZXh0TGVuZ3RoPSIzMTkiIHg9IjE0Ni41IiB5PSIxOTAuMDE1NiI+RyYjNzkxNztpIGQmIzc5MTk7IGxpJiM3ODc5O3UgJiMyNzM7JiM3ODc1OyBzaW5oIFNlcXVlbmNlIERpYWdyYW0gKFBsYW50VU1MKTwvdGV4dD48bGluZSBzdHlsZT0ic3Ryb2tlOiMxODE4MTg7c3Ryb2tlLXdpZHRoOjEuMDsiIHgxPSIxMjkuNSIgeDI9IjE3MS41IiB5MT0iMjIxLjU1NDciIHkyPSIyMjEuNTU0NyIvPjxsaW5lIHN0eWxlPSJzdHJva2U6IzE4MTgxODtzdHJva2Utd2lkdGg6MS4wOyIgeDE9IjE3MS41IiB4Mj0iMTcxLjUiIHkxPSIyMjEuNTU0NyIgeTI9IjIzNC41NTQ3Ii8+PGxpbmUgc3R5bGU9InN0cm9rZTojMTgxODE4O3N0cm9rZS13aWR0aDoxLjA7IiB4MT0iMTMwLjUiIHgyPSIxNzEuNSIgeTE9IjIzNC41NTQ3IiB5Mj0iMjM0LjU1NDciLz48cG9seWdvbiBmaWxsPSIjMTgxODE4IiBwb2ludHM9IjE0MC41LDIzMC41NTQ3LDEzMC41LDIzNC41NTQ3LDE0MC41LDIzOC41NTQ3LDEzNi41LDIzNC41NTQ3IiBzdHlsZT0ic3Ryb2tlOiMxODE4MTg7c3Ryb2tlLXdpZHRoOjEuMDsiLz48dGV4dCBmaWxsPSIjMDAwMDAwIiBmb250LWZhbWlseT0ic2Fucy1zZXJpZiIgZm9udC1zaXplPSIxMyIgbGVuZ3RoQWRqdXN0PSJzcGFjaW5nIiB0ZXh0TGVuZ3RoPSIxMjQiIHg9IjEzNi41IiB5PSIyMTcuOTI5NyI+VCYjNzkyMTsgJiMyNzM7JiM3ODk3O25nIHNpbmggcyYjNDE3OyAmIzI3MzsmIzc4OTE7PC90ZXh0Pjxwb2x5Z29uIGZpbGw9IiMxODE4MTgiIHBvaW50cz0iNTk4LjUsMjU4LjQ2ODgsNjA4LjUsMjYyLjQ2ODgsNTk4LjUsMjY2LjQ2ODgsNjAyLjUsMjYyLjQ2ODgiIHN0eWxlPSJzdHJva2U6IzE4MTgxODtzdHJva2Utd2lkdGg6MS4wOyIvPjxsaW5lIHN0eWxlPSJzdHJva2U6IzE4MTgxODtzdHJva2Utd2lkdGg6MS4wO3N0cm9rZS1kYXNoYXJyYXk6Mi4wLDIuMDsiIHgxPSIxMjkuNSIgeDI9IjYwNC41IiB5MT0iMjYyLjQ2ODgiIHkyPSIyNjIuNDY4OCIvPjx0ZXh0IGZpbGw9IiMwMDAwMDAiIGZvbnQtZmFtaWx5PSJzYW5zLXNlcmlmIiBmb250LXNpemU9IjEzIiBsZW5ndGhBZGp1c3Q9InNwYWNpbmciIHRleHRMZW5ndGg9IjEzOCIgeD0iMTM2LjUiIHk9IjI1OC44NDM4Ij5UciYjNzg0MzsgdiYjNzg3MzsgcyYjNDE3OyAmIzI3MzsmIzc4OTE7ICYjMjczOyYjMjI3OyBzaW5oPC90ZXh0Pjxwb2x5Z29uIGZpbGw9IiMxODE4MTgiIHBvaW50cz0iMzMsMjg2LjM4MjgsMjMsMjkwLjM4MjgsMzMsMjk0LjM4MjgsMjksMjkwLjM4MjgiIHN0eWxlPSJzdHJva2U6IzE4MTgxODtzdHJva2Utd2lkdGg6MS4wOyIvPjxsaW5lIHN0eWxlPSJzdHJva2U6IzE4MTgxODtzdHJva2Utd2lkdGg6MS4wOyIgeDE9IjI3IiB4Mj0iNjA5LjUiIHkxPSIyOTAuMzgyOCIgeTI9IjI5MC4zODI4Ii8+PHRleHQgZmlsbD0iIzAwMDAwMCIgZm9udC1mYW1pbHk9InNhbnMtc2VyaWYiIGZvbnQtc2l6ZT0iMTMiIGxlbmd0aEFkanVzdD0ic3BhY2luZyIgdGV4dExlbmd0aD0iOTUiIHg9IjM5IiB5PSIyODYuNzU3OCI+SGkmIzc4NzU7biB0aCYjNzg4MzsgcyYjNDE3OyAmIzI3MzsmIzc4OTE7PC90ZXh0PjwhLS1TUkM9W1RQMUZJeUNtNkNSbF9IR0ZFLWJYTnMwN2VJZmVHUTdHaFVXblBkNERyaEljd0hIbGllQzdKLTk5bDNZNzM4SVhOZmpaUFR5WnR5R2llcWYxQnU0dC1Kcl95WEFnQ2ViMW1RSU40d2F1dkphSDJmc081b0w5LUpMSEYxRThjMW5wb1plVzFVQWVKVmUxVFpCOU1lbVZqOWJqR2ktTzZDOEZXX0x4NjdaVUFYSlRoVE5HbXQ3ekxlQVFRYndZdTJBblJYU2I0dkhYYnZFSDlFVVdJT1JKREJsNGFNUzVKalVNdktkejhnM2cxS3RNdUJYLVhmOWtsWWZEelFmMHdvZDVvVkIzdzJWZ3NUeFQ5aHFsSkpOM3NFV1IzOGJEQm9vT2o3MFJla1Y0NkpWdlNUSjNkajRCWmc3SHhxWXZxUlNibGt3RGRscHBYdXFtalVpTzcxdmlVZDdLTUZJRF9kSWdIcDVRd3VoYnI1cXlFRWdGWlotMEZVa1A0cE1iTGFsak9UenNjVFhiOTRSVl9UQlZdLS0+PC9nPjwvc3ZnPg==;" vertex="1" parent="1">
            <mxGeometry x="-400" y="4490" width="662" height="387" as="geometry" />
          </mxCell>
        </UserObject>
        <mxCell id="pHtEFcCU99gmoeRJndIN-25" value="&lt;b&gt;Sequence Diagram 11: Xác Thực Người Dùng Và Phân Quyền&lt;/b&gt;" style="text;html=1;align=center;verticalAlign=middle;resizable=0;points=[];autosize=1;strokeColor=none;fillColor=none;" vertex="1" parent="1">
          <mxGeometry x="770" y="1290" width="370" height="30" as="geometry" />
        </mxCell>
        <UserObject label="" plantUmlData="{&#xa;  &quot;data&quot;: &quot;@startuml\nactor User\nparticipant \&quot;Web Frontend\&quot; as WF\nparticipant \&quot;API Gateway\&quot; as API\nparticipant \&quot;Auth Service\&quot; as Auth\n\nUser -&gt; WF: Đăng nhập\nWF -&gt; API: Gửi thông tin đăng nhập\nAPI -&gt; Auth: Xác thực thông tin\nAuth --&gt; API: Trả về token xác thực\nAPI -&gt; WF: Gửi token về cho người dùng\n@enduml\n&quot;,&#xa;  &quot;format&quot;: &quot;svg&quot;&#xa;}" id="pHtEFcCU99gmoeRJndIN-26">
          <mxCell style="shape=image;noLabel=1;verticalAlign=top;aspect=fixed;imageAspect=0;image=data:image/svg+xml,PD94bWwgdmVyc2lvbj0iMS4wIiBlbmNvZGluZz0idXMtYXNjaWkiIHN0YW5kYWxvbmU9Im5vIj8+PHN2ZyB4bWxucz0iaHR0cDovL3d3dy53My5vcmcvMjAwMC9zdmciIHhtbG5zOnhsaW5rPSJodHRwOi8vd3d3LnczLm9yZy8xOTk5L3hsaW5rIiBjb250ZW50U3R5bGVUeXBlPSJ0ZXh0L2NzcyIgaGVpZ2h0PSIzMTlweCIgcHJlc2VydmVBc3BlY3RSYXRpbz0ibm9uZSIgc3R5bGU9IndpZHRoOjU0MnB4O2hlaWdodDozMTlweDtiYWNrZ3JvdW5kOiNGRkZGRkY7IiB2ZXJzaW9uPSIxLjEiIHZpZXdCb3g9IjAgMCA1NDIgMzE5IiB3aWR0aD0iNTQycHgiIHpvb21BbmRQYW49Im1hZ25pZnkiPjxkZWZzLz48Zz48bGluZSBzdHlsZT0ic3Ryb2tlOiMxODE4MTg7c3Ryb2tlLXdpZHRoOjAuNTtzdHJva2UtZGFzaGFycmF5OjUuMCw1LjA7IiB4MT0iMjIiIHgyPSIyMiIgeTE9Ijc5Ljk4NDQiIHkyPSIyMzkuNTU0NyIvPjxsaW5lIHN0eWxlPSJzdHJva2U6IzE4MTgxODtzdHJva2Utd2lkdGg6MC41O3N0cm9rZS1kYXNoYXJyYXk6NS4wLDUuMDsiIHgxPSIxMDkiIHgyPSIxMDkiIHkxPSI3OS45ODQ0IiB5Mj0iMjM5LjU1NDciLz48bGluZSBzdHlsZT0ic3Ryb2tlOiMxODE4MTg7c3Ryb2tlLXdpZHRoOjAuNTtzdHJva2UtZGFzaGFycmF5OjUuMCw1LjA7IiB4MT0iMzE5IiB4Mj0iMzE5IiB5MT0iNzkuOTg0NCIgeTI9IjIzOS41NTQ3Ii8+PGxpbmUgc3R5bGU9InN0cm9rZTojMTgxODE4O3N0cm9rZS13aWR0aDowLjU7c3Ryb2tlLWRhc2hhcnJheTo1LjAsNS4wOyIgeDE9IjQ4NyIgeDI9IjQ4NyIgeTE9Ijc5Ljk4NDQiIHkyPSIyMzkuNTU0NyIvPjx0ZXh0IGZpbGw9IiMwMDAwMDAiIGZvbnQtZmFtaWx5PSJzYW5zLXNlcmlmIiBmb250LXNpemU9IjE0IiBsZW5ndGhBZGp1c3Q9InNwYWNpbmciIHRleHRMZW5ndGg9IjI4IiB4PSI1IiB5PSI3OC4yMzQ0Ij5Vc2VyPC90ZXh0PjxlbGxpcHNlIGN4PSIyMiIgY3k9IjEzLjUiIGZpbGw9IiNFMkUyRjAiIHJ4PSI4IiByeT0iOCIgc3R5bGU9InN0cm9rZTojMTgxODE4O3N0cm9rZS13aWR0aDowLjU7Ii8+PHBhdGggZD0iTTIyLDIxLjUgTDIyLDQ4LjUgTTksMjkuNSBMMzUsMjkuNSBNMjIsNDguNSBMOSw2My41IE0yMiw0OC41IEwzNSw2My41ICIgZmlsbD0ibm9uZSIgc3R5bGU9InN0cm9rZTojMTgxODE4O3N0cm9rZS13aWR0aDowLjU7Ii8+PHRleHQgZmlsbD0iIzAwMDAwMCIgZm9udC1mYW1pbHk9InNhbnMtc2VyaWYiIGZvbnQtc2l6ZT0iMTQiIGxlbmd0aEFkanVzdD0ic3BhY2luZyIgdGV4dExlbmd0aD0iMjgiIHg9IjUiIHk9IjI1MS43ODkxIj5Vc2VyPC90ZXh0PjxlbGxpcHNlIGN4PSIyMiIgY3k9IjI2Mi4wMzkxIiBmaWxsPSIjRTJFMkYwIiByeD0iOCIgcnk9IjgiIHN0eWxlPSJzdHJva2U6IzE4MTgxODtzdHJva2Utd2lkdGg6MC41OyIvPjxwYXRoIGQ9Ik0yMiwyNzAuMDM5MSBMMjIsMjk3LjAzOTEgTTksMjc4LjAzOTEgTDM1LDI3OC4wMzkxIE0yMiwyOTcuMDM5MSBMOSwzMTIuMDM5MSBNMjIsMjk3LjAzOTEgTDM1LDMxMi4wMzkxICIgZmlsbD0ibm9uZSIgc3R5bGU9InN0cm9rZTojMTgxODE4O3N0cm9rZS13aWR0aDowLjU7Ii8+PHJlY3QgZmlsbD0iI0UyRTJGMCIgaGVpZ2h0PSIyOC45ODQ0IiByeD0iMi41IiByeT0iMi41IiBzdHlsZT0ic3Ryb2tlOiMxODE4MTg7c3Ryb2tlLXdpZHRoOjAuNTsiIHdpZHRoPSI5OCIgeD0iNjAiIHk9IjUwIi8+PHRleHQgZmlsbD0iIzAwMDAwMCIgZm9udC1mYW1pbHk9InNhbnMtc2VyaWYiIGZvbnQtc2l6ZT0iMTQiIGxlbmd0aEFkanVzdD0ic3BhY2luZyIgdGV4dExlbmd0aD0iODQiIHg9IjY3IiB5PSI3MC4yMzQ0Ij5XZWIgRnJvbnRlbmQ8L3RleHQ+PHJlY3QgZmlsbD0iI0UyRTJGMCIgaGVpZ2h0PSIyOC45ODQ0IiByeD0iMi41IiByeT0iMi41IiBzdHlsZT0ic3Ryb2tlOiMxODE4MTg7c3Ryb2tlLXdpZHRoOjAuNTsiIHdpZHRoPSI5OCIgeD0iNjAiIHk9IjIzOC41NTQ3Ii8+PHRleHQgZmlsbD0iIzAwMDAwMCIgZm9udC1mYW1pbHk9InNhbnMtc2VyaWYiIGZvbnQtc2l6ZT0iMTQiIGxlbmd0aEFkanVzdD0ic3BhY2luZyIgdGV4dExlbmd0aD0iODQiIHg9IjY3IiB5PSIyNTguNzg5MSI+V2ViIEZyb250ZW5kPC90ZXh0PjxyZWN0IGZpbGw9IiNFMkUyRjAiIGhlaWdodD0iMjguOTg0NCIgcng9IjIuNSIgcnk9IjIuNSIgc3R5bGU9InN0cm9rZTojMTgxODE4O3N0cm9rZS13aWR0aDowLjU7IiB3aWR0aD0iOTIiIHg9IjI3MyIgeT0iNTAiLz48dGV4dCBmaWxsPSIjMDAwMDAwIiBmb250LWZhbWlseT0ic2Fucy1zZXJpZiIgZm9udC1zaXplPSIxNCIgbGVuZ3RoQWRqdXN0PSJzcGFjaW5nIiB0ZXh0TGVuZ3RoPSI3OCIgeD0iMjgwIiB5PSI3MC4yMzQ0Ij5BUEkgR2F0ZXdheTwvdGV4dD48cmVjdCBmaWxsPSIjRTJFMkYwIiBoZWlnaHQ9IjI4Ljk4NDQiIHJ4PSIyLjUiIHJ5PSIyLjUiIHN0eWxlPSJzdHJva2U6IzE4MTgxODtzdHJva2Utd2lkdGg6MC41OyIgd2lkdGg9IjkyIiB4PSIyNzMiIHk9IjIzOC41NTQ3Ii8+PHRleHQgZmlsbD0iIzAwMDAwMCIgZm9udC1mYW1pbHk9InNhbnMtc2VyaWYiIGZvbnQtc2l6ZT0iMTQiIGxlbmd0aEFkanVzdD0ic3BhY2luZyIgdGV4dExlbmd0aD0iNzgiIHg9IjI4MCIgeT0iMjU4Ljc4OTEiPkFQSSBHYXRld2F5PC90ZXh0PjxyZWN0IGZpbGw9IiNFMkUyRjAiIGhlaWdodD0iMjguOTg0NCIgcng9IjIuNSIgcnk9IjIuNSIgc3R5bGU9InN0cm9rZTojMTgxODE4O3N0cm9rZS13aWR0aDowLjU7IiB3aWR0aD0iOTgiIHg9IjQzOCIgeT0iNTAiLz48dGV4dCBmaWxsPSIjMDAwMDAwIiBmb250LWZhbWlseT0ic2Fucy1zZXJpZiIgZm9udC1zaXplPSIxNCIgbGVuZ3RoQWRqdXN0PSJzcGFjaW5nIiB0ZXh0TGVuZ3RoPSI4NCIgeD0iNDQ1IiB5PSI3MC4yMzQ0Ij5BdXRoIFNlcnZpY2U8L3RleHQ+PHJlY3QgZmlsbD0iI0UyRTJGMCIgaGVpZ2h0PSIyOC45ODQ0IiByeD0iMi41IiByeT0iMi41IiBzdHlsZT0ic3Ryb2tlOiMxODE4MTg7c3Ryb2tlLXdpZHRoOjAuNTsiIHdpZHRoPSI5OCIgeD0iNDM4IiB5PSIyMzguNTU0NyIvPjx0ZXh0IGZpbGw9IiMwMDAwMDAiIGZvbnQtZmFtaWx5PSJzYW5zLXNlcmlmIiBmb250LXNpemU9IjE0IiBsZW5ndGhBZGp1c3Q9InNwYWNpbmciIHRleHRMZW5ndGg9Ijg0IiB4PSI0NDUiIHk9IjI1OC43ODkxIj5BdXRoIFNlcnZpY2U8L3RleHQ+PHBvbHlnb24gZmlsbD0iIzE4MTgxOCIgcG9pbnRzPSI5NywxMDUuODk4NCwxMDcsMTA5Ljg5ODQsOTcsMTEzLjg5ODQsMTAxLDEwOS44OTg0IiBzdHlsZT0ic3Ryb2tlOiMxODE4MTg7c3Ryb2tlLXdpZHRoOjEuMDsiLz48bGluZSBzdHlsZT0ic3Ryb2tlOiMxODE4MTg7c3Ryb2tlLXdpZHRoOjEuMDsiIHgxPSIyMiIgeDI9IjEwMyIgeTE9IjEwOS44OTg0IiB5Mj0iMTA5Ljg5ODQiLz48dGV4dCBmaWxsPSIjMDAwMDAwIiBmb250LWZhbWlseT0ic2Fucy1zZXJpZiIgZm9udC1zaXplPSIxMyIgbGVuZ3RoQWRqdXN0PSJzcGFjaW5nIiB0ZXh0TGVuZ3RoPSI2MyIgeD0iMjkiIHk9IjEwNi4yNzM0Ij4mIzI3MjsmIzI1OTtuZyBuaCYjNzg1MztwPC90ZXh0Pjxwb2x5Z29uIGZpbGw9IiMxODE4MTgiIHBvaW50cz0iMzA3LDEzMy44MTI1LDMxNywxMzcuODEyNSwzMDcsMTQxLjgxMjUsMzExLDEzNy44MTI1IiBzdHlsZT0ic3Ryb2tlOiMxODE4MTg7c3Ryb2tlLXdpZHRoOjEuMDsiLz48bGluZSBzdHlsZT0ic3Ryb2tlOiMxODE4MTg7c3Ryb2tlLXdpZHRoOjEuMDsiIHgxPSIxMDkiIHgyPSIzMTMiIHkxPSIxMzcuODEyNSIgeTI9IjEzNy44MTI1Ii8+PHRleHQgZmlsbD0iIzAwMDAwMCIgZm9udC1mYW1pbHk9InNhbnMtc2VyaWYiIGZvbnQtc2l6ZT0iMTMiIGxlbmd0aEFkanVzdD0ic3BhY2luZyIgdGV4dExlbmd0aD0iMTU3IiB4PSIxMTYiIHk9IjEzNC4xODc1Ij5HJiM3OTE3O2kgdGgmIzI0NDtuZyB0aW4gJiMyNzM7JiMyNTk7bmcgbmgmIzc4NTM7cDwvdGV4dD48cG9seWdvbiBmaWxsPSIjMTgxODE4IiBwb2ludHM9IjQ3NSwxNjEuNzI2Niw0ODUsMTY1LjcyNjYsNDc1LDE2OS43MjY2LDQ3OSwxNjUuNzI2NiIgc3R5bGU9InN0cm9rZTojMTgxODE4O3N0cm9rZS13aWR0aDoxLjA7Ii8+PGxpbmUgc3R5bGU9InN0cm9rZTojMTgxODE4O3N0cm9rZS13aWR0aDoxLjA7IiB4MT0iMzE5IiB4Mj0iNDgxIiB5MT0iMTY1LjcyNjYiIHkyPSIxNjUuNzI2NiIvPjx0ZXh0IGZpbGw9IiMwMDAwMDAiIGZvbnQtZmFtaWx5PSJzYW5zLXNlcmlmIiBmb250LXNpemU9IjEzIiBsZW5ndGhBZGp1c3Q9InNwYWNpbmciIHRleHRMZW5ndGg9IjEyMiIgeD0iMzI2IiB5PSIxNjIuMTAxNiI+WCYjMjI1O2MgdGgmIzc5MjE7YyB0aCYjMjQ0O25nIHRpbjwvdGV4dD48cG9seWdvbiBmaWxsPSIjMTgxODE4IiBwb2ludHM9IjMzMCwxODkuNjQwNiwzMjAsMTkzLjY0MDYsMzMwLDE5Ny42NDA2LDMyNiwxOTMuNjQwNiIgc3R5bGU9InN0cm9rZTojMTgxODE4O3N0cm9rZS13aWR0aDoxLjA7Ii8+PGxpbmUgc3R5bGU9InN0cm9rZTojMTgxODE4O3N0cm9rZS13aWR0aDoxLjA7c3Ryb2tlLWRhc2hhcnJheToyLjAsMi4wOyIgeDE9IjMyNCIgeDI9IjQ4NiIgeTE9IjE5My42NDA2IiB5Mj0iMTkzLjY0MDYiLz48dGV4dCBmaWxsPSIjMDAwMDAwIiBmb250LWZhbWlseT0ic2Fucy1zZXJpZiIgZm9udC1zaXplPSIxMyIgbGVuZ3RoQWRqdXN0PSJzcGFjaW5nIiB0ZXh0TGVuZ3RoPSIxNDQiIHg9IjMzNiIgeT0iMTkwLjAxNTYiPlRyJiM3ODQzOyB2JiM3ODczOyB0b2tlbiB4JiMyMjU7YyB0aCYjNzkyMTtjPC90ZXh0Pjxwb2x5Z29uIGZpbGw9IiMxODE4MTgiIHBvaW50cz0iMTIwLDIxNy41NTQ3LDExMCwyMjEuNTU0NywxMjAsMjI1LjU1NDcsMTE2LDIyMS41NTQ3IiBzdHlsZT0ic3Ryb2tlOiMxODE4MTg7c3Ryb2tlLXdpZHRoOjEuMDsiLz48bGluZSBzdHlsZT0ic3Ryb2tlOiMxODE4MTg7c3Ryb2tlLXdpZHRoOjEuMDsiIHgxPSIxMTQiIHgyPSIzMTgiIHkxPSIyMjEuNTU0NyIgeTI9IjIyMS41NTQ3Ii8+PHRleHQgZmlsbD0iIzAwMDAwMCIgZm9udC1mYW1pbHk9InNhbnMtc2VyaWYiIGZvbnQtc2l6ZT0iMTMiIGxlbmd0aEFkanVzdD0ic3BhY2luZyIgdGV4dExlbmd0aD0iMTg2IiB4PSIxMjYiIHk9IjIxNy45Mjk3Ij5HJiM3OTE3O2kgdG9rZW4gdiYjNzg3MzsgY2hvIG5nJiM0MzI7JiM3OTAxO2kgZCYjMjQ5O25nPC90ZXh0PjwhLS1TUkM9W05PdW5SaTkwNDROeEZTTU5Vb3hXOGI4UU0tYVlYU1lxb3hBb0x2NzZyWjhPQTE0TlcwREdlREg4OEFLOUJjdGI3ZGlKVGZzV0UyZGRwdmx0SG9la0JMeGRzZWZBTVpSQUw5OE9LUVFkSTZuOWg2YU1HU3dIOU4tMW4tU2RmOUJyS2d4eGxQX18wR2lreUE5alJQSi05ZG1XSEFaMndDN3hPZEl4UmFpdmc3M05Lb01vOUVKVTRvRHJwU2MwWV9SM2h6YUdrbHNHM0RxMXpTOE9hX1FlRkVnUVluZlNZQnYtVDFVRWhSay1ldFJEMWJvLVFTQmd6LWdrMm5fejVGVDhKd2tZMUVMVlB6U1MzNlJqOS1LdF0tLT48L2c+PC9zdmc+;" vertex="1" parent="1">
            <mxGeometry x="760" y="1350" width="542" height="319" as="geometry" />
          </mxCell>
        </UserObject>
        <mxCell id="pHtEFcCU99gmoeRJndIN-27" value="&lt;b&gt;Sequence Diagram 12: Xử Lý Tác Vụ Bất Đồng Bộ Với Celery&lt;/b&gt;" style="text;html=1;align=center;verticalAlign=middle;resizable=0;points=[];autosize=1;strokeColor=none;fillColor=none;" vertex="1" parent="1">
          <mxGeometry x="750" y="1710" width="370" height="30" as="geometry" />
        </mxCell>
        <UserObject label="" plantUmlData="{&#xa;  &quot;data&quot;: &quot;@startuml\nparticipant \&quot;Backend API\&quot; as API\nparticipant \&quot;Celery Worker\&quot; as CW\nparticipant \&quot;Task Queue\&quot; as TQ\n\nAPI -&gt; TQ: Đẩy task xử lý file (async)\nTQ -&gt; CW: Worker nhận task\nCW -&gt; CW: Xử lý task (ví dụ: chuyển đổi file, gửi đến AI Core)\nCW -&gt; TQ: Xác nhận hoàn thành task\n@enduml\n&quot;,&#xa;  &quot;format&quot;: &quot;svg&quot;&#xa;}" id="pHtEFcCU99gmoeRJndIN-28">
          <mxCell style="shape=image;noLabel=1;verticalAlign=top;aspect=fixed;imageAspect=0;image=data:image/svg+xml,PD94bWwgdmVyc2lvbj0iMS4wIiBlbmNvZGluZz0idXMtYXNjaWkiIHN0YW5kYWxvbmU9Im5vIj8+PHN2ZyB4bWxucz0iaHR0cDovL3d3dy53My5vcmcvMjAwMC9zdmciIHhtbG5zOnhsaW5rPSJodHRwOi8vd3d3LnczLm9yZy8xOTk5L3hsaW5rIiBjb250ZW50U3R5bGVUeXBlPSJ0ZXh0L2NzcyIgaGVpZ2h0PSIyMTNweCIgcHJlc2VydmVBc3BlY3RSYXRpbz0ibm9uZSIgc3R5bGU9IndpZHRoOjU3MXB4O2hlaWdodDoyMTNweDtiYWNrZ3JvdW5kOiNGRkZGRkY7IiB2ZXJzaW9uPSIxLjEiIHZpZXdCb3g9IjAgMCA1NzEgMjEzIiB3aWR0aD0iNTcxcHgiIHpvb21BbmRQYW49Im1hZ25pZnkiPjxkZWZzLz48Zz48bGluZSBzdHlsZT0ic3Ryb2tlOiMxODE4MTg7c3Ryb2tlLXdpZHRoOjAuNTtzdHJva2UtZGFzaGFycmF5OjUuMCw1LjA7IiB4MT0iNTAiIHgyPSI1MCIgeTE9IjM0Ljk4NDQiIHkyPSIxNzkuNjQwNiIvPjxsaW5lIHN0eWxlPSJzdHJva2U6IzE4MTgxODtzdHJva2Utd2lkdGg6MC41O3N0cm9rZS1kYXNoYXJyYXk6NS4wLDUuMDsiIHgxPSIxNTgiIHgyPSIxNTgiIHkxPSIzNC45ODQ0IiB5Mj0iMTc5LjY0MDYiLz48bGluZSBzdHlsZT0ic3Ryb2tlOiMxODE4MTg7c3Ryb2tlLXdpZHRoOjAuNTtzdHJva2UtZGFzaGFycmF5OjUuMCw1LjA7IiB4MT0iNTIzLjUiIHgyPSI1MjMuNSIgeTE9IjM0Ljk4NDQiIHkyPSIxNzkuNjQwNiIvPjxyZWN0IGZpbGw9IiNFMkUyRjAiIGhlaWdodD0iMjguOTg0NCIgcng9IjIuNSIgcnk9IjIuNSIgc3R5bGU9InN0cm9rZTojMTgxODE4O3N0cm9rZS13aWR0aDowLjU7IiB3aWR0aD0iOTEiIHg9IjUiIHk9IjUiLz48dGV4dCBmaWxsPSIjMDAwMDAwIiBmb250LWZhbWlseT0ic2Fucy1zZXJpZiIgZm9udC1zaXplPSIxNCIgbGVuZ3RoQWRqdXN0PSJzcGFjaW5nIiB0ZXh0TGVuZ3RoPSI3NyIgeD0iMTIiIHk9IjI1LjIzNDQiPkJhY2tlbmQgQVBJPC90ZXh0PjxyZWN0IGZpbGw9IiNFMkUyRjAiIGhlaWdodD0iMjguOTg0NCIgcng9IjIuNSIgcnk9IjIuNSIgc3R5bGU9InN0cm9rZTojMTgxODE4O3N0cm9rZS13aWR0aDowLjU7IiB3aWR0aD0iOTEiIHg9IjUiIHk9IjE3OC42NDA2Ii8+PHRleHQgZmlsbD0iIzAwMDAwMCIgZm9udC1mYW1pbHk9InNhbnMtc2VyaWYiIGZvbnQtc2l6ZT0iMTQiIGxlbmd0aEFkanVzdD0ic3BhY2luZyIgdGV4dExlbmd0aD0iNzciIHg9IjEyIiB5PSIxOTguODc1Ij5CYWNrZW5kIEFQSTwvdGV4dD48cmVjdCBmaWxsPSIjRTJFMkYwIiBoZWlnaHQ9IjI4Ljk4NDQiIHJ4PSIyLjUiIHJ5PSIyLjUiIHN0eWxlPSJzdHJva2U6IzE4MTgxODtzdHJva2Utd2lkdGg6MC41OyIgd2lkdGg9IjEwNSIgeD0iMTA2IiB5PSI1Ii8+PHRleHQgZmlsbD0iIzAwMDAwMCIgZm9udC1mYW1pbHk9InNhbnMtc2VyaWYiIGZvbnQtc2l6ZT0iMTQiIGxlbmd0aEFkanVzdD0ic3BhY2luZyIgdGV4dExlbmd0aD0iOTEiIHg9IjExMyIgeT0iMjUuMjM0NCI+Q2VsZXJ5IFdvcmtlcjwvdGV4dD48cmVjdCBmaWxsPSIjRTJFMkYwIiBoZWlnaHQ9IjI4Ljk4NDQiIHJ4PSIyLjUiIHJ5PSIyLjUiIHN0eWxlPSJzdHJva2U6IzE4MTgxODtzdHJva2Utd2lkdGg6MC41OyIgd2lkdGg9IjEwNSIgeD0iMTA2IiB5PSIxNzguNjQwNiIvPjx0ZXh0IGZpbGw9IiMwMDAwMDAiIGZvbnQtZmFtaWx5PSJzYW5zLXNlcmlmIiBmb250LXNpemU9IjE0IiBsZW5ndGhBZGp1c3Q9InNwYWNpbmciIHRleHRMZW5ndGg9IjkxIiB4PSIxMTMiIHk9IjE5OC44NzUiPkNlbGVyeSBXb3JrZXI8L3RleHQ+PHJlY3QgZmlsbD0iI0UyRTJGMCIgaGVpZ2h0PSIyOC45ODQ0IiByeD0iMi41IiByeT0iMi41IiBzdHlsZT0ic3Ryb2tlOiMxODE4MTg7c3Ryb2tlLXdpZHRoOjAuNTsiIHdpZHRoPSI4NCIgeD0iNDgxLjUiIHk9IjUiLz48dGV4dCBmaWxsPSIjMDAwMDAwIiBmb250LWZhbWlseT0ic2Fucy1zZXJpZiIgZm9udC1zaXplPSIxNCIgbGVuZ3RoQWRqdXN0PSJzcGFjaW5nIiB0ZXh0TGVuZ3RoPSI3MCIgeD0iNDg4LjUiIHk9IjI1LjIzNDQiPlRhc2sgUXVldWU8L3RleHQ+PHJlY3QgZmlsbD0iI0UyRTJGMCIgaGVpZ2h0PSIyOC45ODQ0IiByeD0iMi41IiByeT0iMi41IiBzdHlsZT0ic3Ryb2tlOiMxODE4MTg7c3Ryb2tlLXdpZHRoOjAuNTsiIHdpZHRoPSI4NCIgeD0iNDgxLjUiIHk9IjE3OC42NDA2Ii8+PHRleHQgZmlsbD0iIzAwMDAwMCIgZm9udC1mYW1pbHk9InNhbnMtc2VyaWYiIGZvbnQtc2l6ZT0iMTQiIGxlbmd0aEFkanVzdD0ic3BhY2luZyIgdGV4dExlbmd0aD0iNzAiIHg9IjQ4OC41IiB5PSIxOTguODc1Ij5UYXNrIFF1ZXVlPC90ZXh0Pjxwb2x5Z29uIGZpbGw9IiMxODE4MTgiIHBvaW50cz0iNTExLjUsNjAuODk4NCw1MjEuNSw2NC44OTg0LDUxMS41LDY4Ljg5ODQsNTE1LjUsNjQuODk4NCIgc3R5bGU9InN0cm9rZTojMTgxODE4O3N0cm9rZS13aWR0aDoxLjA7Ii8+PGxpbmUgc3R5bGU9InN0cm9rZTojMTgxODE4O3N0cm9rZS13aWR0aDoxLjA7IiB4MT0iNTAuNSIgeDI9IjUxNy41IiB5MT0iNjQuODk4NCIgeTI9IjY0Ljg5ODQiLz48dGV4dCBmaWxsPSIjMDAwMDAwIiBmb250LWZhbWlseT0ic2Fucy1zZXJpZiIgZm9udC1zaXplPSIxMyIgbGVuZ3RoQWRqdXN0PSJzcGFjaW5nIiB0ZXh0TGVuZ3RoPSIxODIiIHg9IjU3LjUiIHk9IjYxLjI3MzQiPiYjMjcyOyYjNzg0OTt5IHRhc2sgeCYjNzkxNzsgbCYjMjUzOyBmaWxlIChhc3luYyk8L3RleHQ+PHBvbHlnb24gZmlsbD0iIzE4MTgxOCIgcG9pbnRzPSIxNjkuNSw4OC44MTI1LDE1OS41LDkyLjgxMjUsMTY5LjUsOTYuODEyNSwxNjUuNSw5Mi44MTI1IiBzdHlsZT0ic3Ryb2tlOiMxODE4MTg7c3Ryb2tlLXdpZHRoOjEuMDsiLz48bGluZSBzdHlsZT0ic3Ryb2tlOiMxODE4MTg7c3Ryb2tlLXdpZHRoOjEuMDsiIHgxPSIxNjMuNSIgeDI9IjUyMi41IiB5MT0iOTIuODEyNSIgeTI9IjkyLjgxMjUiLz48dGV4dCBmaWxsPSIjMDAwMDAwIiBmb250LWZhbWlseT0ic2Fucy1zZXJpZiIgZm9udC1zaXplPSIxMyIgbGVuZ3RoQWRqdXN0PSJzcGFjaW5nIiB0ZXh0TGVuZ3RoPSIxMTEiIHg9IjE3NS41IiB5PSI4OS4xODc1Ij5Xb3JrZXIgbmgmIzc4NTM7biB0YXNrPC90ZXh0PjxsaW5lIHN0eWxlPSJzdHJva2U6IzE4MTgxODtzdHJva2Utd2lkdGg6MS4wOyIgeDE9IjE1OC41IiB4Mj0iMjAwLjUiIHkxPSIxMjAuNzI2NiIgeTI9IjEyMC43MjY2Ii8+PGxpbmUgc3R5bGU9InN0cm9rZTojMTgxODE4O3N0cm9rZS13aWR0aDoxLjA7IiB4MT0iMjAwLjUiIHgyPSIyMDAuNSIgeTE9IjEyMC43MjY2IiB5Mj0iMTMzLjcyNjYiLz48bGluZSBzdHlsZT0ic3Ryb2tlOiMxODE4MTg7c3Ryb2tlLXdpZHRoOjEuMDsiIHgxPSIxNTkuNSIgeDI9IjIwMC41IiB5MT0iMTMzLjcyNjYiIHkyPSIxMzMuNzI2NiIvPjxwb2x5Z29uIGZpbGw9IiMxODE4MTgiIHBvaW50cz0iMTY5LjUsMTI5LjcyNjYsMTU5LjUsMTMzLjcyNjYsMTY5LjUsMTM3LjcyNjYsMTY1LjUsMTMzLjcyNjYiIHN0eWxlPSJzdHJva2U6IzE4MTgxODtzdHJva2Utd2lkdGg6MS4wOyIvPjx0ZXh0IGZpbGw9IiMwMDAwMDAiIGZvbnQtZmFtaWx5PSJzYW5zLXNlcmlmIiBmb250LXNpemU9IjEzIiBsZW5ndGhBZGp1c3Q9InNwYWNpbmciIHRleHRMZW5ndGg9IjM1MSIgeD0iMTY1LjUiIHk9IjExNy4xMDE2Ij5YJiM3OTE3OyBsJiMyNTM7IHRhc2sgKHYmIzIzNzsgZCYjNzkwOTs6IGNodXkmIzc4NzU7biAmIzI3MzsmIzc4OTM7aSBmaWxlLCBnJiM3OTE3O2kgJiMyNzM7JiM3ODcxO24gQUkgQ29yZSk8L3RleHQ+PHBvbHlnb24gZmlsbD0iIzE4MTgxOCIgcG9pbnRzPSI1MTEuNSwxNTcuNjQwNiw1MjEuNSwxNjEuNjQwNiw1MTEuNSwxNjUuNjQwNiw1MTUuNSwxNjEuNjQwNiIgc3R5bGU9InN0cm9rZTojMTgxODE4O3N0cm9rZS13aWR0aDoxLjA7Ii8+PGxpbmUgc3R5bGU9InN0cm9rZTojMTgxODE4O3N0cm9rZS13aWR0aDoxLjA7IiB4MT0iMTU4LjUiIHgyPSI1MTcuNSIgeTE9IjE2MS42NDA2IiB5Mj0iMTYxLjY0MDYiLz48dGV4dCBmaWxsPSIjMDAwMDAwIiBmb250LWZhbWlseT0ic2Fucy1zZXJpZiIgZm9udC1zaXplPSIxMyIgbGVuZ3RoQWRqdXN0PSJzcGFjaW5nIiB0ZXh0TGVuZ3RoPSIxNjYiIHg9IjE2NS41IiB5PSIxNTguMDE1NiI+WCYjMjI1O2MgbmgmIzc4NTM7biBobyYjMjI0O24gdGgmIzIyNDtuaCB0YXNrPC90ZXh0PjwhLS1TUkM9W0xPdW5SaThtNThQdGQtOE40cVpiMFhjR2cyVXNIZWVLTGlrT3NhaGFINHZJREpDTldBNXg2SFdPU2U1NFkyNVNuM1VmUkg2ZkJDekZ4dHRsLXJxb0tva2tJZ1BocER1UHB1SlVPVnNuY081TF9ZTmJWdTJBTjlXTVFNNG9PRzkycXJTWU9MTTZrMTZEMkVpYTlpSFBpNW92RGlCWlFGamhZemYzdHRSZWE4eXR4NUtrQzZUTGdfYzI5QjVkUUhlekd3MmJ4SmlUSldYRGYtTHNFV3dnLVRWT09NVTdJbUdrY3pPRTF1dDdvR3VfQWlaVnlFYm12S1Z6Tk1FejBJc0NNM25yX2JfUnlTb2Q5NWNDbG92RmtZZzNfV3kwXS0tPjwvZz48L3N2Zz4=;" vertex="1" parent="1">
            <mxGeometry x="765" y="1770" width="571" height="213" as="geometry" />
          </mxCell>
        </UserObject>
        <mxCell id="pHtEFcCU99gmoeRJndIN-29" value="&lt;b&gt;Sequence Diagram 13: Giao Tiếp Giữa Các Microservices Qua Kafka&lt;/b&gt;" style="text;html=1;align=center;verticalAlign=middle;resizable=0;points=[];autosize=1;strokeColor=none;fillColor=none;" vertex="1" parent="1">
          <mxGeometry x="760" y="2038" width="410" height="30" as="geometry" />
        </mxCell>
        <UserObject label="" plantUmlData="{&#xa;  &quot;data&quot;: &quot;@startuml\nparticipant \&quot;Service A\&quot; as SA\nparticipant \&quot;Kafka Broker\&quot; as Kafka\nparticipant \&quot;Service B\&quot; as SB\n\nSA -&gt; Kafka: Đẩy thông điệp (event)\nKafka -&gt; SB: Đẩy thông điệp đến Service B\nSB -&gt; SB: Xử lý sự kiện nhận được\n@enduml\n&quot;,&#xa;  &quot;format&quot;: &quot;svg&quot;&#xa;}" id="pHtEFcCU99gmoeRJndIN-30">
          <mxCell style="shape=image;noLabel=1;verticalAlign=top;aspect=fixed;imageAspect=0;image=data:image/svg+xml,PD94bWwgdmVyc2lvbj0iMS4wIiBlbmNvZGluZz0idXMtYXNjaWkiIHN0YW5kYWxvbmU9Im5vIj8+PHN2ZyB4bWxucz0iaHR0cDovL3d3dy53My5vcmcvMjAwMC9zdmciIHhtbG5zOnhsaW5rPSJodHRwOi8vd3d3LnczLm9yZy8xOTk5L3hsaW5rIiBjb250ZW50U3R5bGVUeXBlPSJ0ZXh0L2NzcyIgaGVpZ2h0PSIxODVweCIgcHJlc2VydmVBc3BlY3RSYXRpbz0ibm9uZSIgc3R5bGU9IndpZHRoOjYwNnB4O2hlaWdodDoxODVweDtiYWNrZ3JvdW5kOiNGRkZGRkY7IiB2ZXJzaW9uPSIxLjEiIHZpZXdCb3g9IjAgMCA2MDYgMTg1IiB3aWR0aD0iNjA2cHgiIHpvb21BbmRQYW49Im1hZ25pZnkiPjxkZWZzLz48Zz48bGluZSBzdHlsZT0ic3Ryb2tlOiMxODE4MTg7c3Ryb2tlLXdpZHRoOjAuNTtzdHJva2UtZGFzaGFycmF5OjUuMCw1LjA7IiB4MT0iNDMiIHgyPSI0MyIgeTE9IjM0Ljk4NDQiIHkyPSIxNTEuNzI2NiIvPjxsaW5lIHN0eWxlPSJzdHJva2U6IzE4MTgxODtzdHJva2Utd2lkdGg6MC41O3N0cm9rZS1kYXNoYXJyYXk6NS4wLDUuMDsiIHgxPSIyMTYuNSIgeDI9IjIxNi41IiB5MT0iMzQuOTg0NCIgeTI9IjE1MS43MjY2Ii8+PGxpbmUgc3R5bGU9InN0cm9rZTojMTgxODE4O3N0cm9rZS13aWR0aDowLjU7c3Ryb2tlLWRhc2hhcnJheTo1LjAsNS4wOyIgeDE9IjQzMyIgeDI9IjQzMyIgeTE9IjM0Ljk4NDQiIHkyPSIxNTEuNzI2NiIvPjxyZWN0IGZpbGw9IiNFMkUyRjAiIGhlaWdodD0iMjguOTg0NCIgcng9IjIuNSIgcnk9IjIuNSIgc3R5bGU9InN0cm9rZTojMTgxODE4O3N0cm9rZS13aWR0aDowLjU7IiB3aWR0aD0iNzciIHg9IjUiIHk9IjUiLz48dGV4dCBmaWxsPSIjMDAwMDAwIiBmb250LWZhbWlseT0ic2Fucy1zZXJpZiIgZm9udC1zaXplPSIxNCIgbGVuZ3RoQWRqdXN0PSJzcGFjaW5nIiB0ZXh0TGVuZ3RoPSI2MyIgeD0iMTIiIHk9IjI1LjIzNDQiPlNlcnZpY2UgQTwvdGV4dD48cmVjdCBmaWxsPSIjRTJFMkYwIiBoZWlnaHQ9IjI4Ljk4NDQiIHJ4PSIyLjUiIHJ5PSIyLjUiIHN0eWxlPSJzdHJva2U6IzE4MTgxODtzdHJva2Utd2lkdGg6MC41OyIgd2lkdGg9Ijc3IiB4PSI1IiB5PSIxNTAuNzI2NiIvPjx0ZXh0IGZpbGw9IiMwMDAwMDAiIGZvbnQtZmFtaWx5PSJzYW5zLXNlcmlmIiBmb250LXNpemU9IjE0IiBsZW5ndGhBZGp1c3Q9InNwYWNpbmciIHRleHRMZW5ndGg9IjYzIiB4PSIxMiIgeT0iMTcwLjk2MDkiPlNlcnZpY2UgQTwvdGV4dD48cmVjdCBmaWxsPSIjRTJFMkYwIiBoZWlnaHQ9IjI4Ljk4NDQiIHJ4PSIyLjUiIHJ5PSIyLjUiIHN0eWxlPSJzdHJva2U6IzE4MTgxODtzdHJva2Utd2lkdGg6MC41OyIgd2lkdGg9Ijk4IiB4PSIxNjcuNSIgeT0iNSIvPjx0ZXh0IGZpbGw9IiMwMDAwMDAiIGZvbnQtZmFtaWx5PSJzYW5zLXNlcmlmIiBmb250LXNpemU9IjE0IiBsZW5ndGhBZGp1c3Q9InNwYWNpbmciIHRleHRMZW5ndGg9Ijg0IiB4PSIxNzQuNSIgeT0iMjUuMjM0NCI+S2Fma2EgQnJva2VyPC90ZXh0PjxyZWN0IGZpbGw9IiNFMkUyRjAiIGhlaWdodD0iMjguOTg0NCIgcng9IjIuNSIgcnk9IjIuNSIgc3R5bGU9InN0cm9rZTojMTgxODE4O3N0cm9rZS13aWR0aDowLjU7IiB3aWR0aD0iOTgiIHg9IjE2Ny41IiB5PSIxNTAuNzI2NiIvPjx0ZXh0IGZpbGw9IiMwMDAwMDAiIGZvbnQtZmFtaWx5PSJzYW5zLXNlcmlmIiBmb250LXNpemU9IjE0IiBsZW5ndGhBZGp1c3Q9InNwYWNpbmciIHRleHRMZW5ndGg9Ijg0IiB4PSIxNzQuNSIgeT0iMTcwLjk2MDkiPkthZmthIEJyb2tlcjwvdGV4dD48cmVjdCBmaWxsPSIjRTJFMkYwIiBoZWlnaHQ9IjI4Ljk4NDQiIHJ4PSIyLjUiIHJ5PSIyLjUiIHN0eWxlPSJzdHJva2U6IzE4MTgxODtzdHJva2Utd2lkdGg6MC41OyIgd2lkdGg9Ijc3IiB4PSIzOTUiIHk9IjUiLz48dGV4dCBmaWxsPSIjMDAwMDAwIiBmb250LWZhbWlseT0ic2Fucy1zZXJpZiIgZm9udC1zaXplPSIxNCIgbGVuZ3RoQWRqdXN0PSJzcGFjaW5nIiB0ZXh0TGVuZ3RoPSI2MyIgeD0iNDAyIiB5PSIyNS4yMzQ0Ij5TZXJ2aWNlIEI8L3RleHQ+PHJlY3QgZmlsbD0iI0UyRTJGMCIgaGVpZ2h0PSIyOC45ODQ0IiByeD0iMi41IiByeT0iMi41IiBzdHlsZT0ic3Ryb2tlOiMxODE4MTg7c3Ryb2tlLXdpZHRoOjAuNTsiIHdpZHRoPSI3NyIgeD0iMzk1IiB5PSIxNTAuNzI2NiIvPjx0ZXh0IGZpbGw9IiMwMDAwMDAiIGZvbnQtZmFtaWx5PSJzYW5zLXNlcmlmIiBmb250LXNpemU9IjE0IiBsZW5ndGhBZGp1c3Q9InNwYWNpbmciIHRleHRMZW5ndGg9IjYzIiB4PSI0MDIiIHk9IjE3MC45NjA5Ij5TZXJ2aWNlIEI8L3RleHQ+PHBvbHlnb24gZmlsbD0iIzE4MTgxOCIgcG9pbnRzPSIyMDQuNSw2MC44OTg0LDIxNC41LDY0Ljg5ODQsMjA0LjUsNjguODk4NCwyMDguNSw2NC44OTg0IiBzdHlsZT0ic3Ryb2tlOiMxODE4MTg7c3Ryb2tlLXdpZHRoOjEuMDsiLz48bGluZSBzdHlsZT0ic3Ryb2tlOiMxODE4MTg7c3Ryb2tlLXdpZHRoOjEuMDsiIHgxPSI0My41IiB4Mj0iMjEwLjUiIHkxPSI2NC44OTg0IiB5Mj0iNjQuODk4NCIvPjx0ZXh0IGZpbGw9IiMwMDAwMDAiIGZvbnQtZmFtaWx5PSJzYW5zLXNlcmlmIiBmb250LXNpemU9IjEzIiBsZW5ndGhBZGp1c3Q9InNwYWNpbmciIHRleHRMZW5ndGg9IjE0OSIgeD0iNTAuNSIgeT0iNjEuMjczNCI+JiMyNzI7JiM3ODQ5O3kgdGgmIzI0NDtuZyAmIzI3MztpJiM3ODc5O3AgKGV2ZW50KTwvdGV4dD48cG9seWdvbiBmaWxsPSIjMTgxODE4IiBwb2ludHM9IjQyMS41LDg4LjgxMjUsNDMxLjUsOTIuODEyNSw0MjEuNSw5Ni44MTI1LDQyNS41LDkyLjgxMjUiIHN0eWxlPSJzdHJva2U6IzE4MTgxODtzdHJva2Utd2lkdGg6MS4wOyIvPjxsaW5lIHN0eWxlPSJzdHJva2U6IzE4MTgxODtzdHJva2Utd2lkdGg6MS4wOyIgeDE9IjIxNi41IiB4Mj0iNDI3LjUiIHkxPSI5Mi44MTI1IiB5Mj0iOTIuODEyNSIvPjx0ZXh0IGZpbGw9IiMwMDAwMDAiIGZvbnQtZmFtaWx5PSJzYW5zLXNlcmlmIiBmb250LXNpemU9IjEzIiBsZW5ndGhBZGp1c3Q9InNwYWNpbmciIHRleHRMZW5ndGg9IjE5MyIgeD0iMjIzLjUiIHk9Ijg5LjE4NzUiPiYjMjcyOyYjNzg0OTt5IHRoJiMyNDQ7bmcgJiMyNzM7aSYjNzg3OTtwICYjMjczOyYjNzg3MTtuIFNlcnZpY2UgQjwvdGV4dD48bGluZSBzdHlsZT0ic3Ryb2tlOiMxODE4MTg7c3Ryb2tlLXdpZHRoOjEuMDsiIHgxPSI0MzMuNSIgeDI9IjQ3NS41IiB5MT0iMTIwLjcyNjYiIHkyPSIxMjAuNzI2NiIvPjxsaW5lIHN0eWxlPSJzdHJva2U6IzE4MTgxODtzdHJva2Utd2lkdGg6MS4wOyIgeDE9IjQ3NS41IiB4Mj0iNDc1LjUiIHkxPSIxMjAuNzI2NiIgeTI9IjEzMy43MjY2Ii8+PGxpbmUgc3R5bGU9InN0cm9rZTojMTgxODE4O3N0cm9rZS13aWR0aDoxLjA7IiB4MT0iNDM0LjUiIHgyPSI0NzUuNSIgeTE9IjEzMy43MjY2IiB5Mj0iMTMzLjcyNjYiLz48cG9seWdvbiBmaWxsPSIjMTgxODE4IiBwb2ludHM9IjQ0NC41LDEyOS43MjY2LDQzNC41LDEzMy43MjY2LDQ0NC41LDEzNy43MjY2LDQ0MC41LDEzMy43MjY2IiBzdHlsZT0ic3Ryb2tlOiMxODE4MTg7c3Ryb2tlLXdpZHRoOjEuMDsiLz48dGV4dCBmaWxsPSIjMDAwMDAwIiBmb250LWZhbWlseT0ic2Fucy1zZXJpZiIgZm9udC1zaXplPSIxMyIgbGVuZ3RoQWRqdXN0PSJzcGFjaW5nIiB0ZXh0TGVuZ3RoPSIxNTkiIHg9IjQ0MC41IiB5PSIxMTcuMTAxNiI+WCYjNzkxNzsgbCYjMjUzOyBzJiM3OTIxOyBraSYjNzg3OTtuIG5oJiM3ODUzO24gJiMyNzM7JiM0MzI7JiM3OTA3O2M8L3RleHQ+PCEtLVNSQz1bQXFXaUFpYkNwWW44cDJqSEswZkVCSWhCSjR2TFM1SElJMm5NMjdSYUFhMk16S3ZDb3F2S1MyaEFwcXVqMFlpMDJ3MmdXUGRXMTM3MVlPaWhzNTUxcm13WXI0aFhvOEk3a3JQTUFmSGE3RHdJYnd2bVA2QmNtenRqMUdlUWdNTWZVSU1RTjEwQldBZzNkTjBmRkpCbnVReHpVR2ZtUXhZMmRNMFE4WHhrTmdrR1N0WWxHbDczdEhpTGlhN2d5bkpvQ1h4a01maTdyN1BpbXlGVFl2QzFdLS0+PC9nPjwvc3ZnPg==;" vertex="1" parent="1">
            <mxGeometry x="770" y="2092.5" width="606" height="185" as="geometry" />
          </mxCell>
        </UserObject>
        <mxCell id="pHtEFcCU99gmoeRJndIN-31" value="&lt;b&gt;Sequence Diagram 14: Cập Nhật Dữ Liệu Trong Vector DB Sau Mỗi Phân Tích&lt;/b&gt;" style="text;html=1;align=center;verticalAlign=middle;resizable=0;points=[];autosize=1;strokeColor=none;fillColor=none;" vertex="1" parent="1">
          <mxGeometry x="760" y="2320" width="460" height="30" as="geometry" />
        </mxCell>
        <UserObject label="" plantUmlData="{&#xa;  &quot;data&quot;: &quot;@startuml\nparticipant \&quot;AI Core Service\&quot; as AI\nparticipant \&quot;Vector DB\&quot; as VDB\n\nAI -&gt; VDB: Cập nhật/ghi mới embedding cho file X\nVDB --&gt; AI: Xác nhận cập nhật thành công\n@enduml\n&quot;,&#xa;  &quot;format&quot;: &quot;svg&quot;&#xa;}" id="pHtEFcCU99gmoeRJndIN-32">
          <mxCell style="shape=image;noLabel=1;verticalAlign=top;aspect=fixed;imageAspect=0;image=data:image/svg+xml,PD94bWwgdmVyc2lvbj0iMS4wIiBlbmNvZGluZz0idXMtYXNjaWkiIHN0YW5kYWxvbmU9Im5vIj8+PHN2ZyB4bWxucz0iaHR0cDovL3d3dy53My5vcmcvMjAwMC9zdmciIHhtbG5zOnhsaW5rPSJodHRwOi8vd3d3LnczLm9yZy8xOTk5L3hsaW5rIiBjb250ZW50U3R5bGVUeXBlPSJ0ZXh0L2NzcyIgaGVpZ2h0PSIxNDRweCIgcHJlc2VydmVBc3BlY3RSYXRpbz0ibm9uZSIgc3R5bGU9IndpZHRoOjM4M3B4O2hlaWdodDoxNDRweDtiYWNrZ3JvdW5kOiNGRkZGRkY7IiB2ZXJzaW9uPSIxLjEiIHZpZXdCb3g9IjAgMCAzODMgMTQ0IiB3aWR0aD0iMzgzcHgiIHpvb21BbmRQYW49Im1hZ25pZnkiPjxkZWZzLz48Zz48bGluZSBzdHlsZT0ic3Ryb2tlOiMxODE4MTg7c3Ryb2tlLXdpZHRoOjAuNTtzdHJva2UtZGFzaGFycmF5OjUuMCw1LjA7IiB4MT0iNjQiIHgyPSI2NCIgeTE9IjM0Ljk4NDQiIHkyPSIxMTAuODEyNSIvPjxsaW5lIHN0eWxlPSJzdHJva2U6IzE4MTgxODtzdHJva2Utd2lkdGg6MC41O3N0cm9rZS1kYXNoYXJyYXk6NS4wLDUuMDsiIHgxPSIzMzgiIHgyPSIzMzgiIHkxPSIzNC45ODQ0IiB5Mj0iMTEwLjgxMjUiLz48cmVjdCBmaWxsPSIjRTJFMkYwIiBoZWlnaHQ9IjI4Ljk4NDQiIHJ4PSIyLjUiIHJ5PSIyLjUiIHN0eWxlPSJzdHJva2U6IzE4MTgxODtzdHJva2Utd2lkdGg6MC41OyIgd2lkdGg9IjExOSIgeD0iNSIgeT0iNSIvPjx0ZXh0IGZpbGw9IiMwMDAwMDAiIGZvbnQtZmFtaWx5PSJzYW5zLXNlcmlmIiBmb250LXNpemU9IjE0IiBsZW5ndGhBZGp1c3Q9InNwYWNpbmciIHRleHRMZW5ndGg9IjEwNSIgeD0iMTIiIHk9IjI1LjIzNDQiPkFJIENvcmUgU2VydmljZTwvdGV4dD48cmVjdCBmaWxsPSIjRTJFMkYwIiBoZWlnaHQ9IjI4Ljk4NDQiIHJ4PSIyLjUiIHJ5PSIyLjUiIHN0eWxlPSJzdHJva2U6IzE4MTgxODtzdHJva2Utd2lkdGg6MC41OyIgd2lkdGg9IjExOSIgeD0iNSIgeT0iMTA5LjgxMjUiLz48dGV4dCBmaWxsPSIjMDAwMDAwIiBmb250LWZhbWlseT0ic2Fucy1zZXJpZiIgZm9udC1zaXplPSIxNCIgbGVuZ3RoQWRqdXN0PSJzcGFjaW5nIiB0ZXh0TGVuZ3RoPSIxMDUiIHg9IjEyIiB5PSIxMzAuMDQ2OSI+QUkgQ29yZSBTZXJ2aWNlPC90ZXh0PjxyZWN0IGZpbGw9IiNFMkUyRjAiIGhlaWdodD0iMjguOTg0NCIgcng9IjIuNSIgcnk9IjIuNSIgc3R5bGU9InN0cm9rZTojMTgxODE4O3N0cm9rZS13aWR0aDowLjU7IiB3aWR0aD0iNzciIHg9IjMwMCIgeT0iNSIvPjx0ZXh0IGZpbGw9IiMwMDAwMDAiIGZvbnQtZmFtaWx5PSJzYW5zLXNlcmlmIiBmb250LXNpemU9IjE0IiBsZW5ndGhBZGp1c3Q9InNwYWNpbmciIHRleHRMZW5ndGg9IjYzIiB4PSIzMDciIHk9IjI1LjIzNDQiPlZlY3RvciBEQjwvdGV4dD48cmVjdCBmaWxsPSIjRTJFMkYwIiBoZWlnaHQ9IjI4Ljk4NDQiIHJ4PSIyLjUiIHJ5PSIyLjUiIHN0eWxlPSJzdHJva2U6IzE4MTgxODtzdHJva2Utd2lkdGg6MC41OyIgd2lkdGg9Ijc3IiB4PSIzMDAiIHk9IjEwOS44MTI1Ii8+PHRleHQgZmlsbD0iIzAwMDAwMCIgZm9udC1mYW1pbHk9InNhbnMtc2VyaWYiIGZvbnQtc2l6ZT0iMTQiIGxlbmd0aEFkanVzdD0ic3BhY2luZyIgdGV4dExlbmd0aD0iNjMiIHg9IjMwNyIgeT0iMTMwLjA0NjkiPlZlY3RvciBEQjwvdGV4dD48cG9seWdvbiBmaWxsPSIjMTgxODE4IiBwb2ludHM9IjMyNi41LDYwLjg5ODQsMzM2LjUsNjQuODk4NCwzMjYuNSw2OC44OTg0LDMzMC41LDY0Ljg5ODQiIHN0eWxlPSJzdHJva2U6IzE4MTgxODtzdHJva2Utd2lkdGg6MS4wOyIvPjxsaW5lIHN0eWxlPSJzdHJva2U6IzE4MTgxODtzdHJva2Utd2lkdGg6MS4wOyIgeDE9IjY0LjUiIHgyPSIzMzIuNSIgeTE9IjY0Ljg5ODQiIHkyPSI2NC44OTg0Ii8+PHRleHQgZmlsbD0iIzAwMDAwMCIgZm9udC1mYW1pbHk9InNhbnMtc2VyaWYiIGZvbnQtc2l6ZT0iMTMiIGxlbmd0aEFkanVzdD0ic3BhY2luZyIgdGV4dExlbmd0aD0iMjUwIiB4PSI3MS41IiB5PSI2MS4yNzM0Ij5DJiM3ODUzO3AgbmgmIzc4NTM7dC9naGkgbSYjNzg5OTtpIGVtYmVkZGluZyBjaG8gZmlsZSBYPC90ZXh0Pjxwb2x5Z29uIGZpbGw9IiMxODE4MTgiIHBvaW50cz0iNzUuNSw4OC44MTI1LDY1LjUsOTIuODEyNSw3NS41LDk2LjgxMjUsNzEuNSw5Mi44MTI1IiBzdHlsZT0ic3Ryb2tlOiMxODE4MTg7c3Ryb2tlLXdpZHRoOjEuMDsiLz48bGluZSBzdHlsZT0ic3Ryb2tlOiMxODE4MTg7c3Ryb2tlLXdpZHRoOjEuMDtzdHJva2UtZGFzaGFycmF5OjIuMCwyLjA7IiB4MT0iNjkuNSIgeDI9IjMzNy41IiB5MT0iOTIuODEyNSIgeTI9IjkyLjgxMjUiLz48dGV4dCBmaWxsPSIjMDAwMDAwIiBmb250LWZhbWlseT0ic2Fucy1zZXJpZiIgZm9udC1zaXplPSIxMyIgbGVuZ3RoQWRqdXN0PSJzcGFjaW5nIiB0ZXh0TGVuZ3RoPSIxOTQiIHg9IjgxLjUiIHk9Ijg5LjE4NzUiPlgmIzIyNTtjIG5oJiM3ODUzO24gYyYjNzg1MztwIG5oJiM3ODUzO3QgdGgmIzIyNDtuaCBjJiMyNDQ7bmc8L3RleHQ+PCEtLVNSQz1bSlNteDNpOG00MEpHdGdTT2ZPX2VLbzNicXhYNllqQTZwTUFsSDFwQk1CYUMzSG8wWldoQWQyR3RtSzJKUWFVUVVVbHg0OE40em91WUFwTmdBSjBFNzZPWHBqMVZLNmhianZrTUFLdTFKVkxoc3dQSUFoNXlfdXE1d2xOcnk3MHNkUldwTFoya3h3azBub0NGV3BXM2lYREVTY1BxQVc3YTJQUXdHQlZTd1N5U1FGQzNxSXV0UHE3QnF2YUZdLS0+PC9nPjwvc3ZnPg==;" vertex="1" parent="1">
            <mxGeometry x="787" y="2370" width="383" height="144" as="geometry" />
          </mxCell>
        </UserObject>
        <mxCell id="pHtEFcCU99gmoeRJndIN-33" value="&lt;b&gt;Sequence Diagram 15: Truy Vấn Lịch Sử Phân Tích Và Embedding&lt;/b&gt;" style="text;html=1;align=center;verticalAlign=middle;resizable=0;points=[];autosize=1;strokeColor=none;fillColor=none;" vertex="1" parent="1">
          <mxGeometry x="760" y="2560" width="400" height="30" as="geometry" />
        </mxCell>
        <UserObject label="" plantUmlData="{&#xa;  &quot;data&quot;: &quot;@startuml\nactor User\nparticipant \&quot;API Gateway\&quot; as API\nparticipant \&quot;Vector DB\&quot; as VDB\n\nUser -&gt; API: Yêu cầu xem lịch sử phân tích của file X\nAPI -&gt; VDB: Truy vấn embedding và metadata\nVDB --&gt; API: Trả về dữ liệu lịch sử\nAPI -&gt; User: Hiển thị kết quả cho người dùng\n@enduml\n&quot;,&#xa;  &quot;format&quot;: &quot;svg&quot;&#xa;}" id="pHtEFcCU99gmoeRJndIN-34">
          <mxCell style="shape=image;noLabel=1;verticalAlign=top;aspect=fixed;imageAspect=0;image=data:image/svg+xml,PD94bWwgdmVyc2lvbj0iMS4wIiBlbmNvZGluZz0idXMtYXNjaWkiIHN0YW5kYWxvbmU9Im5vIj8+PHN2ZyB4bWxucz0iaHR0cDovL3d3dy53My5vcmcvMjAwMC9zdmciIHhtbG5zOnhsaW5rPSJodHRwOi8vd3d3LnczLm9yZy8xOTk5L3hsaW5rIiBjb250ZW50U3R5bGVUeXBlPSJ0ZXh0L2NzcyIgaGVpZ2h0PSIyOTFweCIgcHJlc2VydmVBc3BlY3RSYXRpbz0ibm9uZSIgc3R5bGU9IndpZHRoOjU5MHB4O2hlaWdodDoyOTFweDtiYWNrZ3JvdW5kOiNGRkZGRkY7IiB2ZXJzaW9uPSIxLjEiIHZpZXdCb3g9IjAgMCA1OTAgMjkxIiB3aWR0aD0iNTkwcHgiIHpvb21BbmRQYW49Im1hZ25pZnkiPjxkZWZzLz48Zz48bGluZSBzdHlsZT0ic3Ryb2tlOiMxODE4MTg7c3Ryb2tlLXdpZHRoOjAuNTtzdHJva2UtZGFzaGFycmF5OjUuMCw1LjA7IiB4MT0iMjIiIHgyPSIyMiIgeTE9Ijc5Ljk4NDQiIHkyPSIyMTEuNjQwNiIvPjxsaW5lIHN0eWxlPSJzdHJva2U6IzE4MTgxODtzdHJva2Utd2lkdGg6MC41O3N0cm9rZS1kYXNoYXJyYXk6NS4wLDUuMDsiIHgxPSIzMTgiIHgyPSIzMTgiIHkxPSI3OS45ODQ0IiB5Mj0iMjExLjY0MDYiLz48bGluZSBzdHlsZT0ic3Ryb2tlOiMxODE4MTg7c3Ryb2tlLXdpZHRoOjAuNTtzdHJva2UtZGFzaGFycmF5OjUuMCw1LjA7IiB4MT0iNTQ1LjUiIHgyPSI1NDUuNSIgeTE9Ijc5Ljk4NDQiIHkyPSIyMTEuNjQwNiIvPjx0ZXh0IGZpbGw9IiMwMDAwMDAiIGZvbnQtZmFtaWx5PSJzYW5zLXNlcmlmIiBmb250LXNpemU9IjE0IiBsZW5ndGhBZGp1c3Q9InNwYWNpbmciIHRleHRMZW5ndGg9IjI4IiB4PSI1IiB5PSI3OC4yMzQ0Ij5Vc2VyPC90ZXh0PjxlbGxpcHNlIGN4PSIyMiIgY3k9IjEzLjUiIGZpbGw9IiNFMkUyRjAiIHJ4PSI4IiByeT0iOCIgc3R5bGU9InN0cm9rZTojMTgxODE4O3N0cm9rZS13aWR0aDowLjU7Ii8+PHBhdGggZD0iTTIyLDIxLjUgTDIyLDQ4LjUgTTksMjkuNSBMMzUsMjkuNSBNMjIsNDguNSBMOSw2My41IE0yMiw0OC41IEwzNSw2My41ICIgZmlsbD0ibm9uZSIgc3R5bGU9InN0cm9rZTojMTgxODE4O3N0cm9rZS13aWR0aDowLjU7Ii8+PHRleHQgZmlsbD0iIzAwMDAwMCIgZm9udC1mYW1pbHk9InNhbnMtc2VyaWYiIGZvbnQtc2l6ZT0iMTQiIGxlbmd0aEFkanVzdD0ic3BhY2luZyIgdGV4dExlbmd0aD0iMjgiIHg9IjUiIHk9IjIyMy44NzUiPlVzZXI8L3RleHQ+PGVsbGlwc2UgY3g9IjIyIiBjeT0iMjM0LjEyNSIgZmlsbD0iI0UyRTJGMCIgcng9IjgiIHJ5PSI4IiBzdHlsZT0ic3Ryb2tlOiMxODE4MTg7c3Ryb2tlLXdpZHRoOjAuNTsiLz48cGF0aCBkPSJNMjIsMjQyLjEyNSBMMjIsMjY5LjEyNSBNOSwyNTAuMTI1IEwzNSwyNTAuMTI1IE0yMiwyNjkuMTI1IEw5LDI4NC4xMjUgTTIyLDI2OS4xMjUgTDM1LDI4NC4xMjUgIiBmaWxsPSJub25lIiBzdHlsZT0ic3Ryb2tlOiMxODE4MTg7c3Ryb2tlLXdpZHRoOjAuNTsiLz48cmVjdCBmaWxsPSIjRTJFMkYwIiBoZWlnaHQ9IjI4Ljk4NDQiIHJ4PSIyLjUiIHJ5PSIyLjUiIHN0eWxlPSJzdHJva2U6IzE4MTgxODtzdHJva2Utd2lkdGg6MC41OyIgd2lkdGg9IjkyIiB4PSIyNzIiIHk9IjUwIi8+PHRleHQgZmlsbD0iIzAwMDAwMCIgZm9udC1mYW1pbHk9InNhbnMtc2VyaWYiIGZvbnQtc2l6ZT0iMTQiIGxlbmd0aEFkanVzdD0ic3BhY2luZyIgdGV4dExlbmd0aD0iNzgiIHg9IjI3OSIgeT0iNzAuMjM0NCI+QVBJIEdhdGV3YXk8L3RleHQ+PHJlY3QgZmlsbD0iI0UyRTJGMCIgaGVpZ2h0PSIyOC45ODQ0IiByeD0iMi41IiByeT0iMi41IiBzdHlsZT0ic3Ryb2tlOiMxODE4MTg7c3Ryb2tlLXdpZHRoOjAuNTsiIHdpZHRoPSI5MiIgeD0iMjcyIiB5PSIyMTAuNjQwNiIvPjx0ZXh0IGZpbGw9IiMwMDAwMDAiIGZvbnQtZmFtaWx5PSJzYW5zLXNlcmlmIiBmb250LXNpemU9IjE0IiBsZW5ndGhBZGp1c3Q9InNwYWNpbmciIHRleHRMZW5ndGg9Ijc4IiB4PSIyNzkiIHk9IjIzMC44NzUiPkFQSSBHYXRld2F5PC90ZXh0PjxyZWN0IGZpbGw9IiNFMkUyRjAiIGhlaWdodD0iMjguOTg0NCIgcng9IjIuNSIgcnk9IjIuNSIgc3R5bGU9InN0cm9rZTojMTgxODE4O3N0cm9rZS13aWR0aDowLjU7IiB3aWR0aD0iNzciIHg9IjUwNy41IiB5PSI1MCIvPjx0ZXh0IGZpbGw9IiMwMDAwMDAiIGZvbnQtZmFtaWx5PSJzYW5zLXNlcmlmIiBmb250LXNpemU9IjE0IiBsZW5ndGhBZGp1c3Q9InNwYWNpbmciIHRleHRMZW5ndGg9IjYzIiB4PSI1MTQuNSIgeT0iNzAuMjM0NCI+VmVjdG9yIERCPC90ZXh0PjxyZWN0IGZpbGw9IiNFMkUyRjAiIGhlaWdodD0iMjguOTg0NCIgcng9IjIuNSIgcnk9IjIuNSIgc3R5bGU9InN0cm9rZTojMTgxODE4O3N0cm9rZS13aWR0aDowLjU7IiB3aWR0aD0iNzciIHg9IjUwNy41IiB5PSIyMTAuNjQwNiIvPjx0ZXh0IGZpbGw9IiMwMDAwMDAiIGZvbnQtZmFtaWx5PSJzYW5zLXNlcmlmIiBmb250LXNpemU9IjE0IiBsZW5ndGhBZGp1c3Q9InNwYWNpbmciIHRleHRMZW5ndGg9IjYzIiB4PSI1MTQuNSIgeT0iMjMwLjg3NSI+VmVjdG9yIERCPC90ZXh0Pjxwb2x5Z29uIGZpbGw9IiMxODE4MTgiIHBvaW50cz0iMzA2LDEwNS44OTg0LDMxNiwxMDkuODk4NCwzMDYsMTEzLjg5ODQsMzEwLDEwOS44OTg0IiBzdHlsZT0ic3Ryb2tlOiMxODE4MTg7c3Ryb2tlLXdpZHRoOjEuMDsiLz48bGluZSBzdHlsZT0ic3Ryb2tlOiMxODE4MTg7c3Ryb2tlLXdpZHRoOjEuMDsiIHgxPSIyMiIgeDI9IjMxMiIgeTE9IjEwOS44OTg0IiB5Mj0iMTA5Ljg5ODQiLz48dGV4dCBmaWxsPSIjMDAwMDAwIiBmb250LWZhbWlseT0ic2Fucy1zZXJpZiIgZm9udC1zaXplPSIxMyIgbGVuZ3RoQWRqdXN0PSJzcGFjaW5nIiB0ZXh0TGVuZ3RoPSIyNzIiIHg9IjI5IiB5PSIxMDYuMjczNCI+WSYjMjM0O3UgYyYjNzg0Nzt1IHhlbSBsJiM3ODgzO2NoIHMmIzc5MTc7IHBoJiMyMjY7biB0JiMyMzc7Y2ggYyYjNzkxMTthIGZpbGUgWDwvdGV4dD48cG9seWdvbiBmaWxsPSIjMTgxODE4IiBwb2ludHM9IjUzNCwxMzMuODEyNSw1NDQsMTM3LjgxMjUsNTM0LDE0MS44MTI1LDUzOCwxMzcuODEyNSIgc3R5bGU9InN0cm9rZTojMTgxODE4O3N0cm9rZS13aWR0aDoxLjA7Ii8+PGxpbmUgc3R5bGU9InN0cm9rZTojMTgxODE4O3N0cm9rZS13aWR0aDoxLjA7IiB4MT0iMzE4IiB4Mj0iNTQwIiB5MT0iMTM3LjgxMjUiIHkyPSIxMzcuODEyNSIvPjx0ZXh0IGZpbGw9IiMwMDAwMDAiIGZvbnQtZmFtaWx5PSJzYW5zLXNlcmlmIiBmb250LXNpemU9IjEzIiBsZW5ndGhBZGp1c3Q9InNwYWNpbmciIHRleHRMZW5ndGg9IjIwNCIgeD0iMzI1IiB5PSIxMzQuMTg3NSI+VHJ1eSB2JiM3ODQ1O24gZW1iZWRkaW5nIHYmIzIyNDsgbWV0YWRhdGE8L3RleHQ+PHBvbHlnb24gZmlsbD0iIzE4MTgxOCIgcG9pbnRzPSIzMjksMTYxLjcyNjYsMzE5LDE2NS43MjY2LDMyOSwxNjkuNzI2NiwzMjUsMTY1LjcyNjYiIHN0eWxlPSJzdHJva2U6IzE4MTgxODtzdHJva2Utd2lkdGg6MS4wOyIvPjxsaW5lIHN0eWxlPSJzdHJva2U6IzE4MTgxODtzdHJva2Utd2lkdGg6MS4wO3N0cm9rZS1kYXNoYXJyYXk6Mi4wLDIuMDsiIHgxPSIzMjMiIHgyPSI1NDUiIHkxPSIxNjUuNzI2NiIgeTI9IjE2NS43MjY2Ii8+PHRleHQgZmlsbD0iIzAwMDAwMCIgZm9udC1mYW1pbHk9InNhbnMtc2VyaWYiIGZvbnQtc2l6ZT0iMTMiIGxlbmd0aEFkanVzdD0ic3BhY2luZyIgdGV4dExlbmd0aD0iMTQ5IiB4PSIzMzUiIHk9IjE2Mi4xMDE2Ij5UciYjNzg0MzsgdiYjNzg3MzsgZCYjNzkxOTsgbGkmIzc4Nzk7dSBsJiM3ODgzO2NoIHMmIzc5MTc7PC90ZXh0Pjxwb2x5Z29uIGZpbGw9IiMxODE4MTgiIHBvaW50cz0iMzMsMTg5LjY0MDYsMjMsMTkzLjY0MDYsMzMsMTk3LjY0MDYsMjksMTkzLjY0MDYiIHN0eWxlPSJzdHJva2U6IzE4MTgxODtzdHJva2Utd2lkdGg6MS4wOyIvPjxsaW5lIHN0eWxlPSJzdHJva2U6IzE4MTgxODtzdHJva2Utd2lkdGg6MS4wOyIgeDE9IjI3IiB4Mj0iMzE3IiB5MT0iMTkzLjY0MDYiIHkyPSIxOTMuNjQwNiIvPjx0ZXh0IGZpbGw9IiMwMDAwMDAiIGZvbnQtZmFtaWx5PSJzYW5zLXNlcmlmIiBmb250LXNpemU9IjEzIiBsZW5ndGhBZGp1c3Q9InNwYWNpbmciIHRleHRMZW5ndGg9IjIxMiIgeD0iMzkiIHk9IjE5MC4wMTU2Ij5IaSYjNzg3NTtuIHRoJiM3ODgzOyBrJiM3ODcxO3QgcXUmIzc4NDM7IGNobyBuZyYjNDMyOyYjNzkwMTtpIGQmIzI0OTtuZzwvdGV4dD48IS0tU1JDPVtMT3d6SVdEMTU4TnhVT2YzLWhwMDVlOFhlN09NQ01YdmRIYnQxdFNkdy12Q0RBTE9NRldDV1lXSTQ4QXN4WEdNMHh4N1ZQRkMxMDlRdGRrLXlxRklCSmdTelJlSkJOTkVJREVJVEhXVGRmeFdZOW8tZlRLOHIyRlRfdTZ2dFpjZGF2cXlkcXc0bzJhTzdzSXNtNE55eTkweWgzdGtUOEVRbXZFaXE3Rk9lQXRZZ3VNQmNfSUc3RFE0QXJEaGQ4alNjbG1maEMyaXlvaWlVTll0cUNzYkxpaE80aWx1V2FPeEtrSDg5MHBaVlRzaXUtNGp5VTRVWWlDZFFpRlhxVi1qdFFWZGJHTUVhX3dHSGJHOW0zS0ZGbXV0RmFWOFFXNVJfZHZuVTNQR3lUa01NbTAwXS0tPjwvZz48L3N2Zz4=;" vertex="1" parent="1">
            <mxGeometry x="786" y="2600" width="590" height="291" as="geometry" />
          </mxCell>
        </UserObject>
        <mxCell id="pHtEFcCU99gmoeRJndIN-35" value="&lt;b&gt;Sequence Diagram 16: Quá Trình Tích Hợp Với Jira (Theo Dõi Bug/Issue)&lt;/b&gt;" style="text;html=1;align=center;verticalAlign=middle;resizable=0;points=[];autosize=1;strokeColor=none;fillColor=none;" vertex="1" parent="1">
          <mxGeometry x="760" y="2910" width="440" height="30" as="geometry" />
        </mxCell>
        <UserObject label="" plantUmlData="{&#xa;  &quot;data&quot;: &quot;@startuml\nparticipant \&quot;Backend API\&quot; as API\nparticipant \&quot;Jira Integration Module\&quot; as Jira\n\nAPI -&gt; Jira: Gửi thông tin lỗi/issue từ phân tích\nJira -&gt; Jira: Tạo mới issue trong Jira\nJira --&gt; API: Xác nhận issue đã được tạo\n@enduml\n&quot;,&#xa;  &quot;format&quot;: &quot;svg&quot;&#xa;}" id="pHtEFcCU99gmoeRJndIN-36">
          <mxCell style="shape=image;noLabel=1;verticalAlign=top;aspect=fixed;imageAspect=0;image=data:image/svg+xml,PD94bWwgdmVyc2lvbj0iMS4wIiBlbmNvZGluZz0idXMtYXNjaWkiIHN0YW5kYWxvbmU9Im5vIj8+PHN2ZyB4bWxucz0iaHR0cDovL3d3dy53My5vcmcvMjAwMC9zdmciIHhtbG5zOnhsaW5rPSJodHRwOi8vd3d3LnczLm9yZy8xOTk5L3hsaW5rIiBjb250ZW50U3R5bGVUeXBlPSJ0ZXh0L2NzcyIgaGVpZ2h0PSIxODVweCIgcHJlc2VydmVBc3BlY3RSYXRpbz0ibm9uZSIgc3R5bGU9IndpZHRoOjQ5MnB4O2hlaWdodDoxODVweDtiYWNrZ3JvdW5kOiNGRkZGRkY7IiB2ZXJzaW9uPSIxLjEiIHZpZXdCb3g9IjAgMCA0OTIgMTg1IiB3aWR0aD0iNDkycHgiIHpvb21BbmRQYW49Im1hZ25pZnkiPjxkZWZzLz48Zz48bGluZSBzdHlsZT0ic3Ryb2tlOiMxODE4MTg7c3Ryb2tlLXdpZHRoOjAuNTtzdHJva2UtZGFzaGFycmF5OjUuMCw1LjA7IiB4MT0iNTAiIHgyPSI1MCIgeTE9IjM0Ljk4NDQiIHkyPSIxNTEuNzI2NiIvPjxsaW5lIHN0eWxlPSJzdHJva2U6IzE4MTgxODtzdHJva2Utd2lkdGg6MC41O3N0cm9rZS1kYXNoYXJyYXk6NS4wLDUuMDsiIHgxPSIzMTYuNSIgeDI9IjMxNi41IiB5MT0iMzQuOTg0NCIgeTI9IjE1MS43MjY2Ii8+PHJlY3QgZmlsbD0iI0UyRTJGMCIgaGVpZ2h0PSIyOC45ODQ0IiByeD0iMi41IiByeT0iMi41IiBzdHlsZT0ic3Ryb2tlOiMxODE4MTg7c3Ryb2tlLXdpZHRoOjAuNTsiIHdpZHRoPSI5MSIgeD0iNSIgeT0iNSIvPjx0ZXh0IGZpbGw9IiMwMDAwMDAiIGZvbnQtZmFtaWx5PSJzYW5zLXNlcmlmIiBmb250LXNpemU9IjE0IiBsZW5ndGhBZGp1c3Q9InNwYWNpbmciIHRleHRMZW5ndGg9Ijc3IiB4PSIxMiIgeT0iMjUuMjM0NCI+QmFja2VuZCBBUEk8L3RleHQ+PHJlY3QgZmlsbD0iI0UyRTJGMCIgaGVpZ2h0PSIyOC45ODQ0IiByeD0iMi41IiByeT0iMi41IiBzdHlsZT0ic3Ryb2tlOiMxODE4MTg7c3Ryb2tlLXdpZHRoOjAuNTsiIHdpZHRoPSI5MSIgeD0iNSIgeT0iMTUwLjcyNjYiLz48dGV4dCBmaWxsPSIjMDAwMDAwIiBmb250LWZhbWlseT0ic2Fucy1zZXJpZiIgZm9udC1zaXplPSIxNCIgbGVuZ3RoQWRqdXN0PSJzcGFjaW5nIiB0ZXh0TGVuZ3RoPSI3NyIgeD0iMTIiIHk9IjE3MC45NjA5Ij5CYWNrZW5kIEFQSTwvdGV4dD48cmVjdCBmaWxsPSIjRTJFMkYwIiBoZWlnaHQ9IjI4Ljk4NDQiIHJ4PSIyLjUiIHJ5PSIyLjUiIHN0eWxlPSJzdHJva2U6IzE4MTgxODtzdHJva2Utd2lkdGg6MC41OyIgd2lkdGg9IjE3NiIgeD0iMjI4LjUiIHk9IjUiLz48dGV4dCBmaWxsPSIjMDAwMDAwIiBmb250LWZhbWlseT0ic2Fucy1zZXJpZiIgZm9udC1zaXplPSIxNCIgbGVuZ3RoQWRqdXN0PSJzcGFjaW5nIiB0ZXh0TGVuZ3RoPSIxNjIiIHg9IjIzNS41IiB5PSIyNS4yMzQ0Ij5KaXJhIEludGVncmF0aW9uIE1vZHVsZTwvdGV4dD48cmVjdCBmaWxsPSIjRTJFMkYwIiBoZWlnaHQ9IjI4Ljk4NDQiIHJ4PSIyLjUiIHJ5PSIyLjUiIHN0eWxlPSJzdHJva2U6IzE4MTgxODtzdHJva2Utd2lkdGg6MC41OyIgd2lkdGg9IjE3NiIgeD0iMjI4LjUiIHk9IjE1MC43MjY2Ii8+PHRleHQgZmlsbD0iIzAwMDAwMCIgZm9udC1mYW1pbHk9InNhbnMtc2VyaWYiIGZvbnQtc2l6ZT0iMTQiIGxlbmd0aEFkanVzdD0ic3BhY2luZyIgdGV4dExlbmd0aD0iMTYyIiB4PSIyMzUuNSIgeT0iMTcwLjk2MDkiPkppcmEgSW50ZWdyYXRpb24gTW9kdWxlPC90ZXh0Pjxwb2x5Z29uIGZpbGw9IiMxODE4MTgiIHBvaW50cz0iMzA0LjUsNjAuODk4NCwzMTQuNSw2NC44OTg0LDMwNC41LDY4Ljg5ODQsMzA4LjUsNjQuODk4NCIgc3R5bGU9InN0cm9rZTojMTgxODE4O3N0cm9rZS13aWR0aDoxLjA7Ii8+PGxpbmUgc3R5bGU9InN0cm9rZTojMTgxODE4O3N0cm9rZS13aWR0aDoxLjA7IiB4MT0iNTAuNSIgeDI9IjMxMC41IiB5MT0iNjQuODk4NCIgeTI9IjY0Ljg5ODQiLz48dGV4dCBmaWxsPSIjMDAwMDAwIiBmb250LWZhbWlseT0ic2Fucy1zZXJpZiIgZm9udC1zaXplPSIxMyIgbGVuZ3RoQWRqdXN0PSJzcGFjaW5nIiB0ZXh0TGVuZ3RoPSIyNDIiIHg9IjU3LjUiIHk9IjYxLjI3MzQiPkcmIzc5MTc7aSB0aCYjMjQ0O25nIHRpbiBsJiM3ODk1O2kvaXNzdWUgdCYjNzkxNTsgcGgmIzIyNjtuIHQmIzIzNztjaDwvdGV4dD48bGluZSBzdHlsZT0ic3Ryb2tlOiMxODE4MTg7c3Ryb2tlLXdpZHRoOjEuMDsiIHgxPSIzMTYuNSIgeDI9IjM1OC41IiB5MT0iOTIuODEyNSIgeTI9IjkyLjgxMjUiLz48bGluZSBzdHlsZT0ic3Ryb2tlOiMxODE4MTg7c3Ryb2tlLXdpZHRoOjEuMDsiIHgxPSIzNTguNSIgeDI9IjM1OC41IiB5MT0iOTIuODEyNSIgeTI9IjEwNS44MTI1Ii8+PGxpbmUgc3R5bGU9InN0cm9rZTojMTgxODE4O3N0cm9rZS13aWR0aDoxLjA7IiB4MT0iMzE3LjUiIHgyPSIzNTguNSIgeTE9IjEwNS44MTI1IiB5Mj0iMTA1LjgxMjUiLz48cG9seWdvbiBmaWxsPSIjMTgxODE4IiBwb2ludHM9IjMyNy41LDEwMS44MTI1LDMxNy41LDEwNS44MTI1LDMyNy41LDEwOS44MTI1LDMyMy41LDEwNS44MTI1IiBzdHlsZT0ic3Ryb2tlOiMxODE4MTg7c3Ryb2tlLXdpZHRoOjEuMDsiLz48dGV4dCBmaWxsPSIjMDAwMDAwIiBmb250LWZhbWlseT0ic2Fucy1zZXJpZiIgZm9udC1zaXplPSIxMyIgbGVuZ3RoQWRqdXN0PSJzcGFjaW5nIiB0ZXh0TGVuZ3RoPSIxNjIiIHg9IjMyMy41IiB5PSI4OS4xODc1Ij5UJiM3ODQxO28gbSYjNzg5OTtpIGlzc3VlIHRyb25nIEppcmE8L3RleHQ+PHBvbHlnb24gZmlsbD0iIzE4MTgxOCIgcG9pbnRzPSI2MS41LDEyOS43MjY2LDUxLjUsMTMzLjcyNjYsNjEuNSwxMzcuNzI2Niw1Ny41LDEzMy43MjY2IiBzdHlsZT0ic3Ryb2tlOiMxODE4MTg7c3Ryb2tlLXdpZHRoOjEuMDsiLz48bGluZSBzdHlsZT0ic3Ryb2tlOiMxODE4MTg7c3Ryb2tlLXdpZHRoOjEuMDtzdHJva2UtZGFzaGFycmF5OjIuMCwyLjA7IiB4MT0iNTUuNSIgeDI9IjMxNS41IiB5MT0iMTMzLjcyNjYiIHkyPSIxMzMuNzI2NiIvPjx0ZXh0IGZpbGw9IiMwMDAwMDAiIGZvbnQtZmFtaWx5PSJzYW5zLXNlcmlmIiBmb250LXNpemU9IjEzIiBsZW5ndGhBZGp1c3Q9InNwYWNpbmciIHRleHRMZW5ndGg9IjE4MCIgeD0iNjcuNSIgeT0iMTMwLjEwMTYiPlgmIzIyNTtjIG5oJiM3ODUzO24gaXNzdWUgJiMyNzM7JiMyMjc7ICYjMjczOyYjNDMyOyYjNzkwNztjIHQmIzc4NDE7bzwvdGV4dD48IS0tU1JDPVtKT3FuM2U5MDQ0THhKbDUzUi1tZkpCR25jOVhPTURYazVXOEpTSTJtN0NKQW1XZWYzT2M1NUxra3lIdng0blNhbmNPY2F0ZF9fS0FLWVlHTFdYTnliUDM3YzJDaVR3NEZLR3RSQV93MTNQSzI4UWl1QU9NWWRCN0RlcGdCSHRadVVQd0JPQk9PWm0xaGdwazJJaXNKNG9YWVA1UFZRNHZMTFNUR0xqekhmRVI2S0FRSmdKVkFWemN6eFBpUzl3a2xYMmJHdmF1cHJkbkhueGd3MDBWSkk3MWctdXVkejdLc2hIbGxYek1qVDRyRXpHNDBdLS0+PC9nPjwvc3ZnPg==;" vertex="1" parent="1">
            <mxGeometry x="786" y="2950" width="492" height="185" as="geometry" />
          </mxCell>
        </UserObject>
        <mxCell id="pHtEFcCU99gmoeRJndIN-37" value="&lt;b&gt;Sequence Diagram 17: Tạo Tài Liệu Chuẩn Agile/Scrum Tự Động&lt;/b&gt;" style="text;html=1;align=center;verticalAlign=middle;resizable=0;points=[];autosize=1;strokeColor=none;fillColor=none;" vertex="1" parent="1">
          <mxGeometry x="750" y="3170" width="390" height="30" as="geometry" />
        </mxCell>
        <UserObject label="" plantUmlData="{&#xa;  &quot;data&quot;: &quot;@startuml\nactor User\nparticipant \&quot;API Gateway\&quot; as API\nparticipant \&quot;AI Core Service\&quot; as AI\nparticipant \&quot;Visualization Service\&quot; as VS\n\nUser -&gt; API: Yêu cầu tạo tài liệu chuẩn Agile\nAPI -&gt; AI: Gửi dữ liệu dự án và yêu cầu chuẩn hóa\nAI --&gt; API: Trả về nội dung tài liệu chuẩn Agile\nAPI -&gt; VS: Yêu cầu tạo báo cáo (ví dụ: Grant Chart)\nVS --&gt; API: Trả về báo cáo dạng hình ảnh/sơ đồ\nAPI -&gt; User: Gửi tài liệu và báo cáo Agile cho người dùng\n@enduml\n&quot;,&#xa;  &quot;format&quot;: &quot;svg&quot;&#xa;}" id="pHtEFcCU99gmoeRJndIN-38">
          <mxCell style="shape=image;noLabel=1;verticalAlign=top;aspect=fixed;imageAspect=0;image=data:image/svg+xml,PD94bWwgdmVyc2lvbj0iMS4wIiBlbmNvZGluZz0idXMtYXNjaWkiIHN0YW5kYWxvbmU9Im5vIj8+PHN2ZyB4bWxucz0iaHR0cDovL3d3dy53My5vcmcvMjAwMC9zdmciIHhtbG5zOnhsaW5rPSJodHRwOi8vd3d3LnczLm9yZy8xOTk5L3hsaW5rIiBjb250ZW50U3R5bGVUeXBlPSJ0ZXh0L2NzcyIgaGVpZ2h0PSIzNDZweCIgcHJlc2VydmVBc3BlY3RSYXRpbz0ibm9uZSIgc3R5bGU9IndpZHRoOjg2OXB4O2hlaWdodDozNDZweDtiYWNrZ3JvdW5kOiNGRkZGRkY7IiB2ZXJzaW9uPSIxLjEiIHZpZXdCb3g9IjAgMCA4NjkgMzQ2IiB3aWR0aD0iODY5cHgiIHpvb21BbmRQYW49Im1hZ25pZnkiPjxkZWZzLz48Zz48bGluZSBzdHlsZT0ic3Ryb2tlOiMxODE4MTg7c3Ryb2tlLXdpZHRoOjAuNTtzdHJva2UtZGFzaGFycmF5OjUuMCw1LjA7IiB4MT0iMjIiIHgyPSIyMiIgeTE9Ijc5Ljk4NDQiIHkyPSIyNjcuNDY4OCIvPjxsaW5lIHN0eWxlPSJzdHJva2U6IzE4MTgxODtzdHJva2Utd2lkdGg6MC41O3N0cm9rZS1kYXNoYXJyYXk6NS4wLDUuMDsiIHgxPSIzNDYiIHgyPSIzNDYiIHkxPSI3OS45ODQ0IiB5Mj0iMjY3LjQ2ODgiLz48bGluZSBzdHlsZT0ic3Ryb2tlOiMxODE4MTg7c3Ryb2tlLXdpZHRoOjAuNTtzdHJva2UtZGFzaGFycmF5OjUuMCw1LjA7IiB4MT0iNjMyLjUiIHgyPSI2MzIuNSIgeTE9Ijc5Ljk4NDQiIHkyPSIyNjcuNDY4OCIvPjxsaW5lIHN0eWxlPSJzdHJva2U6IzE4MTgxODtzdHJva2Utd2lkdGg6MC41O3N0cm9rZS1kYXNoYXJyYXk6NS4wLDUuMDsiIHgxPSI3ODIuNSIgeDI9Ijc4Mi41IiB5MT0iNzkuOTg0NCIgeTI9IjI2Ny40Njg4Ii8+PHRleHQgZmlsbD0iIzAwMDAwMCIgZm9udC1mYW1pbHk9InNhbnMtc2VyaWYiIGZvbnQtc2l6ZT0iMTQiIGxlbmd0aEFkanVzdD0ic3BhY2luZyIgdGV4dExlbmd0aD0iMjgiIHg9IjUiIHk9Ijc4LjIzNDQiPlVzZXI8L3RleHQ+PGVsbGlwc2UgY3g9IjIyIiBjeT0iMTMuNSIgZmlsbD0iI0UyRTJGMCIgcng9IjgiIHJ5PSI4IiBzdHlsZT0ic3Ryb2tlOiMxODE4MTg7c3Ryb2tlLXdpZHRoOjAuNTsiLz48cGF0aCBkPSJNMjIsMjEuNSBMMjIsNDguNSBNOSwyOS41IEwzNSwyOS41IE0yMiw0OC41IEw5LDYzLjUgTTIyLDQ4LjUgTDM1LDYzLjUgIiBmaWxsPSJub25lIiBzdHlsZT0ic3Ryb2tlOiMxODE4MTg7c3Ryb2tlLXdpZHRoOjAuNTsiLz48dGV4dCBmaWxsPSIjMDAwMDAwIiBmb250LWZhbWlseT0ic2Fucy1zZXJpZiIgZm9udC1zaXplPSIxNCIgbGVuZ3RoQWRqdXN0PSJzcGFjaW5nIiB0ZXh0TGVuZ3RoPSIyOCIgeD0iNSIgeT0iMjc5LjcwMzEiPlVzZXI8L3RleHQ+PGVsbGlwc2UgY3g9IjIyIiBjeT0iMjg5Ljk1MzEiIGZpbGw9IiNFMkUyRjAiIHJ4PSI4IiByeT0iOCIgc3R5bGU9InN0cm9rZTojMTgxODE4O3N0cm9rZS13aWR0aDowLjU7Ii8+PHBhdGggZD0iTTIyLDI5Ny45NTMxIEwyMiwzMjQuOTUzMSBNOSwzMDUuOTUzMSBMMzUsMzA1Ljk1MzEgTTIyLDMyNC45NTMxIEw5LDMzOS45NTMxIE0yMiwzMjQuOTUzMSBMMzUsMzM5Ljk1MzEgIiBmaWxsPSJub25lIiBzdHlsZT0ic3Ryb2tlOiMxODE4MTg7c3Ryb2tlLXdpZHRoOjAuNTsiLz48cmVjdCBmaWxsPSIjRTJFMkYwIiBoZWlnaHQ9IjI4Ljk4NDQiIHJ4PSIyLjUiIHJ5PSIyLjUiIHN0eWxlPSJzdHJva2U6IzE4MTgxODtzdHJva2Utd2lkdGg6MC41OyIgd2lkdGg9IjkyIiB4PSIzMDAiIHk9IjUwIi8+PHRleHQgZmlsbD0iIzAwMDAwMCIgZm9udC1mYW1pbHk9InNhbnMtc2VyaWYiIGZvbnQtc2l6ZT0iMTQiIGxlbmd0aEFkanVzdD0ic3BhY2luZyIgdGV4dExlbmd0aD0iNzgiIHg9IjMwNyIgeT0iNzAuMjM0NCI+QVBJIEdhdGV3YXk8L3RleHQ+PHJlY3QgZmlsbD0iI0UyRTJGMCIgaGVpZ2h0PSIyOC45ODQ0IiByeD0iMi41IiByeT0iMi41IiBzdHlsZT0ic3Ryb2tlOiMxODE4MTg7c3Ryb2tlLXdpZHRoOjAuNTsiIHdpZHRoPSI5MiIgeD0iMzAwIiB5PSIyNjYuNDY4OCIvPjx0ZXh0IGZpbGw9IiMwMDAwMDAiIGZvbnQtZmFtaWx5PSJzYW5zLXNlcmlmIiBmb250LXNpemU9IjE0IiBsZW5ndGhBZGp1c3Q9InNwYWNpbmciIHRleHRMZW5ndGg9Ijc4IiB4PSIzMDciIHk9IjI4Ni43MDMxIj5BUEkgR2F0ZXdheTwvdGV4dD48cmVjdCBmaWxsPSIjRTJFMkYwIiBoZWlnaHQ9IjI4Ljk4NDQiIHJ4PSIyLjUiIHJ5PSIyLjUiIHN0eWxlPSJzdHJva2U6IzE4MTgxODtzdHJva2Utd2lkdGg6MC41OyIgd2lkdGg9IjExOSIgeD0iNTczLjUiIHk9IjUwIi8+PHRleHQgZmlsbD0iIzAwMDAwMCIgZm9udC1mYW1pbHk9InNhbnMtc2VyaWYiIGZvbnQtc2l6ZT0iMTQiIGxlbmd0aEFkanVzdD0ic3BhY2luZyIgdGV4dExlbmd0aD0iMTA1IiB4PSI1ODAuNSIgeT0iNzAuMjM0NCI+QUkgQ29yZSBTZXJ2aWNlPC90ZXh0PjxyZWN0IGZpbGw9IiNFMkUyRjAiIGhlaWdodD0iMjguOTg0NCIgcng9IjIuNSIgcnk9IjIuNSIgc3R5bGU9InN0cm9rZTojMTgxODE4O3N0cm9rZS13aWR0aDowLjU7IiB3aWR0aD0iMTE5IiB4PSI1NzMuNSIgeT0iMjY2LjQ2ODgiLz48dGV4dCBmaWxsPSIjMDAwMDAwIiBmb250LWZhbWlseT0ic2Fucy1zZXJpZiIgZm9udC1zaXplPSIxNCIgbGVuZ3RoQWRqdXN0PSJzcGFjaW5nIiB0ZXh0TGVuZ3RoPSIxMDUiIHg9IjU4MC41IiB5PSIyODYuNzAzMSI+QUkgQ29yZSBTZXJ2aWNlPC90ZXh0PjxyZWN0IGZpbGw9IiNFMkUyRjAiIGhlaWdodD0iMjguOTg0NCIgcng9IjIuNSIgcnk9IjIuNSIgc3R5bGU9InN0cm9rZTojMTgxODE4O3N0cm9rZS13aWR0aDowLjU7IiB3aWR0aD0iMTYxIiB4PSI3MDIuNSIgeT0iNTAiLz48dGV4dCBmaWxsPSIjMDAwMDAwIiBmb250LWZhbWlseT0ic2Fucy1zZXJpZiIgZm9udC1zaXplPSIxNCIgbGVuZ3RoQWRqdXN0PSJzcGFjaW5nIiB0ZXh0TGVuZ3RoPSIxNDciIHg9IjcwOS41IiB5PSI3MC4yMzQ0Ij5WaXN1YWxpemF0aW9uIFNlcnZpY2U8L3RleHQ+PHJlY3QgZmlsbD0iI0UyRTJGMCIgaGVpZ2h0PSIyOC45ODQ0IiByeD0iMi41IiByeT0iMi41IiBzdHlsZT0ic3Ryb2tlOiMxODE4MTg7c3Ryb2tlLXdpZHRoOjAuNTsiIHdpZHRoPSIxNjEiIHg9IjcwMi41IiB5PSIyNjYuNDY4OCIvPjx0ZXh0IGZpbGw9IiMwMDAwMDAiIGZvbnQtZmFtaWx5PSJzYW5zLXNlcmlmIiBmb250LXNpemU9IjE0IiBsZW5ndGhBZGp1c3Q9InNwYWNpbmciIHRleHRMZW5ndGg9IjE0NyIgeD0iNzA5LjUiIHk9IjI4Ni43MDMxIj5WaXN1YWxpemF0aW9uIFNlcnZpY2U8L3RleHQ+PHBvbHlnb24gZmlsbD0iIzE4MTgxOCIgcG9pbnRzPSIzMzQsMTA1Ljg5ODQsMzQ0LDEwOS44OTg0LDMzNCwxMTMuODk4NCwzMzgsMTA5Ljg5ODQiIHN0eWxlPSJzdHJva2U6IzE4MTgxODtzdHJva2Utd2lkdGg6MS4wOyIvPjxsaW5lIHN0eWxlPSJzdHJva2U6IzE4MTgxODtzdHJva2Utd2lkdGg6MS4wOyIgeDE9IjIyIiB4Mj0iMzQwIiB5MT0iMTA5Ljg5ODQiIHkyPSIxMDkuODk4NCIvPjx0ZXh0IGZpbGw9IiMwMDAwMDAiIGZvbnQtZmFtaWx5PSJzYW5zLXNlcmlmIiBmb250LXNpemU9IjEzIiBsZW5ndGhBZGp1c3Q9InNwYWNpbmciIHRleHRMZW5ndGg9IjIxNyIgeD0iMjkiIHk9IjEwNi4yNzM0Ij5ZJiMyMzQ7dSBjJiM3ODQ3O3UgdCYjNzg0MTtvIHQmIzIyNDtpIGxpJiM3ODc5O3UgY2h1JiM3ODQ5O24gQWdpbGU8L3RleHQ+PHBvbHlnb24gZmlsbD0iIzE4MTgxOCIgcG9pbnRzPSI2MjEsMTMzLjgxMjUsNjMxLDEzNy44MTI1LDYyMSwxNDEuODEyNSw2MjUsMTM3LjgxMjUiIHN0eWxlPSJzdHJva2U6IzE4MTgxODtzdHJva2Utd2lkdGg6MS4wOyIvPjxsaW5lIHN0eWxlPSJzdHJva2U6IzE4MTgxODtzdHJva2Utd2lkdGg6MS4wOyIgeDE9IjM0NiIgeDI9IjYyNyIgeTE9IjEzNy44MTI1IiB5Mj0iMTM3LjgxMjUiLz48dGV4dCBmaWxsPSIjMDAwMDAwIiBmb250LWZhbWlseT0ic2Fucy1zZXJpZiIgZm9udC1zaXplPSIxMyIgbGVuZ3RoQWRqdXN0PSJzcGFjaW5nIiB0ZXh0TGVuZ3RoPSIyNjMiIHg9IjM1MyIgeT0iMTM0LjE4NzUiPkcmIzc5MTc7aSBkJiM3OTE5OyBsaSYjNzg3OTt1IGQmIzc5MjE7ICYjMjI1O24gdiYjMjI0OyB5JiMyMzQ7dSBjJiM3ODQ3O3UgY2h1JiM3ODQ5O24gaCYjMjQzO2E8L3RleHQ+PHBvbHlnb24gZmlsbD0iIzE4MTgxOCIgcG9pbnRzPSIzNTcsMTYxLjcyNjYsMzQ3LDE2NS43MjY2LDM1NywxNjkuNzI2NiwzNTMsMTY1LjcyNjYiIHN0eWxlPSJzdHJva2U6IzE4MTgxODtzdHJva2Utd2lkdGg6MS4wOyIvPjxsaW5lIHN0eWxlPSJzdHJva2U6IzE4MTgxODtzdHJva2Utd2lkdGg6MS4wO3N0cm9rZS1kYXNoYXJyYXk6Mi4wLDIuMDsiIHgxPSIzNTEiIHgyPSI2MzIiIHkxPSIxNjUuNzI2NiIgeTI9IjE2NS43MjY2Ii8+PHRleHQgZmlsbD0iIzAwMDAwMCIgZm9udC1mYW1pbHk9InNhbnMtc2VyaWYiIGZvbnQtc2l6ZT0iMTMiIGxlbmd0aEFkanVzdD0ic3BhY2luZyIgdGV4dExlbmd0aD0iMjQ0IiB4PSIzNjMiIHk9IjE2Mi4xMDE2Ij5UciYjNzg0MzsgdiYjNzg3MzsgbiYjNzg5NztpIGR1bmcgdCYjMjI0O2kgbGkmIzc4Nzk7dSBjaHUmIzc4NDk7biBBZ2lsZTwvdGV4dD48cG9seWdvbiBmaWxsPSIjMTgxODE4IiBwb2ludHM9Ijc3MSwxODkuNjQwNiw3ODEsMTkzLjY0MDYsNzcxLDE5Ny42NDA2LDc3NSwxOTMuNjQwNiIgc3R5bGU9InN0cm9rZTojMTgxODE4O3N0cm9rZS13aWR0aDoxLjA7Ii8+PGxpbmUgc3R5bGU9InN0cm9rZTojMTgxODE4O3N0cm9rZS13aWR0aDoxLjA7IiB4MT0iMzQ2IiB4Mj0iNzc3IiB5MT0iMTkzLjY0MDYiIHkyPSIxOTMuNjQwNiIvPjx0ZXh0IGZpbGw9IiMwMDAwMDAiIGZvbnQtZmFtaWx5PSJzYW5zLXNlcmlmIiBmb250LXNpemU9IjEzIiBsZW5ndGhBZGp1c3Q9InNwYWNpbmciIHRleHRMZW5ndGg9IjI3MyIgeD0iMzUzIiB5PSIxOTAuMDE1NiI+WSYjMjM0O3UgYyYjNzg0Nzt1IHQmIzc4NDE7byBiJiMyMjU7byBjJiMyMjU7byAodiYjMjM3OyBkJiM3OTA5OzogR3JhbnQgQ2hhcnQpPC90ZXh0Pjxwb2x5Z29uIGZpbGw9IiMxODE4MTgiIHBvaW50cz0iMzU3LDIxNy41NTQ3LDM0NywyMjEuNTU0NywzNTcsMjI1LjU1NDcsMzUzLDIyMS41NTQ3IiBzdHlsZT0ic3Ryb2tlOiMxODE4MTg7c3Ryb2tlLXdpZHRoOjEuMDsiLz48bGluZSBzdHlsZT0ic3Ryb2tlOiMxODE4MTg7c3Ryb2tlLXdpZHRoOjEuMDtzdHJva2UtZGFzaGFycmF5OjIuMCwyLjA7IiB4MT0iMzUxIiB4Mj0iNzgyIiB5MT0iMjIxLjU1NDciIHkyPSIyMjEuNTU0NyIvPjx0ZXh0IGZpbGw9IiMwMDAwMDAiIGZvbnQtZmFtaWx5PSJzYW5zLXNlcmlmIiBmb250LXNpemU9IjEzIiBsZW5ndGhBZGp1c3Q9InNwYWNpbmciIHRleHRMZW5ndGg9IjIzNiIgeD0iMzYzIiB5PSIyMTcuOTI5NyI+VHImIzc4NDM7IHYmIzc4NzM7IGImIzIyNTtvIGMmIzIyNTtvIGQmIzc4NDE7bmcgaCYjMjM2O25oICYjNzg0MztuaC9zJiM0MTc7ICYjMjczOyYjNzg5MTs8L3RleHQ+PHBvbHlnb24gZmlsbD0iIzE4MTgxOCIgcG9pbnRzPSIzMywyNDUuNDY4OCwyMywyNDkuNDY4OCwzMywyNTMuNDY4OCwyOSwyNDkuNDY4OCIgc3R5bGU9InN0cm9rZTojMTgxODE4O3N0cm9rZS13aWR0aDoxLjA7Ii8+PGxpbmUgc3R5bGU9InN0cm9rZTojMTgxODE4O3N0cm9rZS13aWR0aDoxLjA7IiB4MT0iMjciIHgyPSIzNDUiIHkxPSIyNDkuNDY4OCIgeTI9IjI0OS40Njg4Ii8+PHRleHQgZmlsbD0iIzAwMDAwMCIgZm9udC1mYW1pbHk9InNhbnMtc2VyaWYiIGZvbnQtc2l6ZT0iMTMiIGxlbmd0aEFkanVzdD0ic3BhY2luZyIgdGV4dExlbmd0aD0iMzAwIiB4PSIzOSIgeT0iMjQ1Ljg0MzgiPkcmIzc5MTc7aSB0JiMyMjQ7aSBsaSYjNzg3OTt1IHYmIzIyNDsgYiYjMjI1O28gYyYjMjI1O28gQWdpbGUgY2hvIG5nJiM0MzI7JiM3OTAxO2kgZCYjMjQ5O25nPC90ZXh0PjwhLS1TUkM9W1hQMnpJaUgwNThOeEZDTFhBb3FNVW1qWHNNQlBKZVc2QkNWaWExYThhc0tvWVFvVGJSTE9NR1dSSDRIbktSNG9LdXhpVXlvUlU0UzlxTU4xdlo4X3Z2eHB0U2pJS3NXU2JybjdTd1FESkVNU0FPRjF3NzJBMkpGeVoycTZPMk5lbFk2T09ibmVaZlpoTWdSeUh4SVhJTUhQaUxvVUNvQ0J6S1VQbjU0S0daNHkyRFJ4RTc1RjVMQlZGYkdtbGNxQTZCVUtvQU10Yl9Ha0FqeS1BZW1vY1ZDZWU4S3N3ZmZ1a3ZBT1VWbElJVWR5MWpTZXI2dzlITV9RTUdadHBZOVk3dFIxSHpndFR3WXpsTzNvemVSU0FmTnpkdng0TXZYRjdQS3FiOXRRaEdCQkZKN2dpOGtuZUNOaUhhY3lEUmJsZDk0SHZHbHRoMEplTnVjelNqdFd5eWhSd291eEJBd1JfSlRlNkJidC1pT2ItMDhnTXh6d1Vxa1prRy1MVkc0MF0tLT48L2c+PC9zdmc+;" vertex="1" parent="1">
            <mxGeometry x="780" y="3210" width="869" height="346" as="geometry" />
          </mxCell>
        </UserObject>
        <mxCell id="pHtEFcCU99gmoeRJndIN-39" value="&lt;b&gt;Sequence Diagram 18: Quản Lý Task Và Workflow (Orchestration Service)&lt;/b&gt;" style="text;html=1;align=center;verticalAlign=middle;resizable=0;points=[];autosize=1;strokeColor=none;fillColor=none;" vertex="1" parent="1">
          <mxGeometry x="750" y="3590" width="440" height="30" as="geometry" />
        </mxCell>
        <UserObject label="" plantUmlData="{&#xa;  &quot;data&quot;: &quot;@startuml\nparticipant \&quot;Orchestration Service\&quot; as Orch\nparticipant \&quot;File Processing Service\&quot; as DPS\nparticipant \&quot;AI Core Service\&quot; as AI\n\nOrch -&gt; DPS: Bắt đầu xử lý file mới\nDPS --&gt; Orch: Trả về trạng thái xử lý (đang xử lý, hoàn thành)\nOrch -&gt; AI: Khi DPS báo hoàn thành, gửi nội dung cho AI xử lý\nAI --&gt; Orch: Trả về kết quả phân tích\nOrch -&gt; Orch: Tổng hợp và lưu lại trạng thái workflow\n@enduml\n&quot;,&#xa;  &quot;format&quot;: &quot;svg&quot;&#xa;}" id="pHtEFcCU99gmoeRJndIN-40">
          <mxCell style="shape=image;noLabel=1;verticalAlign=top;aspect=fixed;imageAspect=0;image=data:image/svg+xml,PD94bWwgdmVyc2lvbj0iMS4wIiBlbmNvZGluZz0idXMtYXNjaWkiIHN0YW5kYWxvbmU9Im5vIj8+PHN2ZyB4bWxucz0iaHR0cDovL3d3dy53My5vcmcvMjAwMC9zdmciIHhtbG5zOnhsaW5rPSJodHRwOi8vd3d3LnczLm9yZy8xOTk5L3hsaW5rIiBjb250ZW50U3R5bGVUeXBlPSJ0ZXh0L2NzcyIgaGVpZ2h0PSIyNDFweCIgcHJlc2VydmVBc3BlY3RSYXRpbz0ibm9uZSIgc3R5bGU9IndpZHRoOjY1OHB4O2hlaWdodDoyNDFweDtiYWNrZ3JvdW5kOiNGRkZGRkY7IiB2ZXJzaW9uPSIxLjEiIHZpZXdCb3g9IjAgMCA2NTggMjQxIiB3aWR0aD0iNjU4cHgiIHpvb21BbmRQYW49Im1hZ25pZnkiPjxkZWZzLz48Zz48bGluZSBzdHlsZT0ic3Ryb2tlOiMxODE4MTg7c3Ryb2tlLXdpZHRoOjAuNTtzdHJva2UtZGFzaGFycmF5OjUuMCw1LjA7IiB4MT0iODUiIHgyPSI4NSIgeTE9IjM0Ljk4NDQiIHkyPSIyMDcuNTU0NyIvPjxsaW5lIHN0eWxlPSJzdHJva2U6IzE4MTgxODtzdHJva2Utd2lkdGg6MC41O3N0cm9rZS1kYXNoYXJyYXk6NS4wLDUuMDsiIHgxPSI0MzUiIHgyPSI0MzUiIHkxPSIzNC45ODQ0IiB5Mj0iMjA3LjU1NDciLz48bGluZSBzdHlsZT0ic3Ryb2tlOiMxODE4MTg7c3Ryb2tlLXdpZHRoOjAuNTtzdHJva2UtZGFzaGFycmF5OjUuMCw1LjA7IiB4MT0iNTkyIiB4Mj0iNTkyIiB5MT0iMzQuOTg0NCIgeTI9IjIwNy41NTQ3Ii8+PHJlY3QgZmlsbD0iI0UyRTJGMCIgaGVpZ2h0PSIyOC45ODQ0IiByeD0iMi41IiByeT0iMi41IiBzdHlsZT0ic3Ryb2tlOiMxODE4MTg7c3Ryb2tlLXdpZHRoOjAuNTsiIHdpZHRoPSIxNjEiIHg9IjUiIHk9IjUiLz48dGV4dCBmaWxsPSIjMDAwMDAwIiBmb250LWZhbWlseT0ic2Fucy1zZXJpZiIgZm9udC1zaXplPSIxNCIgbGVuZ3RoQWRqdXN0PSJzcGFjaW5nIiB0ZXh0TGVuZ3RoPSIxNDciIHg9IjEyIiB5PSIyNS4yMzQ0Ij5PcmNoZXN0cmF0aW9uIFNlcnZpY2U8L3RleHQ+PHJlY3QgZmlsbD0iI0UyRTJGMCIgaGVpZ2h0PSIyOC45ODQ0IiByeD0iMi41IiByeT0iMi41IiBzdHlsZT0ic3Ryb2tlOiMxODE4MTg7c3Ryb2tlLXdpZHRoOjAuNTsiIHdpZHRoPSIxNjEiIHg9IjUiIHk9IjIwNi41NTQ3Ii8+PHRleHQgZmlsbD0iIzAwMDAwMCIgZm9udC1mYW1pbHk9InNhbnMtc2VyaWYiIGZvbnQtc2l6ZT0iMTQiIGxlbmd0aEFkanVzdD0ic3BhY2luZyIgdGV4dExlbmd0aD0iMTQ3IiB4PSIxMiIgeT0iMjI2Ljc4OTEiPk9yY2hlc3RyYXRpb24gU2VydmljZTwvdGV4dD48cmVjdCBmaWxsPSIjRTJFMkYwIiBoZWlnaHQ9IjI4Ljk4NDQiIHJ4PSIyLjUiIHJ5PSIyLjUiIHN0eWxlPSJzdHJva2U6IzE4MTgxODtzdHJva2Utd2lkdGg6MC41OyIgd2lkdGg9IjE3NSIgeD0iMzQ4IiB5PSI1Ii8+PHRleHQgZmlsbD0iIzAwMDAwMCIgZm9udC1mYW1pbHk9InNhbnMtc2VyaWYiIGZvbnQtc2l6ZT0iMTQiIGxlbmd0aEFkanVzdD0ic3BhY2luZyIgdGV4dExlbmd0aD0iMTYxIiB4PSIzNTUiIHk9IjI1LjIzNDQiPkZpbGUgUHJvY2Vzc2luZyBTZXJ2aWNlPC90ZXh0PjxyZWN0IGZpbGw9IiNFMkUyRjAiIGhlaWdodD0iMjguOTg0NCIgcng9IjIuNSIgcnk9IjIuNSIgc3R5bGU9InN0cm9rZTojMTgxODE4O3N0cm9rZS13aWR0aDowLjU7IiB3aWR0aD0iMTc1IiB4PSIzNDgiIHk9IjIwNi41NTQ3Ii8+PHRleHQgZmlsbD0iIzAwMDAwMCIgZm9udC1mYW1pbHk9InNhbnMtc2VyaWYiIGZvbnQtc2l6ZT0iMTQiIGxlbmd0aEFkanVzdD0ic3BhY2luZyIgdGV4dExlbmd0aD0iMTYxIiB4PSIzNTUiIHk9IjIyNi43ODkxIj5GaWxlIFByb2Nlc3NpbmcgU2VydmljZTwvdGV4dD48cmVjdCBmaWxsPSIjRTJFMkYwIiBoZWlnaHQ9IjI4Ljk4NDQiIHJ4PSIyLjUiIHJ5PSIyLjUiIHN0eWxlPSJzdHJva2U6IzE4MTgxODtzdHJva2Utd2lkdGg6MC41OyIgd2lkdGg9IjExOSIgeD0iNTMzIiB5PSI1Ii8+PHRleHQgZmlsbD0iIzAwMDAwMCIgZm9udC1mYW1pbHk9InNhbnMtc2VyaWYiIGZvbnQtc2l6ZT0iMTQiIGxlbmd0aEFkanVzdD0ic3BhY2luZyIgdGV4dExlbmd0aD0iMTA1IiB4PSI1NDAiIHk9IjI1LjIzNDQiPkFJIENvcmUgU2VydmljZTwvdGV4dD48cmVjdCBmaWxsPSIjRTJFMkYwIiBoZWlnaHQ9IjI4Ljk4NDQiIHJ4PSIyLjUiIHJ5PSIyLjUiIHN0eWxlPSJzdHJva2U6IzE4MTgxODtzdHJva2Utd2lkdGg6MC41OyIgd2lkdGg9IjExOSIgeD0iNTMzIiB5PSIyMDYuNTU0NyIvPjx0ZXh0IGZpbGw9IiMwMDAwMDAiIGZvbnQtZmFtaWx5PSJzYW5zLXNlcmlmIiBmb250LXNpemU9IjE0IiBsZW5ndGhBZGp1c3Q9InNwYWNpbmciIHRleHRMZW5ndGg9IjEwNSIgeD0iNTQwIiB5PSIyMjYuNzg5MSI+QUkgQ29yZSBTZXJ2aWNlPC90ZXh0Pjxwb2x5Z29uIGZpbGw9IiMxODE4MTgiIHBvaW50cz0iNDIzLjUsNjAuODk4NCw0MzMuNSw2NC44OTg0LDQyMy41LDY4Ljg5ODQsNDI3LjUsNjQuODk4NCIgc3R5bGU9InN0cm9rZTojMTgxODE4O3N0cm9rZS13aWR0aDoxLjA7Ii8+PGxpbmUgc3R5bGU9InN0cm9rZTojMTgxODE4O3N0cm9rZS13aWR0aDoxLjA7IiB4MT0iODUuNSIgeDI9IjQyOS41IiB5MT0iNjQuODk4NCIgeTI9IjY0Ljg5ODQiLz48dGV4dCBmaWxsPSIjMDAwMDAwIiBmb250LWZhbWlseT0ic2Fucy1zZXJpZiIgZm9udC1zaXplPSIxMyIgbGVuZ3RoQWRqdXN0PSJzcGFjaW5nIiB0ZXh0TGVuZ3RoPSIxNDciIHg9IjkyLjUiIHk9IjYxLjI3MzQiPkImIzc4NTU7dCAmIzI3MzsmIzc4NDc7dSB4JiM3OTE3OyBsJiMyNTM7IGZpbGUgbSYjNzg5OTtpPC90ZXh0Pjxwb2x5Z29uIGZpbGw9IiMxODE4MTgiIHBvaW50cz0iOTYuNSw4OC44MTI1LDg2LjUsOTIuODEyNSw5Ni41LDk2LjgxMjUsOTIuNSw5Mi44MTI1IiBzdHlsZT0ic3Ryb2tlOiMxODE4MTg7c3Ryb2tlLXdpZHRoOjEuMDsiLz48bGluZSBzdHlsZT0ic3Ryb2tlOiMxODE4MTg7c3Ryb2tlLXdpZHRoOjEuMDtzdHJva2UtZGFzaGFycmF5OjIuMCwyLjA7IiB4MT0iOTAuNSIgeDI9IjQzNC41IiB5MT0iOTIuODEyNSIgeTI9IjkyLjgxMjUiLz48dGV4dCBmaWxsPSIjMDAwMDAwIiBmb250LWZhbWlseT0ic2Fucy1zZXJpZiIgZm9udC1zaXplPSIxMyIgbGVuZ3RoQWRqdXN0PSJzcGFjaW5nIiB0ZXh0TGVuZ3RoPSIzMjYiIHg9IjEwMi41IiB5PSI4OS4xODc1Ij5UciYjNzg0MzsgdiYjNzg3MzsgdHImIzc4NDE7bmcgdGgmIzIyNTtpIHgmIzc5MTc7IGwmIzI1MzsgKCYjMjczO2FuZyB4JiM3OTE3OyBsJiMyNTM7LCBobyYjMjI0O24gdGgmIzIyNDtuaCk8L3RleHQ+PHBvbHlnb24gZmlsbD0iIzE4MTgxOCIgcG9pbnRzPSI1ODAuNSwxMTYuNzI2Niw1OTAuNSwxMjAuNzI2Niw1ODAuNSwxMjQuNzI2Niw1ODQuNSwxMjAuNzI2NiIgc3R5bGU9InN0cm9rZTojMTgxODE4O3N0cm9rZS13aWR0aDoxLjA7Ii8+PGxpbmUgc3R5bGU9InN0cm9rZTojMTgxODE4O3N0cm9rZS13aWR0aDoxLjA7IiB4MT0iODUuNSIgeDI9IjU4Ni41IiB5MT0iMTIwLjcyNjYiIHkyPSIxMjAuNzI2NiIvPjx0ZXh0IGZpbGw9IiMwMDAwMDAiIGZvbnQtZmFtaWx5PSJzYW5zLXNlcmlmIiBmb250LXNpemU9IjEzIiBsZW5ndGhBZGp1c3Q9InNwYWNpbmciIHRleHRMZW5ndGg9IjMzNiIgeD0iOTIuNSIgeT0iMTE3LjEwMTYiPktoaSBEUFMgYiYjMjI1O28gaG8mIzIyNDtuIHRoJiMyMjQ7bmgsIGcmIzc5MTc7aSBuJiM3ODk3O2kgZHVuZyBjaG8gQUkgeCYjNzkxNzsgbCYjMjUzOzwvdGV4dD48cG9seWdvbiBmaWxsPSIjMTgxODE4IiBwb2ludHM9Ijk2LjUsMTQ0LjY0MDYsODYuNSwxNDguNjQwNiw5Ni41LDE1Mi42NDA2LDkyLjUsMTQ4LjY0MDYiIHN0eWxlPSJzdHJva2U6IzE4MTgxODtzdHJva2Utd2lkdGg6MS4wOyIvPjxsaW5lIHN0eWxlPSJzdHJva2U6IzE4MTgxODtzdHJva2Utd2lkdGg6MS4wO3N0cm9rZS1kYXNoYXJyYXk6Mi4wLDIuMDsiIHgxPSI5MC41IiB4Mj0iNTkxLjUiIHkxPSIxNDguNjQwNiIgeTI9IjE0OC42NDA2Ii8+PHRleHQgZmlsbD0iIzAwMDAwMCIgZm9udC1mYW1pbHk9InNhbnMtc2VyaWYiIGZvbnQtc2l6ZT0iMTMiIGxlbmd0aEFkanVzdD0ic3BhY2luZyIgdGV4dExlbmd0aD0iMTY0IiB4PSIxMDIuNSIgeT0iMTQ1LjAxNTYiPlRyJiM3ODQzOyB2JiM3ODczOyBrJiM3ODcxO3QgcXUmIzc4NDM7IHBoJiMyMjY7biB0JiMyMzc7Y2g8L3RleHQ+PGxpbmUgc3R5bGU9InN0cm9rZTojMTgxODE4O3N0cm9rZS13aWR0aDoxLjA7IiB4MT0iODUuNSIgeDI9IjEyNy41IiB5MT0iMTc2LjU1NDciIHkyPSIxNzYuNTU0NyIvPjxsaW5lIHN0eWxlPSJzdHJva2U6IzE4MTgxODtzdHJva2Utd2lkdGg6MS4wOyIgeDE9IjEyNy41IiB4Mj0iMTI3LjUiIHkxPSIxNzYuNTU0NyIgeTI9IjE4OS41NTQ3Ii8+PGxpbmUgc3R5bGU9InN0cm9rZTojMTgxODE4O3N0cm9rZS13aWR0aDoxLjA7IiB4MT0iODYuNSIgeDI9IjEyNy41IiB5MT0iMTg5LjU1NDciIHkyPSIxODkuNTU0NyIvPjxwb2x5Z29uIGZpbGw9IiMxODE4MTgiIHBvaW50cz0iOTYuNSwxODUuNTU0Nyw4Ni41LDE4OS41NTQ3LDk2LjUsMTkzLjU1NDcsOTIuNSwxODkuNTU0NyIgc3R5bGU9InN0cm9rZTojMTgxODE4O3N0cm9rZS13aWR0aDoxLjA7Ii8+PHRleHQgZmlsbD0iIzAwMDAwMCIgZm9udC1mYW1pbHk9InNhbnMtc2VyaWYiIGZvbnQtc2l6ZT0iMTMiIGxlbmd0aEFkanVzdD0ic3BhY2luZyIgdGV4dExlbmd0aD0iMjYyIiB4PSI5Mi41IiB5PSIxNzIuOTI5NyI+VCYjNzg5MztuZyBoJiM3OTA3O3AgdiYjMjI0OyBsJiM0MzI7dSBsJiM3ODQxO2kgdHImIzc4NDE7bmcgdGgmIzIyNTtpIHdvcmtmbG93PC90ZXh0PjwhLS1TUkM9W1JQMm5KaUNtNDhSdEZDTWxKWTJyQnowMUFPMkc4V09nYkhTOG1Rc2oxWml1SmloQTh0SFdHMm05N1BXZ2M2Q1gxYlV5WHotNGlxR0JHTXBkay1fX19waU5nSk9ZNHFLZzNHT05Fa0VpRDNlckdhYkNjUXY1bldQOEl1SDlMRm5jcHFKRUNENGdPc0tmdkJuN2Rxd2NWSlhFU0E4cXdxNW40YU4xNWdFWjgxWlpzN1VsMWprTHhydWd0N2N4R1V4VUNHaXZEenUtWU9XZVo4V0VnWjRralVfTWdCc3pYdzZvZkhxQ1R3dHVhSHZpTG9iclQteVhrN0FEMzVHWi1VNC1GNHg2RUVTWUI4NGhyd2VVRGlJU3YwQklzcVUxd3VoeUNndjhpeFVEZ0Z2dGd1TmxGV25rZ3owZWs3aWNJeFVYUnpwYlZXa3lWSTFKeGtzd0dFcVF2OXpsNU44d0lGb3ZRd2RxT2ZRaHZIUzBdLS0+PC9nPjwvc3ZnPg==;" vertex="1" parent="1">
            <mxGeometry x="770" y="3640" width="658" height="241" as="geometry" />
          </mxCell>
        </UserObject>
        <mxCell id="pHtEFcCU99gmoeRJndIN-41" value="&lt;b&gt;Sequence Diagram 19: Quá Trình Xử Lý Lỗi Và Retry Mechanism&lt;/b&gt;" style="text;html=1;align=center;verticalAlign=middle;resizable=0;points=[];autosize=1;strokeColor=none;fillColor=none;" vertex="1" parent="1">
          <mxGeometry x="750" y="3918" width="390" height="30" as="geometry" />
        </mxCell>
        <UserObject label="" plantUmlData="{&#xa;  &quot;data&quot;: &quot;@startuml\nparticipant \&quot;Backend API\&quot; as API\nparticipant \&quot;Celery Worker\&quot; as CW\nparticipant \&quot;Task Queue\&quot; as TQ\n\nAPI -&gt; TQ: Đẩy task xử lý file\nTQ -&gt; CW: Nhận task\nCW -&gt; CW: Phát hiện lỗi trong quá trình xử lý\nCW -&gt; TQ: Gửi thông báo lỗi và yêu cầu retry\nTQ -&gt; CW: Gửi lại task sau khoảng delay cố định\n@enduml\n&quot;,&#xa;  &quot;format&quot;: &quot;svg&quot;&#xa;}" id="pHtEFcCU99gmoeRJndIN-43">
          <mxCell style="shape=image;noLabel=1;verticalAlign=top;aspect=fixed;imageAspect=0;image=data:image/svg+xml,PD94bWwgdmVyc2lvbj0iMS4wIiBlbmNvZGluZz0idXMtYXNjaWkiIHN0YW5kYWxvbmU9Im5vIj8+PHN2ZyB4bWxucz0iaHR0cDovL3d3dy53My5vcmcvMjAwMC9zdmciIHhtbG5zOnhsaW5rPSJodHRwOi8vd3d3LnczLm9yZy8xOTk5L3hsaW5rIiBjb250ZW50U3R5bGVUeXBlPSJ0ZXh0L2NzcyIgaGVpZ2h0PSIyNDFweCIgcHJlc2VydmVBc3BlY3RSYXRpbz0ibm9uZSIgc3R5bGU9IndpZHRoOjQ4M3B4O2hlaWdodDoyNDFweDtiYWNrZ3JvdW5kOiNGRkZGRkY7IiB2ZXJzaW9uPSIxLjEiIHZpZXdCb3g9IjAgMCA0ODMgMjQxIiB3aWR0aD0iNDgzcHgiIHpvb21BbmRQYW49Im1hZ25pZnkiPjxkZWZzLz48Zz48bGluZSBzdHlsZT0ic3Ryb2tlOiMxODE4MTg7c3Ryb2tlLXdpZHRoOjAuNTtzdHJva2UtZGFzaGFycmF5OjUuMCw1LjA7IiB4MT0iNTAiIHgyPSI1MCIgeTE9IjM0Ljk4NDQiIHkyPSIyMDcuNTU0NyIvPjxsaW5lIHN0eWxlPSJzdHJva2U6IzE4MTgxODtzdHJva2Utd2lkdGg6MC41O3N0cm9rZS1kYXNoYXJyYXk6NS4wLDUuMDsiIHgxPSIxNTgiIHgyPSIxNTgiIHkxPSIzNC45ODQ0IiB5Mj0iMjA3LjU1NDciLz48bGluZSBzdHlsZT0ic3Ryb2tlOiMxODE4MTg7c3Ryb2tlLXdpZHRoOjAuNTtzdHJva2UtZGFzaGFycmF5OjUuMCw1LjA7IiB4MT0iNDM1LjUiIHgyPSI0MzUuNSIgeTE9IjM0Ljk4NDQiIHkyPSIyMDcuNTU0NyIvPjxyZWN0IGZpbGw9IiNFMkUyRjAiIGhlaWdodD0iMjguOTg0NCIgcng9IjIuNSIgcnk9IjIuNSIgc3R5bGU9InN0cm9rZTojMTgxODE4O3N0cm9rZS13aWR0aDowLjU7IiB3aWR0aD0iOTEiIHg9IjUiIHk9IjUiLz48dGV4dCBmaWxsPSIjMDAwMDAwIiBmb250LWZhbWlseT0ic2Fucy1zZXJpZiIgZm9udC1zaXplPSIxNCIgbGVuZ3RoQWRqdXN0PSJzcGFjaW5nIiB0ZXh0TGVuZ3RoPSI3NyIgeD0iMTIiIHk9IjI1LjIzNDQiPkJhY2tlbmQgQVBJPC90ZXh0PjxyZWN0IGZpbGw9IiNFMkUyRjAiIGhlaWdodD0iMjguOTg0NCIgcng9IjIuNSIgcnk9IjIuNSIgc3R5bGU9InN0cm9rZTojMTgxODE4O3N0cm9rZS13aWR0aDowLjU7IiB3aWR0aD0iOTEiIHg9IjUiIHk9IjIwNi41NTQ3Ii8+PHRleHQgZmlsbD0iIzAwMDAwMCIgZm9udC1mYW1pbHk9InNhbnMtc2VyaWYiIGZvbnQtc2l6ZT0iMTQiIGxlbmd0aEFkanVzdD0ic3BhY2luZyIgdGV4dExlbmd0aD0iNzciIHg9IjEyIiB5PSIyMjYuNzg5MSI+QmFja2VuZCBBUEk8L3RleHQ+PHJlY3QgZmlsbD0iI0UyRTJGMCIgaGVpZ2h0PSIyOC45ODQ0IiByeD0iMi41IiByeT0iMi41IiBzdHlsZT0ic3Ryb2tlOiMxODE4MTg7c3Ryb2tlLXdpZHRoOjAuNTsiIHdpZHRoPSIxMDUiIHg9IjEwNiIgeT0iNSIvPjx0ZXh0IGZpbGw9IiMwMDAwMDAiIGZvbnQtZmFtaWx5PSJzYW5zLXNlcmlmIiBmb250LXNpemU9IjE0IiBsZW5ndGhBZGp1c3Q9InNwYWNpbmciIHRleHRMZW5ndGg9IjkxIiB4PSIxMTMiIHk9IjI1LjIzNDQiPkNlbGVyeSBXb3JrZXI8L3RleHQ+PHJlY3QgZmlsbD0iI0UyRTJGMCIgaGVpZ2h0PSIyOC45ODQ0IiByeD0iMi41IiByeT0iMi41IiBzdHlsZT0ic3Ryb2tlOiMxODE4MTg7c3Ryb2tlLXdpZHRoOjAuNTsiIHdpZHRoPSIxMDUiIHg9IjEwNiIgeT0iMjA2LjU1NDciLz48dGV4dCBmaWxsPSIjMDAwMDAwIiBmb250LWZhbWlseT0ic2Fucy1zZXJpZiIgZm9udC1zaXplPSIxNCIgbGVuZ3RoQWRqdXN0PSJzcGFjaW5nIiB0ZXh0TGVuZ3RoPSI5MSIgeD0iMTEzIiB5PSIyMjYuNzg5MSI+Q2VsZXJ5IFdvcmtlcjwvdGV4dD48cmVjdCBmaWxsPSIjRTJFMkYwIiBoZWlnaHQ9IjI4Ljk4NDQiIHJ4PSIyLjUiIHJ5PSIyLjUiIHN0eWxlPSJzdHJva2U6IzE4MTgxODtzdHJva2Utd2lkdGg6MC41OyIgd2lkdGg9Ijg0IiB4PSIzOTMuNSIgeT0iNSIvPjx0ZXh0IGZpbGw9IiMwMDAwMDAiIGZvbnQtZmFtaWx5PSJzYW5zLXNlcmlmIiBmb250LXNpemU9IjE0IiBsZW5ndGhBZGp1c3Q9InNwYWNpbmciIHRleHRMZW5ndGg9IjcwIiB4PSI0MDAuNSIgeT0iMjUuMjM0NCI+VGFzayBRdWV1ZTwvdGV4dD48cmVjdCBmaWxsPSIjRTJFMkYwIiBoZWlnaHQ9IjI4Ljk4NDQiIHJ4PSIyLjUiIHJ5PSIyLjUiIHN0eWxlPSJzdHJva2U6IzE4MTgxODtzdHJva2Utd2lkdGg6MC41OyIgd2lkdGg9Ijg0IiB4PSIzOTMuNSIgeT0iMjA2LjU1NDciLz48dGV4dCBmaWxsPSIjMDAwMDAwIiBmb250LWZhbWlseT0ic2Fucy1zZXJpZiIgZm9udC1zaXplPSIxNCIgbGVuZ3RoQWRqdXN0PSJzcGFjaW5nIiB0ZXh0TGVuZ3RoPSI3MCIgeD0iNDAwLjUiIHk9IjIyNi43ODkxIj5UYXNrIFF1ZXVlPC90ZXh0Pjxwb2x5Z29uIGZpbGw9IiMxODE4MTgiIHBvaW50cz0iNDIzLjUsNjAuODk4NCw0MzMuNSw2NC44OTg0LDQyMy41LDY4Ljg5ODQsNDI3LjUsNjQuODk4NCIgc3R5bGU9InN0cm9rZTojMTgxODE4O3N0cm9rZS13aWR0aDoxLjA7Ii8+PGxpbmUgc3R5bGU9InN0cm9rZTojMTgxODE4O3N0cm9rZS13aWR0aDoxLjA7IiB4MT0iNTAuNSIgeDI9IjQyOS41IiB5MT0iNjQuODk4NCIgeTI9IjY0Ljg5ODQiLz48dGV4dCBmaWxsPSIjMDAwMDAwIiBmb250LWZhbWlseT0ic2Fucy1zZXJpZiIgZm9udC1zaXplPSIxMyIgbGVuZ3RoQWRqdXN0PSJzcGFjaW5nIiB0ZXh0TGVuZ3RoPSIxMjgiIHg9IjU3LjUiIHk9IjYxLjI3MzQiPiYjMjcyOyYjNzg0OTt5IHRhc2sgeCYjNzkxNzsgbCYjMjUzOyBmaWxlPC90ZXh0Pjxwb2x5Z29uIGZpbGw9IiMxODE4MTgiIHBvaW50cz0iMTY5LjUsODguODEyNSwxNTkuNSw5Mi44MTI1LDE2OS41LDk2LjgxMjUsMTY1LjUsOTIuODEyNSIgc3R5bGU9InN0cm9rZTojMTgxODE4O3N0cm9rZS13aWR0aDoxLjA7Ii8+PGxpbmUgc3R5bGU9InN0cm9rZTojMTgxODE4O3N0cm9rZS13aWR0aDoxLjA7IiB4MT0iMTYzLjUiIHgyPSI0MzQuNSIgeTE9IjkyLjgxMjUiIHkyPSI5Mi44MTI1Ii8+PHRleHQgZmlsbD0iIzAwMDAwMCIgZm9udC1mYW1pbHk9InNhbnMtc2VyaWYiIGZvbnQtc2l6ZT0iMTMiIGxlbmd0aEFkanVzdD0ic3BhY2luZyIgdGV4dExlbmd0aD0iNjIiIHg9IjE3NS41IiB5PSI4OS4xODc1Ij5OaCYjNzg1MztuIHRhc2s8L3RleHQ+PGxpbmUgc3R5bGU9InN0cm9rZTojMTgxODE4O3N0cm9rZS13aWR0aDoxLjA7IiB4MT0iMTU4LjUiIHgyPSIyMDAuNSIgeTE9IjEyMC43MjY2IiB5Mj0iMTIwLjcyNjYiLz48bGluZSBzdHlsZT0ic3Ryb2tlOiMxODE4MTg7c3Ryb2tlLXdpZHRoOjEuMDsiIHgxPSIyMDAuNSIgeDI9IjIwMC41IiB5MT0iMTIwLjcyNjYiIHkyPSIxMzMuNzI2NiIvPjxsaW5lIHN0eWxlPSJzdHJva2U6IzE4MTgxODtzdHJva2Utd2lkdGg6MS4wOyIgeDE9IjE1OS41IiB4Mj0iMjAwLjUiIHkxPSIxMzMuNzI2NiIgeTI9IjEzMy43MjY2Ii8+PHBvbHlnb24gZmlsbD0iIzE4MTgxOCIgcG9pbnRzPSIxNjkuNSwxMjkuNzI2NiwxNTkuNSwxMzMuNzI2NiwxNjkuNSwxMzcuNzI2NiwxNjUuNSwxMzMuNzI2NiIgc3R5bGU9InN0cm9rZTojMTgxODE4O3N0cm9rZS13aWR0aDoxLjA7Ii8+PHRleHQgZmlsbD0iIzAwMDAwMCIgZm9udC1mYW1pbHk9InNhbnMtc2VyaWYiIGZvbnQtc2l6ZT0iMTMiIGxlbmd0aEFkanVzdD0ic3BhY2luZyIgdGV4dExlbmd0aD0iMjM3IiB4PSIxNjUuNSIgeT0iMTE3LjEwMTYiPlBoJiMyMjU7dCBoaSYjNzg3OTtuIGwmIzc4OTU7aSB0cm9uZyBxdSYjMjI1OyB0ciYjMjM2O25oIHgmIzc5MTc7IGwmIzI1Mzs8L3RleHQ+PHBvbHlnb24gZmlsbD0iIzE4MTgxOCIgcG9pbnRzPSI0MjMuNSwxNTcuNjQwNiw0MzMuNSwxNjEuNjQwNiw0MjMuNSwxNjUuNjQwNiw0MjcuNSwxNjEuNjQwNiIgc3R5bGU9InN0cm9rZTojMTgxODE4O3N0cm9rZS13aWR0aDoxLjA7Ii8+PGxpbmUgc3R5bGU9InN0cm9rZTojMTgxODE4O3N0cm9rZS13aWR0aDoxLjA7IiB4MT0iMTU4LjUiIHgyPSI0MjkuNSIgeTE9IjE2MS42NDA2IiB5Mj0iMTYxLjY0MDYiLz48dGV4dCBmaWxsPSIjMDAwMDAwIiBmb250LWZhbWlseT0ic2Fucy1zZXJpZiIgZm9udC1zaXplPSIxMyIgbGVuZ3RoQWRqdXN0PSJzcGFjaW5nIiB0ZXh0TGVuZ3RoPSIyMzMiIHg9IjE2NS41IiB5PSIxNTguMDE1NiI+RyYjNzkxNztpIHRoJiMyNDQ7bmcgYiYjMjI1O28gbCYjNzg5NTtpIHYmIzIyNDsgeSYjMjM0O3UgYyYjNzg0Nzt1IHJldHJ5PC90ZXh0Pjxwb2x5Z29uIGZpbGw9IiMxODE4MTgiIHBvaW50cz0iMTY5LjUsMTg1LjU1NDcsMTU5LjUsMTg5LjU1NDcsMTY5LjUsMTkzLjU1NDcsMTY1LjUsMTg5LjU1NDciIHN0eWxlPSJzdHJva2U6IzE4MTgxODtzdHJva2Utd2lkdGg6MS4wOyIvPjxsaW5lIHN0eWxlPSJzdHJva2U6IzE4MTgxODtzdHJva2Utd2lkdGg6MS4wOyIgeDE9IjE2My41IiB4Mj0iNDM0LjUiIHkxPSIxODkuNTU0NyIgeTI9IjE4OS41NTQ3Ii8+PHRleHQgZmlsbD0iIzAwMDAwMCIgZm9udC1mYW1pbHk9InNhbnMtc2VyaWYiIGZvbnQtc2l6ZT0iMTMiIGxlbmd0aEFkanVzdD0ic3BhY2luZyIgdGV4dExlbmd0aD0iMjUzIiB4PSIxNzUuNSIgeT0iMTg1LjkyOTciPkcmIzc5MTc7aSBsJiM3ODQxO2kgdGFzayBzYXUga2hvJiM3ODQzO25nIGRlbGF5IGMmIzc4ODk7ICYjMjczOyYjNzg4MztuaDwvdGV4dD48IS0tU1JDPVtMT3duSmlDbTU0THRWeUxMVHR3VzBuOWFHMm9lYUk5YlRiRTNoTFhFUzZuS1ZtNDMydnJPWUhXR1k2dkNaZlpTN182VnVBR2pBakV4VWtfUy1zdkJqSDZMUUFhb2M1dElnY1BnWE9sNXpHb3E2b1RmSnU2Q0lRT1RvYVJOSjR6OExsdWQyamhMbzJzcFIzZU5FSTRmMU1WZElTd25VdXgtbXk2Q3EzZUVNeVptV3JpWDZJZG9hU2RBRU12dXo1aXJDSUdoWnppNTN4cTE1dDV1TDkxblUxNG1rYjV0a0JVWEpwOXlBVnVOVVYyRDd3X0lBZzR5VjJUczZWaGNPN3U4aHQzWHF3QUFfanIyQ3dGVElPY3pKS1JWWXR0UlpiaEtsOGQtQlVNaWNBR2tFT1NEVGZpdUYyZC0ybTAwXS0tPjwvZz48L3N2Zz4=;" vertex="1" parent="1">
            <mxGeometry x="765" y="3960" width="483" height="241" as="geometry" />
          </mxCell>
        </UserObject>
        <mxCell id="pHtEFcCU99gmoeRJndIN-44" value="&lt;b&gt;Sequence Diagram 20: Tổng Hợp Và Trả Về Kết Quả Cuối Cùng Cho Người Dùng&lt;/b&gt;" style="text;html=1;align=center;verticalAlign=middle;resizable=0;points=[];autosize=1;strokeColor=none;fillColor=none;" vertex="1" parent="1">
          <mxGeometry x="750" y="4230" width="480" height="30" as="geometry" />
        </mxCell>
        <UserObject label="" plantUmlData="{&#xa;  &quot;data&quot;: &quot;@startuml\nactor User\nparticipant \&quot;API Gateway\&quot; as API\nparticipant \&quot;Orchestration Service\&quot; as Orch\nparticipant \&quot;Visualization Service\&quot; as VS\n\nUser -&gt; API: Yêu cầu xem kết quả phân tích của dự án\nAPI -&gt; Orch: Yêu cầu tổng hợp dữ liệu từ các module\nOrch -&gt; Orch: Tổng hợp dữ liệu từ AI, Vector DB, Document Processing, v.v.\nOrch -&gt; VS: Yêu cầu tạo sơ đồ tổng hợp\nVS --&gt; Orch: Trả về sơ đồ và báo cáo\nOrch -&gt; API: Trả về dữ liệu tổng hợp cho API\nAPI -&gt; User: Hiển thị kết quả phân tích và sơ đồ trực quan\n@enduml\n&quot;,&#xa;  &quot;format&quot;: &quot;svg&quot;&#xa;}" id="pHtEFcCU99gmoeRJndIN-45">
          <mxCell style="shape=image;noLabel=1;verticalAlign=top;aspect=fixed;imageAspect=0;image=data:image/svg+xml,PD94bWwgdmVyc2lvbj0iMS4wIiBlbmNvZGluZz0idXMtYXNjaWkiIHN0YW5kYWxvbmU9Im5vIj8+PHN2ZyB4bWxucz0iaHR0cDovL3d3dy53My5vcmcvMjAwMC9zdmciIHhtbG5zOnhsaW5rPSJodHRwOi8vd3d3LnczLm9yZy8xOTk5L3hsaW5rIiBjb250ZW50U3R5bGVUeXBlPSJ0ZXh0L2NzcyIgaGVpZ2h0PSIzODdweCIgcHJlc2VydmVBc3BlY3RSYXRpbz0ibm9uZSIgc3R5bGU9IndpZHRoOjExNDRweDtoZWlnaHQ6Mzg3cHg7YmFja2dyb3VuZDojRkZGRkZGOyIgdmVyc2lvbj0iMS4xIiB2aWV3Qm94PSIwIDAgMTE0NCAzODciIHdpZHRoPSIxMTQ0cHgiIHpvb21BbmRQYW49Im1hZ25pZnkiPjxkZWZzLz48Zz48bGluZSBzdHlsZT0ic3Ryb2tlOiMxODE4MTg7c3Ryb2tlLXdpZHRoOjAuNTtzdHJva2UtZGFzaGFycmF5OjUuMCw1LjA7IiB4MT0iMjIiIHgyPSIyMiIgeTE9Ijc5Ljk4NDQiIHkyPSIzMDguMzgyOCIvPjxsaW5lIHN0eWxlPSJzdHJva2U6IzE4MTgxODtzdHJva2Utd2lkdGg6MC41O3N0cm9rZS1kYXNoYXJyYXk6NS4wLDUuMDsiIHgxPSIzNTQiIHgyPSIzNTQiIHkxPSI3OS45ODQ0IiB5Mj0iMzA4LjM4MjgiLz48bGluZSBzdHlsZT0ic3Ryb2tlOiMxODE4MTg7c3Ryb2tlLXdpZHRoOjAuNTtzdHJva2UtZGFzaGFycmF5OjUuMCw1LjA7IiB4MT0iNjM3LjUiIHgyPSI2MzcuNSIgeTE9Ijc5Ljk4NDQiIHkyPSIzMDguMzgyOCIvPjxsaW5lIHN0eWxlPSJzdHJva2U6IzE4MTgxODtzdHJva2Utd2lkdGg6MC41O3N0cm9rZS1kYXNoYXJyYXk6NS4wLDUuMDsiIHgxPSIxMDU3LjUiIHgyPSIxMDU3LjUiIHkxPSI3OS45ODQ0IiB5Mj0iMzA4LjM4MjgiLz48dGV4dCBmaWxsPSIjMDAwMDAwIiBmb250LWZhbWlseT0ic2Fucy1zZXJpZiIgZm9udC1zaXplPSIxNCIgbGVuZ3RoQWRqdXN0PSJzcGFjaW5nIiB0ZXh0TGVuZ3RoPSIyOCIgeD0iNSIgeT0iNzguMjM0NCI+VXNlcjwvdGV4dD48ZWxsaXBzZSBjeD0iMjIiIGN5PSIxMy41IiBmaWxsPSIjRTJFMkYwIiByeD0iOCIgcnk9IjgiIHN0eWxlPSJzdHJva2U6IzE4MTgxODtzdHJva2Utd2lkdGg6MC41OyIvPjxwYXRoIGQ9Ik0yMiwyMS41IEwyMiw0OC41IE05LDI5LjUgTDM1LDI5LjUgTTIyLDQ4LjUgTDksNjMuNSBNMjIsNDguNSBMMzUsNjMuNSAiIGZpbGw9Im5vbmUiIHN0eWxlPSJzdHJva2U6IzE4MTgxODtzdHJva2Utd2lkdGg6MC41OyIvPjx0ZXh0IGZpbGw9IiMwMDAwMDAiIGZvbnQtZmFtaWx5PSJzYW5zLXNlcmlmIiBmb250LXNpemU9IjE0IiBsZW5ndGhBZGp1c3Q9InNwYWNpbmciIHRleHRMZW5ndGg9IjI4IiB4PSI1IiB5PSIzMjAuNjE3MiI+VXNlcjwvdGV4dD48ZWxsaXBzZSBjeD0iMjIiIGN5PSIzMzAuODY3MiIgZmlsbD0iI0UyRTJGMCIgcng9IjgiIHJ5PSI4IiBzdHlsZT0ic3Ryb2tlOiMxODE4MTg7c3Ryb2tlLXdpZHRoOjAuNTsiLz48cGF0aCBkPSJNMjIsMzM4Ljg2NzIgTDIyLDM2NS44NjcyIE05LDM0Ni44NjcyIEwzNSwzNDYuODY3MiBNMjIsMzY1Ljg2NzIgTDksMzgwLjg2NzIgTTIyLDM2NS44NjcyIEwzNSwzODAuODY3MiAiIGZpbGw9Im5vbmUiIHN0eWxlPSJzdHJva2U6IzE4MTgxODtzdHJva2Utd2lkdGg6MC41OyIvPjxyZWN0IGZpbGw9IiNFMkUyRjAiIGhlaWdodD0iMjguOTg0NCIgcng9IjIuNSIgcnk9IjIuNSIgc3R5bGU9InN0cm9rZTojMTgxODE4O3N0cm9rZS13aWR0aDowLjU7IiB3aWR0aD0iOTIiIHg9IjMwOCIgeT0iNTAiLz48dGV4dCBmaWxsPSIjMDAwMDAwIiBmb250LWZhbWlseT0ic2Fucy1zZXJpZiIgZm9udC1zaXplPSIxNCIgbGVuZ3RoQWRqdXN0PSJzcGFjaW5nIiB0ZXh0TGVuZ3RoPSI3OCIgeD0iMzE1IiB5PSI3MC4yMzQ0Ij5BUEkgR2F0ZXdheTwvdGV4dD48cmVjdCBmaWxsPSIjRTJFMkYwIiBoZWlnaHQ9IjI4Ljk4NDQiIHJ4PSIyLjUiIHJ5PSIyLjUiIHN0eWxlPSJzdHJva2U6IzE4MTgxODtzdHJva2Utd2lkdGg6MC41OyIgd2lkdGg9IjkyIiB4PSIzMDgiIHk9IjMwNy4zODI4Ii8+PHRleHQgZmlsbD0iIzAwMDAwMCIgZm9udC1mYW1pbHk9InNhbnMtc2VyaWYiIGZvbnQtc2l6ZT0iMTQiIGxlbmd0aEFkanVzdD0ic3BhY2luZyIgdGV4dExlbmd0aD0iNzgiIHg9IjMxNSIgeT0iMzI3LjYxNzIiPkFQSSBHYXRld2F5PC90ZXh0PjxyZWN0IGZpbGw9IiNFMkUyRjAiIGhlaWdodD0iMjguOTg0NCIgcng9IjIuNSIgcnk9IjIuNSIgc3R5bGU9InN0cm9rZTojMTgxODE4O3N0cm9rZS13aWR0aDowLjU7IiB3aWR0aD0iMTYxIiB4PSI1NTcuNSIgeT0iNTAiLz48dGV4dCBmaWxsPSIjMDAwMDAwIiBmb250LWZhbWlseT0ic2Fucy1zZXJpZiIgZm9udC1zaXplPSIxNCIgbGVuZ3RoQWRqdXN0PSJzcGFjaW5nIiB0ZXh0TGVuZ3RoPSIxNDciIHg9IjU2NC41IiB5PSI3MC4yMzQ0Ij5PcmNoZXN0cmF0aW9uIFNlcnZpY2U8L3RleHQ+PHJlY3QgZmlsbD0iI0UyRTJGMCIgaGVpZ2h0PSIyOC45ODQ0IiByeD0iMi41IiByeT0iMi41IiBzdHlsZT0ic3Ryb2tlOiMxODE4MTg7c3Ryb2tlLXdpZHRoOjAuNTsiIHdpZHRoPSIxNjEiIHg9IjU1Ny41IiB5PSIzMDcuMzgyOCIvPjx0ZXh0IGZpbGw9IiMwMDAwMDAiIGZvbnQtZmFtaWx5PSJzYW5zLXNlcmlmIiBmb250LXNpemU9IjE0IiBsZW5ndGhBZGp1c3Q9InNwYWNpbmciIHRleHRMZW5ndGg9IjE0NyIgeD0iNTY0LjUiIHk9IjMyNy42MTcyIj5PcmNoZXN0cmF0aW9uIFNlcnZpY2U8L3RleHQ+PHJlY3QgZmlsbD0iI0UyRTJGMCIgaGVpZ2h0PSIyOC45ODQ0IiByeD0iMi41IiByeT0iMi41IiBzdHlsZT0ic3Ryb2tlOiMxODE4MTg7c3Ryb2tlLXdpZHRoOjAuNTsiIHdpZHRoPSIxNjEiIHg9Ijk3Ny41IiB5PSI1MCIvPjx0ZXh0IGZpbGw9IiMwMDAwMDAiIGZvbnQtZmFtaWx5PSJzYW5zLXNlcmlmIiBmb250LXNpemU9IjE0IiBsZW5ndGhBZGp1c3Q9InNwYWNpbmciIHRleHRMZW5ndGg9IjE0NyIgeD0iOTg0LjUiIHk9IjcwLjIzNDQiPlZpc3VhbGl6YXRpb24gU2VydmljZTwvdGV4dD48cmVjdCBmaWxsPSIjRTJFMkYwIiBoZWlnaHQ9IjI4Ljk4NDQiIHJ4PSIyLjUiIHJ5PSIyLjUiIHN0eWxlPSJzdHJva2U6IzE4MTgxODtzdHJva2Utd2lkdGg6MC41OyIgd2lkdGg9IjE2MSIgeD0iOTc3LjUiIHk9IjMwNy4zODI4Ii8+PHRleHQgZmlsbD0iIzAwMDAwMCIgZm9udC1mYW1pbHk9InNhbnMtc2VyaWYiIGZvbnQtc2l6ZT0iMTQiIGxlbmd0aEFkanVzdD0ic3BhY2luZyIgdGV4dExlbmd0aD0iMTQ3IiB4PSI5ODQuNSIgeT0iMzI3LjYxNzIiPlZpc3VhbGl6YXRpb24gU2VydmljZTwvdGV4dD48cG9seWdvbiBmaWxsPSIjMTgxODE4IiBwb2ludHM9IjM0MiwxMDUuODk4NCwzNTIsMTA5Ljg5ODQsMzQyLDExMy44OTg0LDM0NiwxMDkuODk4NCIgc3R5bGU9InN0cm9rZTojMTgxODE4O3N0cm9rZS13aWR0aDoxLjA7Ii8+PGxpbmUgc3R5bGU9InN0cm9rZTojMTgxODE4O3N0cm9rZS13aWR0aDoxLjA7IiB4MT0iMjIiIHgyPSIzNDgiIHkxPSIxMDkuODk4NCIgeTI9IjEwOS44OTg0Ii8+PHRleHQgZmlsbD0iIzAwMDAwMCIgZm9udC1mYW1pbHk9InNhbnMtc2VyaWYiIGZvbnQtc2l6ZT0iMTMiIGxlbmd0aEFkanVzdD0ic3BhY2luZyIgdGV4dExlbmd0aD0iMjY5IiB4PSIyOSIgeT0iMTA2LjI3MzQiPlkmIzIzNDt1IGMmIzc4NDc7dSB4ZW0gayYjNzg3MTt0IHF1JiM3ODQzOyBwaCYjMjI2O24gdCYjMjM3O2NoIGMmIzc5MTE7YSBkJiM3OTIxOyAmIzIyNTtuPC90ZXh0Pjxwb2x5Z29uIGZpbGw9IiMxODE4MTgiIHBvaW50cz0iNjI2LDEzMy44MTI1LDYzNiwxMzcuODEyNSw2MjYsMTQxLjgxMjUsNjMwLDEzNy44MTI1IiBzdHlsZT0ic3Ryb2tlOiMxODE4MTg7c3Ryb2tlLXdpZHRoOjEuMDsiLz48bGluZSBzdHlsZT0ic3Ryb2tlOiMxODE4MTg7c3Ryb2tlLXdpZHRoOjEuMDsiIHgxPSIzNTQiIHgyPSI2MzIiIHkxPSIxMzcuODEyNSIgeTI9IjEzNy44MTI1Ii8+PHRleHQgZmlsbD0iIzAwMDAwMCIgZm9udC1mYW1pbHk9InNhbnMtc2VyaWYiIGZvbnQtc2l6ZT0iMTMiIGxlbmd0aEFkanVzdD0ic3BhY2luZyIgdGV4dExlbmd0aD0iMjYwIiB4PSIzNjEiIHk9IjEzNC4xODc1Ij5ZJiMyMzQ7dSBjJiM3ODQ3O3UgdCYjNzg5MztuZyBoJiM3OTA3O3AgZCYjNzkxOTsgbGkmIzc4Nzk7dSB0JiM3OTE1OyBjJiMyMjU7YyBtb2R1bGU8L3RleHQ+PGxpbmUgc3R5bGU9InN0cm9rZTojMTgxODE4O3N0cm9rZS13aWR0aDoxLjA7IiB4MT0iNjM4IiB4Mj0iNjgwIiB5MT0iMTY1LjcyNjYiIHkyPSIxNjUuNzI2NiIvPjxsaW5lIHN0eWxlPSJzdHJva2U6IzE4MTgxODtzdHJva2Utd2lkdGg6MS4wOyIgeDE9IjY4MCIgeDI9IjY4MCIgeTE9IjE2NS43MjY2IiB5Mj0iMTc4LjcyNjYiLz48bGluZSBzdHlsZT0ic3Ryb2tlOiMxODE4MTg7c3Ryb2tlLXdpZHRoOjEuMDsiIHgxPSI2MzkiIHgyPSI2ODAiIHkxPSIxNzguNzI2NiIgeTI9IjE3OC43MjY2Ii8+PHBvbHlnb24gZmlsbD0iIzE4MTgxOCIgcG9pbnRzPSI2NDksMTc0LjcyNjYsNjM5LDE3OC43MjY2LDY0OSwxODIuNzI2Niw2NDUsMTc4LjcyNjYiIHN0eWxlPSJzdHJva2U6IzE4MTgxODtzdHJva2Utd2lkdGg6MS4wOyIvPjx0ZXh0IGZpbGw9IiMwMDAwMDAiIGZvbnQtZmFtaWx5PSJzYW5zLXNlcmlmIiBmb250LXNpemU9IjEzIiBsZW5ndGhBZGp1c3Q9InNwYWNpbmciIHRleHRMZW5ndGg9IjQwNiIgeD0iNjQ1IiB5PSIxNjIuMTAxNiI+VCYjNzg5MztuZyBoJiM3OTA3O3AgZCYjNzkxOTsgbGkmIzc4Nzk7dSB0JiM3OTE1OyBBSSwgVmVjdG9yIERCLCBEb2N1bWVudCBQcm9jZXNzaW5nLCB2LnYuPC90ZXh0Pjxwb2x5Z29uIGZpbGw9IiMxODE4MTgiIHBvaW50cz0iMTA0NiwyMDIuNjQwNiwxMDU2LDIwNi42NDA2LDEwNDYsMjEwLjY0MDYsMTA1MCwyMDYuNjQwNiIgc3R5bGU9InN0cm9rZTojMTgxODE4O3N0cm9rZS13aWR0aDoxLjA7Ii8+PGxpbmUgc3R5bGU9InN0cm9rZTojMTgxODE4O3N0cm9rZS13aWR0aDoxLjA7IiB4MT0iNjM4IiB4Mj0iMTA1MiIgeTE9IjIwNi42NDA2IiB5Mj0iMjA2LjY0MDYiLz48dGV4dCBmaWxsPSIjMDAwMDAwIiBmb250LWZhbWlseT0ic2Fucy1zZXJpZiIgZm9udC1zaXplPSIxMyIgbGVuZ3RoQWRqdXN0PSJzcGFjaW5nIiB0ZXh0TGVuZ3RoPSIxODAiIHg9IjY0NSIgeT0iMjAzLjAxNTYiPlkmIzIzNDt1IGMmIzc4NDc7dSB0JiM3ODQxO28gcyYjNDE3OyAmIzI3MzsmIzc4OTE7IHQmIzc4OTM7bmcgaCYjNzkwNztwPC90ZXh0Pjxwb2x5Z29uIGZpbGw9IiMxODE4MTgiIHBvaW50cz0iNjQ5LDIzMC41NTQ3LDYzOSwyMzQuNTU0Nyw2NDksMjM4LjU1NDcsNjQ1LDIzNC41NTQ3IiBzdHlsZT0ic3Ryb2tlOiMxODE4MTg7c3Ryb2tlLXdpZHRoOjEuMDsiLz48bGluZSBzdHlsZT0ic3Ryb2tlOiMxODE4MTg7c3Ryb2tlLXdpZHRoOjEuMDtzdHJva2UtZGFzaGFycmF5OjIuMCwyLjA7IiB4MT0iNjQzIiB4Mj0iMTA1NyIgeTE9IjIzNC41NTQ3IiB5Mj0iMjM0LjU1NDciLz48dGV4dCBmaWxsPSIjMDAwMDAwIiBmb250LWZhbWlseT0ic2Fucy1zZXJpZiIgZm9udC1zaXplPSIxMyIgbGVuZ3RoQWRqdXN0PSJzcGFjaW5nIiB0ZXh0TGVuZ3RoPSIxNjAiIHg9IjY1NSIgeT0iMjMwLjkyOTciPlRyJiM3ODQzOyB2JiM3ODczOyBzJiM0MTc7ICYjMjczOyYjNzg5MTsgdiYjMjI0OyBiJiMyMjU7byBjJiMyMjU7bzwvdGV4dD48cG9seWdvbiBmaWxsPSIjMTgxODE4IiBwb2ludHM9IjM2NSwyNTguNDY4OCwzNTUsMjYyLjQ2ODgsMzY1LDI2Ni40Njg4LDM2MSwyNjIuNDY4OCIgc3R5bGU9InN0cm9rZTojMTgxODE4O3N0cm9rZS13aWR0aDoxLjA7Ii8+PGxpbmUgc3R5bGU9InN0cm9rZTojMTgxODE4O3N0cm9rZS13aWR0aDoxLjA7IiB4MT0iMzU5IiB4Mj0iNjM3IiB5MT0iMjYyLjQ2ODgiIHkyPSIyNjIuNDY4OCIvPjx0ZXh0IGZpbGw9IiMwMDAwMDAiIGZvbnQtZmFtaWx5PSJzYW5zLXNlcmlmIiBmb250LXNpemU9IjEzIiBsZW5ndGhBZGp1c3Q9InNwYWNpbmciIHRleHRMZW5ndGg9IjIxMiIgeD0iMzcxIiB5PSIyNTguODQzOCI+VHImIzc4NDM7IHYmIzc4NzM7IGQmIzc5MTk7IGxpJiM3ODc5O3UgdCYjNzg5MztuZyBoJiM3OTA3O3AgY2hvIEFQSTwvdGV4dD48cG9seWdvbiBmaWxsPSIjMTgxODE4IiBwb2ludHM9IjMzLDI4Ni4zODI4LDIzLDI5MC4zODI4LDMzLDI5NC4zODI4LDI5LDI5MC4zODI4IiBzdHlsZT0ic3Ryb2tlOiMxODE4MTg7c3Ryb2tlLXdpZHRoOjEuMDsiLz48bGluZSBzdHlsZT0ic3Ryb2tlOiMxODE4MTg7c3Ryb2tlLXdpZHRoOjEuMDsiIHgxPSIyNyIgeDI9IjM1MyIgeTE9IjI5MC4zODI4IiB5Mj0iMjkwLjM4MjgiLz48dGV4dCBmaWxsPSIjMDAwMDAwIiBmb250LWZhbWlseT0ic2Fucy1zZXJpZiIgZm9udC1zaXplPSIxMyIgbGVuZ3RoQWRqdXN0PSJzcGFjaW5nIiB0ZXh0TGVuZ3RoPSIzMDgiIHg9IjM5IiB5PSIyODYuNzU3OCI+SGkmIzc4NzU7biB0aCYjNzg4MzsgayYjNzg3MTt0IHF1JiM3ODQzOyBwaCYjMjI2O24gdCYjMjM3O2NoIHYmIzIyNDsgcyYjNDE3OyAmIzI3MzsmIzc4OTE7IHRyJiM3OTIxO2MgcXVhbjwvdGV4dD48IS0tU1JDPVtWUDZ6SmlDbTU4TnRGQ0xIdnhPRnEwNmZnMTlxZWI4VzRnRG5oU1FZWk9Galg5eURDSjBtOFNIRXc1MDlYMTFoRjdHOHVadHk5aldIUWZpWTZBdHh0TkZFRklQSzJ1YVpuTUlHNGdhdnZJYjlENWh6cUgxeEhCRHBTamEyS04zbDlkMFdRU29LYmFIcGFJMWFDa1VLclFZVkREYzhndW5DLVRMbERXZzNtOWtaaS1DalVaWWtOWjlHTW91b05CMFBKY3N2cjNaQlIzYjc2YlZGMk5KckhjRDdjME4xczllRkw0S0ktQkhFbUppdDlCR3JaeWE0aUpOcHJERmxjNzloUmtsMUFzWExLQ3A0RTlrb21BLWs5R3hfdFVpRnN1WE9OVG5XanVzMWVEY0NrSmo3S2IyYzU0eWNSVUpUbEJpSVpTQWpMNktYZUJ1QVZEdlJ5ejE4NktHWEVraVNxWC1VTXRFeldVVkw0cXVnZi0zb1l2TDd0VHU2bHZMd1ZHd0RIVnNSRnZ0dnpkbE9ULTJEQXpTWFR0LU14ZXF0S2FsTkZkS09JUnUxXS0tPjwvZz48L3N2Zz4=;" vertex="1" parent="1">
            <mxGeometry x="760" y="4280" width="1144" height="387" as="geometry" />
          </mxCell>
        </UserObject>
      </root>
    </mxGraphModel>
  </diagram>
</mxfile>
